SplineFontDB: 1.0
FontName: ArevSans-Oblique
FullName: Arev Sans Oblique
FamilyName: Arev Sans
Weight: Book
Copyright: Copyright (c) 2003 by Bitstream, Inc. All Rights Reserved.	Modifications: Copyright (c) 2006 by Tavmjong Bah. All Right Reserved
Version: Release 0.21a
FONDName: TavmjongBah
ItalicAngle: -11
UnderlinePosition: -213
UnderlineWidth: 143
Ascent: 1556
Descent: 492
Order2: 1
NeedsXUIDChange: 1
XUID: [1021 99 424017693 5304844]
FSType: 4
PfmFamily: 17
TTFWeight: 400
TTFWidth: 5
LineGap: 410
VLineGap: 0
Panose: 2 11 6 3 3 3 4 11 2 4
OS2TypoAscent: 0
OS2TypoAOffset: 1
OS2TypoDescent: 0
OS2TypoDOffset: 1
OS2TypoLinegap: 0
OS2WinAscent: 0
OS2WinAOffset: 1
OS2WinDescent: 0
OS2WinDOffset: 1
HheadAscent: 0
HheadAOffset: 1
HheadDescent: 0
HheadDOffset: 1
OS2SubXSize: 1351
OS2SubYSize: 1228
OS2SubXOff: 0
OS2SubYOff: -446
OS2SupXSize: 1351
OS2SupYSize: 1228
OS2SupXOff: 0
OS2SupYOff: 595
OS2StrikeYSize: 143
OS2StrikeYPos: 614
OS2FamilyClass: 2050
OS2Vendor: 'Tavm'
ScriptLang: 2
 1 latn 1 dflt 
 1 DFLT 1 dflt 
KernClass: 29 32 0 0
 6 hyphen
 112 A Agrave Aacute Acircumflex Atilde Adieresis Amacron Abreve Aogonek uni01CD uni01DE uni01E0 uni01E2 Delta Lambda
 6 B Beta
 47 C Ccedilla Cacute Ccaron Ccircumflex Cdotaccent
 1 F
 20 K Kcommaaccent Kappa
 56 L Lslash Lacute Lcommaaccent Lcaron Ldot uni01C7 uni01C8
 151 O Ograve Oacute Ocircumflex Otilde Odieresis Omacron Obreve Ohungarumlaut uni018F uni01D1 uni01EA uni01EC uni022A uni022C uni022E uni0230 Omicron Theta
 5 P Rho
 5 Q Eth
 56 S Scedilla Scaron Sacute Scircumflex Scaron Scommaaccent
 39 T Tcommaaccent Tcaron uni021A Gamma Tau
 1 V
 37 W Wcircumflex Wgrave Wacute Wdieresis
 5 X Chi
 62 Y Yacute Ydieresis Ycircumflex uni0232 Ygrave Upsilon Upsilon1
 31 Z Zcaron Zacute Zdotaccent Zeta
 7 f longs
 28 r racute rcommaaccent rcaron
 1 v
 37 w wcircumflex wgrave wacute wdieresis
 45 y yacute ydieresis ycircumflex uni0233 ygrave
 2 AE
 6 Oslash
 5 Thorn
 22 quoteleft quotedblleft
 14 quotesinglbase
 12 quotedblbase

StartChar: .notdef
Encoding: 65536 -1 0
Width: 1229
Flags: W
Fore
102 -362 m 1,0,-1
 102 1444 l 1,1,-1
 1126 1444 l 1,2,-1
 1126 -362 l 1,3,-1
 102 -362 l 1,0,-1
217 -248 m 1,4,-1
 1012 -248 l 1,5,-1
 1012 1329 l 1,6,-1
 217 1329 l 1,7,-1
 217 -248 l 1,4,-1
EndSplineSet
Colour: aaaa88
EndChar
StartChar: .null
Encoding: 65537 0 1
Width: 1229
Flags: W
HStem: -362 114<102 1126> 181 34<581 774> 324 34<622 764> 446 34<581 770> 677 33<502 567.5> 816 34<462 578.5> 1006 34<388 522> 1329 115<102 1126>
VStem: 102 115<-362 1444> 462 40<551 850> 581 41<181 324 358 446> 581 189<181 480> 612 43<749.5 785.5> 1012 114<-362 1444>
Fore
795 -189 m 5,0,-1
 681 110 l 5,1,-1
 724 110 l 5,2,-1
 818 -141 l 5,3,-1
 913 110 l 5,4,-1
 955 110 l 5,5,-1
 841 -189 l 5,6,-1
 795 -189 l 5,0,-1
581 480 m 5,7,-1
 770 480 l 5,8,-1
 770 446 l 5,9,-1
 622 446 l 5,10,-1
 622 358 l 5,11,-1
 764 358 l 5,12,-1
 764 324 l 5,13,-1
 622 324 l 5,14,-1
 622 215 l 5,15,-1
 774 215 l 5,16,-1
 774 181 l 5,17,-1
 581 181 l 5,18,-1
 581 480 l 5,7,-1
604 691 m 5,19,20
 617 687 617 687 629 672 c 4,21,22
 641 658 641 658 654 633 c 5,23,-1
 695 551 l 5,24,-1
 651 551 l 5,25,-1
 613 628 l 5,26,27
 598 658 598 658 584 667 c 4,28,29
 570 677 570 677 546 677 c 6,30,-1
 502 677 l 5,31,-1
 502 551 l 5,32,-1
 462 551 l 5,33,-1
 462 850 l 5,34,-1
 553 850 l 6,35,36
 604 850 604 850 630 828 c 4,37,38
 655 807 655 807 655 764 c 4,39,40
 655 735 655 735 642 717 c 4,41,42
 629 698 629 698 604 691 c 5,19,20
502 816 m 5,43,-1
 502 710 l 5,44,-1
 553 710 l 6,45,46
 582 710 582 710 597 724 c 4,47,48
 612 737 612 737 612 764 c 4,49,50
 612 790 612 790 597 803 c 260,51,52
 582 816 582 816 553 816 c 6,53,-1
 502 816 l 5,43,-1
455 1189 m 5,54,-1
 400 1040 l 5,55,-1
 510 1040 l 5,56,-1
 455 1189 l 5,54,-1
432 1228 m 5,57,-1
 478 1228 l 5,58,-1
 592 930 l 5,59,-1
 550 930 l 5,60,-1
 522 1006 l 5,61,-1
 388 1006 l 5,62,-1
 361 930 l 5,63,-1
 318 930 l 5,64,-1
 432 1228 l 5,57,-1
102 -362 m 5,65,-1
 102 1444 l 5,66,-1
 1126 1444 l 5,67,-1
 1126 -362 l 5,68,-1
 102 -362 l 5,65,-1
217 -248 m 5,69,-1
 1012 -248 l 5,70,-1
 1012 1329 l 5,71,-1
 217 1329 l 5,72,-1
 217 -248 l 5,69,-1
EndSplineSet
Colour: aaaa88
EndChar
StartChar: exclam
Encoding: 33 33 4
Width: 821
Flags: W
Fore
453 1493 m 1,0,-1
 655 1493 l 1,1,-1
 528 838 l 1,2,-1
 438 481 l 1,3,-1
 276 481 l 1,4,-1
 326 838 l 1,5,-1
 453 1493 l 1,0,-1
213 254 m 1,6,-1
 416 254 l 1,7,-1
 367 0 l 1,8,-1
 162 0 l 1,9,-1
 213 254 l 1,6,-1
EndSplineSet
Colour: aaaa88
EndChar
StartChar: quotedbl
Encoding: 34 34 5
Width: 942
Flags: W
Fore
367 1493 m 1,0,-1
 367 938 l 1,1,-1
 197 938 l 1,2,-1
 197 1493 l 1,3,-1
 367 1493 l 1,0,-1
745 1493 m 1,4,-1
 745 938 l 1,5,-1
 575 938 l 1,6,-1
 575 1493 l 1,7,-1
 745 1493 l 1,4,-1
EndSplineSet
Colour: aaaa88
EndChar
StartChar: numbersign
Encoding: 35 35 6
Width: 1716
Flags: W
Fore
897 1470 m 1,0,-1
 793 1055 l 1,1,-1
 1085 1055 l 1,2,-1
 1190 1470 l 1,3,-1
 1350 1470 l 1,4,-1
 1247 1055 l 1,5,-1
 1583 1055 l 1,6,-1
 1544 901 l 1,7,-1
 1208 901 l 1,8,-1
 1126 567 l 1,9,-1
 1466 567 l 1,10,-1
 1430 414 l 1,11,-1
 1087 414 l 1,12,-1
 983 0 l 1,13,-1
 823 0 l 1,14,-1
 926 414 l 1,15,-1
 633 414 l 1,16,-1
 530 0 l 1,17,-1
 369 0 l 1,18,-1
 473 414 l 1,19,-1
 143 414 l 1,20,-1
 180 567 l 1,21,-1
 510 567 l 1,22,-1
 594 901 l 1,23,-1
 258 901 l 1,24,-1
 297 1055 l 1,25,-1
 633 1055 l 1,26,-1
 735 1470 l 1,27,-1
 897 1470 l 1,0,-1
1047 901 m 1,28,-1
 756 901 l 1,29,-1
 672 567 l 1,30,-1
 965 567 l 1,31,-1
 1047 901 l 1,28,-1
EndSplineSet
Colour: aaaa88
EndChar
StartChar: dollar
Encoding: 36 36 7
Width: 1303
Flags: W
Fore
600 145 m 1,0,1
 739 151 739 151 820 215.5 c 128,-1,2
 901 280 901 280 901 383 c 0,3,4
 901 467 901 467 850 513 c 128,-1,5
 799 559 799 559 684 578 c 1,6,-1
 600 145 l 1,0,1
700 1180 m 1,7,8
 568 1166 568 1166 493 1102 c 128,-1,9
 418 1038 418 1038 418 938 c 0,10,11
 418 868 418 868 465.5 828.5 c 128,-1,12
 513 789 513 789 621 770 c 1,13,-1
 700 1180 l 1,7,8
1167 1262 m 1,14,-1
 1133 1081 l 1,15,16
 1047 1127 1047 1127 963.5 1152 c 128,-1,17
 880 1177 880 1177 801 1179 c 1,18,-1
 717 752 l 1,19,20
 901 723 901 723 997.5 637 c 128,-1,21
 1094 551 1094 551 1094 416 c 0,22,23
 1094 241 1094 241 951 126.5 c 128,-1,24
 808 12 808 12 571 0 c 1,25,-1
 512 -301 l 1,26,-1
 412 -301 l 1,27,-1
 471 0 l 1,28,29
 355 3 355 3 253 26.5 c 128,-1,30
 151 50 151 50 68 92 c 1,31,-1
 102 276 l 1,32,33
 194 214 194 214 294 180 c 128,-1,34
 394 146 394 146 500 142 c 1,35,-1
 588 598 l 1,36,37
 399 634 399 634 313 708.5 c 128,-1,38
 227 783 227 783 227 909 c 0,39,40
 227 1075 227 1075 364.5 1190 c 128,-1,41
 502 1305 502 1305 727 1323 c 1,42,-1
 774 1556 l 1,43,-1
 874 1556 l 1,44,-1
 830 1323 l 1,45,46
 920 1320 920 1320 1005.5 1304.5 c 128,-1,47
 1091 1289 1091 1289 1167 1262 c 1,14,-1
EndSplineSet
Colour: aaaa88
EndChar
StartChar: percent
Encoding: 37 37 8
Width: 1946
Flags: W
Fore
481 707 m 0,0,1
 345 707 345 707 265.5 795.5 c 128,-1,2
 186 884 186 884 186 1036 c 0,3,4
 186 1252 186 1252 302 1386 c 128,-1,5
 418 1520 418 1520 604 1520 c 0,6,7
 740 1520 740 1520 819.5 1430.5 c 128,-1,8
 899 1341 899 1341 899 1188 c 0,9,10
 899 974 899 974 783 840.5 c 128,-1,11
 667 707 667 707 481 707 c 0,0,1
739 1182 m 0,12,13
 739 1287 739 1287 700 1340 c 128,-1,14
 661 1393 661 1393 584 1393 c 0,15,16
 472 1393 472 1393 409 1296 c 128,-1,17
 346 1199 346 1199 346 1026 c 0,18,19
 346 934 346 934 386.5 884 c 128,-1,20
 427 834 427 834 502 834 c 0,21,22
 609 834 609 834 674 929 c 128,-1,23
 739 1024 739 1024 739 1182 c 0,12,13
1599 446 m 0,24,25
 1599 553 1599 553 1561 606 c 128,-1,26
 1523 659 1523 659 1446 659 c 0,27,28
 1335 659 1335 659 1271.5 561.5 c 128,-1,29
 1208 464 1208 464 1208 291 c 0,30,31
 1208 198 1208 198 1248.5 148 c 128,-1,32
 1289 98 1289 98 1364 98 c 0,33,34
 1471 98 1471 98 1535 193 c 128,-1,35
 1599 288 1599 288 1599 446 c 0,24,25
1343 -29 m 0,36,37
 1207 -29 1207 -29 1128 60 c 128,-1,38
 1049 149 1049 149 1049 301 c 0,39,40
 1049 517 1049 517 1164.5 650.5 c 128,-1,41
 1280 784 1280 784 1466 784 c 0,42,43
 1602 784 1602 784 1680.5 696 c 128,-1,44
 1759 608 1759 608 1759 455 c 0,45,46
 1759 240 1759 240 1643.5 105.5 c 128,-1,47
 1528 -29 1528 -29 1343 -29 c 0,36,37
1683 1520 m 1,48,-1
 449 -29 l 1,49,-1
 289 -29 l 1,50,-1
 1524 1520 l 1,51,-1
 1683 1520 l 1,48,-1
EndSplineSet
Colour: aaaa88
EndChar
StartChar: ampersand
Encoding: 38 38 9
Width: 1597
Flags: W
Fore
967 260 m 1,0,-1
 541 803 l 1,1,2
 420 715 420 715 357.5 616 c 128,-1,3
 295 517 295 517 295 414 c 0,4,5
 295 287 295 287 380.5 210 c 128,-1,6
 466 133 466 133 608 133 c 0,7,8
 702 133 702 133 793.5 165.5 c 128,-1,9
 885 198 885 198 967 260 c 1,0,-1
1507 801 m 1,10,11
 1462 642 1462 642 1388.5 510 c 128,-1,12
 1315 378 1315 378 1212 270 c 1,13,-1
 1421 0 l 1,14,-1
 1169 0 l 1,15,-1
 1063 139 l 1,16,17
 957 56 957 56 835 13.5 c 128,-1,18
 713 -29 713 -29 580 -29 c 0,19,20
 359 -29 359 -29 227.5 80 c 128,-1,21
 96 189 96 189 96 369 c 0,22,23
 96 523 96 523 188.5 660 c 128,-1,24
 281 797 281 797 463 913 c 1,25,26
 432 959 432 959 417.5 1006.5 c 128,-1,27
 403 1054 403 1054 403 1108 c 0,28,29
 403 1176 403 1176 426 1237 c 128,-1,30
 449 1298 449 1298 492 1348 c 0,31,32
 561 1430 561 1430 665 1475 c 128,-1,33
 769 1520 769 1520 889 1520 c 0,34,35
 967 1520 967 1520 1046 1502 c 128,-1,36
 1125 1484 1125 1484 1206 1448 c 1,37,-1
 1171 1266 l 1,38,39
 1096 1313 1096 1313 1021.5 1337.5 c 128,-1,40
 947 1362 947 1362 877 1362 c 0,41,42
 753 1362 753 1362 675.5 1297.5 c 128,-1,43
 598 1233 598 1233 598 1133 c 0,44,45
 598 1089 598 1089 617 1046 c 128,-1,46
 636 1003 636 1003 705 915 c 2,47,-1
 1112 395 l 1,48,49
 1187 474 1187 474 1240 576.5 c 128,-1,50
 1293 679 1293 679 1321 801 c 1,51,-1
 1507 801 l 1,10,11
EndSplineSet
Colour: aaaa88
EndChar
StartChar: quotesingle
Encoding: 39 39 10
Width: 563
Flags: W
Fore
367 1493 m 1,0,-1
 367 938 l 1,1,-1
 197 938 l 1,2,-1
 197 1493 l 1,3,-1
 367 1493 l 1,0,-1
EndSplineSet
Colour: aaaa88
EndChar
StartChar: parenleft
Encoding: 40 40 11
Width: 799
Flags: W
Fore
874 1554 m 1,0,1
 609 1223 609 1223 478.5 925.5 c 128,-1,2
 348 628 348 628 348 352 c 0,3,4
 348 194 348 194 386 38.5 c 128,-1,5
 424 -117 424 -117 500 -270 c 1,6,-1
 340 -270 l 1,7,8
 248 -98 248 -98 203 64.5 c 128,-1,9
 158 227 158 227 158 383 c 0,10,11
 158 680 158 680 295.5 971.5 c 128,-1,12
 433 1263 433 1263 711 1554 c 1,13,-1
 874 1554 l 1,0,1
EndSplineSet
Colour: aaaa88
EndChar
StartChar: parenright
Encoding: 41 41 12
Width: 799
Flags: W
Fore
-127 -270 m 1,0,1
 139 61 139 61 269 358.5 c 128,-1,2
 399 656 399 656 399 932 c 0,3,4
 399 1090 399 1090 361.5 1245.5 c 128,-1,5
 324 1401 324 1401 248 1554 c 1,6,-1
 408 1554 l 1,7,8
 500 1381 500 1381 545 1220 c 128,-1,9
 590 1059 590 1059 590 903 c 0,10,11
 590 605 590 605 451.5 311.5 c 128,-1,12
 313 18 313 18 37 -270 c 1,13,-1
 -127 -270 l 1,0,1
EndSplineSet
Colour: aaaa88
EndChar
StartChar: asterisk
Encoding: 42 42 13
Width: 1024
Flags: W
Fore
963 1247 m 1,0,-1
 604 1053 l 1,1,-1
 963 858 l 1,2,-1
 905 760 l 1,3,-1
 569 963 l 1,4,-1
 569 586 l 1,5,-1
 455 586 l 1,6,-1
 455 963 l 1,7,-1
 119 760 l 1,8,-1
 61 858 l 1,9,-1
 420 1053 l 1,10,-1
 61 1247 l 1,11,-1
 119 1346 l 1,12,-1
 455 1143 l 1,13,-1
 455 1520 l 1,14,-1
 569 1520 l 1,15,-1
 569 1143 l 1,16,-1
 905 1346 l 1,17,-1
 963 1247 l 1,0,-1
EndSplineSet
Colour: aaaa88
EndChar
StartChar: plus
Encoding: 43 43 14
Width: 1716
Flags: W
Fore
942 1284 m 1,0,-1
 942 727 l 1,1,-1
 1499 727 l 1,2,-1
 1499 557 l 1,3,-1
 942 557 l 1,4,-1
 942 0 l 1,5,-1
 774 0 l 1,6,-1
 774 557 l 1,7,-1
 217 557 l 1,8,-1
 217 727 l 1,9,-1
 774 727 l 1,10,-1
 774 1284 l 1,11,-1
 942 1284 l 1,0,-1
EndSplineSet
Colour: aaaa88
EndChar
StartChar: comma
Encoding: 44 44 15
Width: 651
Flags: W
Fore
184 254 m 1,0,-1
 395 254 l 1,1,-1
 362 82 l 1,2,-1
 135 -238 l 1,3,-1
 6 -238 l 1,4,-1
 150 82 l 1,5,-1
 184 254 l 1,0,-1
EndSplineSet
Colour: aaaa88
EndChar
StartChar: hyphen
Encoding: 45 45 16
Width: 739
Flags: W
Fore
125 643 m 1,0,-1
 664 643 l 1,1,-1
 633 479 l 1,2,-1
 92 479 l 1,3,-1
 125 643 l 1,0,-1
EndSplineSet
Colour: aaaa88
EndChar
StartChar: period
Encoding: 46 46 17
Width: 651
Flags: W
Fore
168 254 m 1,0,-1
 379 254 l 1,1,-1
 330 0 l 1,2,-1
 119 0 l 1,3,-1
 168 254 l 1,0,-1
EndSplineSet
Colour: aaaa88
EndChar
StartChar: slash
Encoding: 47 47 18
Width: 690
Flags: W
Fore
696 1493 m 1,0,-1
 874 1493 l 1,1,-1
 27 -190 l 1,2,-1
 -150 -190 l 1,3,-1
 696 1493 l 1,0,-1
EndSplineSet
Colour: aaaa88
EndChar
StartChar: zero
Encoding: 48 48 19
Width: 1303
Flags: W
Fore
782 1520 m 0,0,1
 985 1520 985 1520 1092.5 1385 c 128,-1,2
 1200 1250 1200 1250 1200 997 c 0,3,4
 1200 805 1200 805 1149.5 615.5 c 128,-1,5
 1099 426 1099 426 1008 276 c 0,6,7
 915 126 915 126 789.5 48.5 c 128,-1,8
 664 -29 664 -29 512 -29 c 0,9,10
 316 -29 316 -29 209 107 c 128,-1,11
 102 243 102 243 102 494 c 0,12,13
 102 684 102 684 153.5 874.5 c 128,-1,14
 205 1065 205 1065 297 1214 c 0,15,16
 389 1364 389 1364 512.5 1442 c 128,-1,17
 636 1520 636 1520 782 1520 c 0,0,1
770 1360 m 0,18,19
 694 1360 694 1360 625.5 1319.5 c 128,-1,20
 557 1279 557 1279 502 1200 c 0,21,22
 410 1068 410 1068 355.5 870.5 c 128,-1,23
 301 673 301 673 301 465 c 0,24,25
 301 300 301 300 359.5 215.5 c 128,-1,26
 418 131 418 131 532 131 c 0,27,28
 612 131 612 131 680 171.5 c 128,-1,29
 748 212 748 212 803 291 c 0,30,31
 894 422 894 422 947.5 619.5 c 128,-1,32
 1001 817 1001 817 1001 1026 c 0,33,34
 1001 1191 1001 1191 942.5 1275.5 c 128,-1,35
 884 1360 884 1360 770 1360 c 0,18,19
EndSplineSet
Colour: aaaa88
EndChar
StartChar: one
Encoding: 49 49 20
Width: 1303
Flags: W
Fore
133 170 m 1,0,-1
 463 170 l 1,1,-1
 686 1319 l 1,2,-1
 313 1247 l 1,3,-1
 348 1421 l 1,4,-1
 719 1493 l 1,5,-1
 922 1493 l 1,6,-1
 664 170 l 1,7,-1
 993 170 l 1,8,-1
 961 0 l 1,9,-1
 100 0 l 1,10,-1
 133 170 l 1,0,-1
EndSplineSet
Colour: aaaa88
EndChar
StartChar: two
Encoding: 50 50 21
Width: 1303
Flags: W
Fore
944 721 m 2,0,-1
 299 168 l 1,1,-1
 1012 168 l 1,2,-1
 977 0 l 1,3,-1
 8 0 l 1,4,-1
 41 170 l 1,5,-1
 715 748 l 2,6,7
 850 865 850 865 906.5 953.5 c 128,-1,8
 963 1042 963 1042 963 1135 c 0,9,10
 963 1232 963 1232 895 1293 c 128,-1,11
 827 1354 827 1354 717 1354 c 0,12,13
 622 1354 622 1354 506 1320 c 128,-1,14
 390 1286 390 1286 258 1221 c 1,15,-1
 295 1421 l 1,16,17
 419 1470 419 1470 532 1495 c 128,-1,18
 645 1520 645 1520 741 1520 c 0,19,20
 937 1520 937 1520 1056.5 1416 c 128,-1,21
 1176 1312 1176 1312 1176 1143 c 0,22,23
 1176 1029 1176 1029 1119 925.5 c 128,-1,24
 1062 822 1062 822 944 721 c 2,0,-1
EndSplineSet
Colour: aaaa88
EndChar
StartChar: three
Encoding: 51 51 22
Width: 1303
Flags: W
Fore
324 1456 m 1,0,1
 434 1488 434 1488 537.5 1504 c 128,-1,2
 641 1520 641 1520 741 1520 c 0,3,4
 939 1520 939 1520 1055 1432 c 128,-1,5
 1171 1344 1171 1344 1171 1196 c 0,6,7
 1171 1051 1171 1051 1079.5 947 c 128,-1,8
 988 843 988 843 827 805 c 1,9,10
 953 769 953 769 1012 693 c 128,-1,11
 1071 617 1071 617 1071 492 c 0,12,13
 1071 372 1071 372 1013.5 267 c 128,-1,14
 956 162 956 162 848 86 c 0,15,16
 766 28 766 28 652 -0.5 c 128,-1,17
 538 -29 538 -29 389 -29 c 0,18,19
 295 -29 295 -29 199 -10.5 c 128,-1,20
 103 8 103 8 4 45 c 1,21,-1
 41 236 l 1,22,23
 135 184 135 184 230.5 158.5 c 128,-1,24
 326 133 326 133 426 133 c 0,25,26
 623 133 623 133 745.5 234.5 c 128,-1,27
 868 336 868 336 868 498 c 0,28,29
 868 602 868 602 790 658.5 c 128,-1,30
 712 715 712 715 567 715 c 2,31,-1
 393 715 l 1,32,-1
 424 879 l 1,33,-1
 608 879 l 2,34,35
 774 879 774 879 869.5 955 c 128,-1,36
 965 1031 965 1031 965 1161 c 0,37,38
 965 1255 965 1255 895 1306.5 c 128,-1,39
 825 1358 825 1358 698 1358 c 0,40,41
 602 1358 602 1358 501.5 1337.5 c 128,-1,42
 401 1317 401 1317 293 1276 c 1,43,-1
 324 1456 l 1,0,1
EndSplineSet
Colour: aaaa88
EndChar
StartChar: four
Encoding: 52 52 23
Width: 1303
Flags: W
Fore
881 1493 m 1,0,-1
 1135 1493 l 1,1,-1
 944 520 l 1,2,-1
 1157 520 l 1,3,-1
 1124 352 l 1,4,-1
 911 352 l 1,5,-1
 844 0 l 1,6,-1
 643 0 l 1,7,-1
 711 352 l 1,8,-1
 37 352 l 1,9,-1
 76 547 l 1,10,-1
 881 1493 l 1,0,-1
899 1317 m 1,11,-1
 233 520 l 1,12,-1
 743 520 l 1,13,-1
 899 1317 l 1,11,-1
EndSplineSet
Colour: aaaa88
EndChar
StartChar: five
Encoding: 53 53 24
Width: 1303
Flags: W
Fore
1190 1493 m 1,0,-1
 1159 1325 l 1,1,-1
 541 1325 l 1,2,-1
 469 956 l 1,3,4
 515 971 515 971 562.5 978 c 128,-1,5
 610 985 610 985 659 985 c 0,6,7
 866 985 866 985 986 874 c 128,-1,8
 1106 763 1106 763 1106 573 c 0,9,10
 1106 440 1106 440 1044.5 318 c 128,-1,11
 983 196 983 196 870 104 c 0,12,13
 790 40 790 40 674.5 5.5 c 128,-1,14
 559 -29 559 -29 422 -29 c 0,15,16
 332 -29 332 -29 238 -13 c 128,-1,17
 144 3 144 3 41 35 c 1,18,-1
 78 223 l 1,19,20
 170 178 170 178 262.5 155.5 c 128,-1,21
 355 133 355 133 449 133 c 0,22,23
 644 133 644 133 771.5 250 c 128,-1,24
 899 367 899 367 899 543 c 0,25,26
 899 673 899 673 815.5 745 c 128,-1,27
 732 817 732 817 582 817 c 0,28,29
 503 817 503 817 417.5 798.5 c 128,-1,30
 332 780 332 780 242 743 c 1,31,-1
 387 1493 l 1,32,-1
 1190 1493 l 1,0,-1
EndSplineSet
Colour: aaaa88
EndChar
StartChar: six
Encoding: 54 54 25
Width: 1303
Flags: W
Fore
940 553 m 0,0,1
 940 680 940 680 875 753.5 c 128,-1,2
 810 827 810 827 698 827 c 0,3,4
 543 827 543 827 437.5 707.5 c 128,-1,5
 332 588 332 588 332 412 c 0,6,7
 332 280 332 280 396.5 205.5 c 128,-1,8
 461 131 461 131 575 131 c 0,9,10
 731 131 731 131 835.5 253.5 c 128,-1,11
 940 376 940 376 940 553 c 0,0,1
1212 1458 m 1,12,-1
 1178 1274 l 1,13,14
 1120 1312 1120 1312 1045 1332 c 128,-1,15
 970 1352 970 1352 885 1352 c 0,16,17
 678 1352 678 1352 552.5 1222 c 128,-1,18
 427 1092 427 1092 365 815 c 1,19,20
 438 900 438 900 534.5 943.5 c 128,-1,21
 631 987 631 987 743 987 c 0,22,23
 926 987 926 987 1034.5 881.5 c 128,-1,24
 1143 776 1143 776 1143 598 c 0,25,26
 1143 452 1143 452 1089.5 326.5 c 128,-1,27
 1036 201 1036 201 934 106 c 0,28,29
 864 41 864 41 771 6 c 128,-1,30
 678 -29 678 -29 573 -29 c 0,31,32
 367 -29 367 -29 248 102 c 128,-1,33
 129 233 129 233 129 461 c 0,34,35
 129 673 129 673 183.5 869.5 c 128,-1,36
 238 1066 238 1066 336 1210 c 0,37,38
 439 1362 439 1362 585.5 1441 c 128,-1,39
 732 1520 732 1520 909 1520 c 0,40,41
 987 1520 987 1520 1063 1504.5 c 128,-1,42
 1139 1489 1139 1489 1212 1458 c 1,12,-1
EndSplineSet
Colour: aaaa88
EndChar
StartChar: seven
Encoding: 55 55 26
Width: 1303
Flags: W
Fore
262 1493 m 1,0,-1
 1284 1493 l 1,1,-1
 1266 1407 l 1,2,-1
 412 0 l 1,3,-1
 190 0 l 1,4,-1
 997 1323 l 1,5,-1
 229 1323 l 1,6,-1
 262 1493 l 1,0,-1
EndSplineSet
Colour: aaaa88
EndChar
StartChar: eight
Encoding: 56 56 27
Width: 1303
Flags: W
Fore
911 453 m 0,0,1
 911 566 911 566 832 637.5 c 128,-1,2
 753 709 753 709 625 709 c 0,3,4
 469 709 469 709 367.5 615.5 c 128,-1,5
 266 522 266 522 266 379 c 0,6,7
 266 265 266 265 343.5 198 c 128,-1,8
 421 131 421 131 553 131 c 0,9,10
 710 131 710 131 810.5 222 c 128,-1,11
 911 313 911 313 911 453 c 0,0,1
1014 1149 m 0,12,13
 1014 1244 1014 1244 944 1302 c 128,-1,14
 874 1360 874 1360 758 1360 c 0,15,16
 621 1360 621 1360 532.5 1283 c 128,-1,17
 444 1206 444 1206 444 1090 c 0,18,19
 444 990 444 990 513.5 929 c 128,-1,20
 583 868 583 868 698 868 c 0,21,22
 836 868 836 868 925 947.5 c 128,-1,23
 1014 1027 1014 1027 1014 1149 c 0,12,13
877 786 m 1,24,25
 990 743 990 743 1050 656 c 128,-1,26
 1110 569 1110 569 1110 446 c 0,27,28
 1110 239 1110 239 950 105 c 128,-1,29
 790 -29 790 -29 537 -29 c 0,30,31
 322 -29 322 -29 195 76.5 c 128,-1,32
 68 182 68 182 68 358 c 0,33,34
 68 518 68 518 177 642.5 c 128,-1,35
 286 767 286 767 461 801 c 1,36,37
 356 837 356 837 301 912.5 c 128,-1,38
 246 988 246 988 246 1096 c 0,39,40
 246 1277 246 1277 396.5 1398.5 c 128,-1,41
 547 1520 547 1520 778 1520 c 0,42,43
 971 1520 971 1520 1092.5 1421.5 c 128,-1,44
 1214 1323 1214 1323 1214 1171 c 0,45,46
 1214 1039 1214 1039 1123.5 935.5 c 128,-1,47
 1033 832 1033 832 877 786 c 1,24,25
EndSplineSet
Colour: aaaa88
EndChar
StartChar: nine
Encoding: 57 57 28
Width: 1303
Flags: W
Fore
90 33 m 1,0,-1
 127 217 l 1,1,2
 185 179 185 179 259 159 c 128,-1,3
 333 139 333 139 418 139 c 0,4,5
 625 139 625 139 751.5 270 c 128,-1,6
 878 401 878 401 940 678 c 1,7,8
 866 593 866 593 768.5 548.5 c 128,-1,9
 671 504 671 504 559 504 c 0,10,11
 377 504 377 504 269.5 609.5 c 128,-1,12
 162 715 162 715 162 893 c 0,13,14
 162 1039 162 1039 215 1164.5 c 128,-1,15
 268 1290 268 1290 371 1384 c 0,16,17
 441 1450 441 1450 533 1485 c 128,-1,18
 625 1520 625 1520 729 1520 c 0,19,20
 936 1520 936 1520 1056 1388.5 c 128,-1,21
 1176 1257 1176 1257 1176 1030 c 0,22,23
 1176 819 1176 819 1120.5 622 c 128,-1,24
 1065 425 1065 425 967 281 c 0,25,26
 863 129 863 129 717 50 c 128,-1,27
 571 -29 571 -29 393 -29 c 0,28,29
 316 -29 316 -29 239.5 -13.5 c 128,-1,30
 163 2 163 2 90 33 c 1,0,-1
362 940 m 0,31,32
 362 813 362 813 428 738.5 c 128,-1,33
 494 664 494 664 606 664 c 0,34,35
 761 664 761 664 866 783 c 128,-1,36
 971 902 971 902 971 1079 c 0,37,38
 971 1211 971 1211 906 1285.5 c 128,-1,39
 841 1360 841 1360 727 1360 c 0,40,41
 572 1360 572 1360 467 1238.5 c 128,-1,42
 362 1117 362 1117 362 940 c 0,31,32
EndSplineSet
Colour: aaaa88
EndChar
StartChar: colon
Encoding: 58 58 29
Width: 690
Flags: W
Fore
313 1059 m 1,0,-1
 524 1059 l 1,1,-1
 475 805 l 1,2,-1
 264 805 l 1,3,-1
 313 1059 l 1,0,-1
156 254 m 1,4,-1
 367 254 l 1,5,-1
 317 0 l 1,6,-1
 106 0 l 1,7,-1
 156 254 l 1,4,-1
EndSplineSet
Colour: aaaa88
EndChar
StartChar: semicolon
Encoding: 59 59 30
Width: 690
Flags: W
Fore
180 254 m 1,0,-1
 391 254 l 1,1,-1
 356 82 l 1,2,-1
 131 -238 l 1,3,-1
 2 -238 l 1,4,-1
 145 82 l 1,5,-1
 180 254 l 1,0,-1
336 1059 m 1,6,-1
 547 1059 l 1,7,-1
 498 805 l 1,8,-1
 287 805 l 1,9,-1
 336 1059 l 1,6,-1
EndSplineSet
Colour: aaaa88
EndChar
StartChar: less
Encoding: 60 60 31
Width: 1716
Flags: W
Fore
1499 1008 m 1,0,-1
 467 641 l 1,1,-1
 1499 276 l 1,2,-1
 1499 94 l 1,3,-1
 217 559 l 1,4,-1
 217 725 l 1,5,-1
 1499 1190 l 1,6,-1
 1499 1008 l 1,0,-1
EndSplineSet
Colour: aaaa88
EndChar
StartChar: equal
Encoding: 61 61 32
Width: 1716
Flags: W
Fore
217 930 m 1,0,-1
 1499 930 l 1,1,-1
 1499 762 l 1,2,-1
 217 762 l 1,3,-1
 217 930 l 1,0,-1
217 522 m 1,4,-1
 1499 522 l 1,5,-1
 1499 352 l 1,6,-1
 217 352 l 1,7,-1
 217 522 l 1,4,-1
EndSplineSet
Colour: aaaa88
EndChar
StartChar: greater
Encoding: 62 62 33
Width: 1716
Flags: W
Fore
217 1008 m 1,0,-1
 217 1190 l 1,1,-1
 1499 725 l 1,2,-1
 1499 559 l 1,3,-1
 217 94 l 1,4,-1
 217 276 l 1,5,-1
 1247 641 l 1,6,-1
 217 1008 l 1,0,-1
EndSplineSet
Colour: aaaa88
EndChar
StartChar: question
Encoding: 63 63 34
Width: 1087
Flags: W
Fore
510 254 m 1,0,-1
 461 0 l 1,1,-1
 258 0 l 1,2,-1
 307 254 l 1,3,-1
 510 254 l 1,0,-1
289 1407 m 1,4,5
 391 1464 391 1464 492.5 1492 c 128,-1,6
 594 1520 594 1520 700 1520 c 0,7,8
 861 1520 861 1520 954 1445 c 128,-1,9
 1047 1370 1047 1370 1047 1241 c 0,10,11
 1047 1138 1047 1138 993.5 1048 c 128,-1,12
 940 958 940 958 819 860 c 2,13,-1
 715 776 l 2,14,15
 631 710 631 710 603 663 c 128,-1,16
 575 616 575 616 557 524 c 2,17,-1
 532 401 l 1,18,-1
 342 401 l 1,19,-1
 373 555 l 2,20,21
 391 649 391 649 430 714.5 c 128,-1,22
 469 780 469 780 580 872 c 2,23,-1
 686 961 l 2,24,25
 770 1031 770 1031 804 1084 c 128,-1,26
 838 1137 838 1137 838 1194 c 0,27,28
 838 1270 838 1270 783.5 1313 c 128,-1,29
 729 1356 729 1356 633 1356 c 0,30,31
 553 1356 553 1356 454.5 1320.5 c 128,-1,32
 356 1285 356 1285 252 1219 c 1,33,-1
 289 1407 l 1,4,5
EndSplineSet
Colour: aaaa88
EndChar
StartChar: at
Encoding: 64 64 35
Width: 2048
Flags: W
Fore
1253 238 m 1,0,1
 1184 164 1184 164 1103.5 126 c 128,-1,2
 1023 88 1023 88 936 88 c 0,3,4
 789 88 789 88 692.5 187 c 128,-1,5
 596 286 596 286 596 438 c 0,6,7
 596 658 596 658 744.5 822.5 c 128,-1,8
 893 987 893 987 1092 987 c 0,9,10
 1184 987 1184 987 1256.5 947 c 128,-1,11
 1329 907 1329 907 1368 836 c 1,12,-1
 1395 967 l 1,13,-1
 1538 967 l 1,14,-1
 1395 229 l 1,15,16
 1572 257 1572 257 1686 409 c 128,-1,17
 1800 561 1800 561 1800 770 c 0,18,19
 1800 1003 1800 1003 1635 1150.5 c 128,-1,20
 1470 1298 1470 1298 1208 1298 c 0,21,22
 1030 1298 1030 1298 864 1235.5 c 128,-1,23
 698 1173 698 1173 571 1059 c 0,24,25
 426 925 426 925 345 749 c 128,-1,26
 264 573 264 573 264 389 c 0,27,28
 264 128 264 128 438.5 -42.5 c 128,-1,29
 613 -213 613 -213 883 -213 c 0,30,31
 1012 -213 1012 -213 1137 -169.5 c 128,-1,32
 1262 -126 1262 -126 1399 -33 c 1,33,-1
 1481 -147 l 1,34,35
 1346 -249 1346 -249 1189.5 -301.5 c 128,-1,36
 1033 -354 1033 -354 868 -354 c 0,37,38
 546 -354 546 -354 332.5 -140 c 128,-1,39
 119 74 119 74 119 401 c 0,40,41
 119 626 119 626 223.5 836.5 c 128,-1,42
 328 1047 328 1047 516 1200 c 0,43,44
 655 1314 655 1314 835 1377 c 128,-1,45
 1015 1440 1015 1440 1204 1440 c 0,46,47
 1525 1440 1525 1440 1735.5 1251 c 128,-1,48
 1946 1062 1946 1062 1946 778 c 0,49,50
 1946 483 1946 483 1742.5 286.5 c 128,-1,51
 1539 90 1539 90 1223 84 c 1,52,-1
 1253 238 l 1,0,1
1094 846 m 0,53,54
 953 846 953 846 854.5 734.5 c 128,-1,55
 756 623 756 623 756 467 c 0,56,57
 756 355 756 355 813 292 c 128,-1,58
 870 229 870 229 971 229 c 0,59,60
 1113 229 1113 229 1209 343 c 128,-1,61
 1305 457 1305 457 1305 623 c 0,62,63
 1305 725 1305 725 1247.5 785.5 c 128,-1,64
 1190 846 1190 846 1094 846 c 0,53,54
EndSplineSet
Colour: aaaa88
EndChar
StartChar: A
Encoding: 65 65 36
Width: 1401
Flags: W
AnchorPoint: "Ogonek" 1137 0 basechar 0
AnchorPoint: "Bottom" 554 0 basechar 0
AnchorPoint: "TopCap" 844 1493 basechar 0
Fore
754 1493 m 1,0,-1
 983 1493 l 1,1,-1
 1260 0 l 1,2,-1
 1049 0 l 1,3,-1
 987 383 l 1,4,-1
 315 383 l 1,5,-1
 104 0 l 1,6,-1
 -109 0 l 1,7,-1
 754 1493 l 1,0,-1
827 1294 m 1,8,-1
 408 551 l 1,9,-1
 956 551 l 1,10,-1
 827 1294 l 1,8,-1
EndSplineSet
Colour: aaaa88
EndChar
StartChar: B
Encoding: 66 66 37
Width: 1405
Flags: W
AnchorPoint: "TopCap" 844 1493 basechar 0
AnchorPoint: "Bottom" 554 0 basechar 0
Fore
346 1493 m 1,0,-1
 862 1493 l 2,1,2
 1072 1493 1072 1493 1176 1415 c 128,-1,3
 1280 1337 1280 1337 1280 1180 c 0,4,5
 1280 1036 1280 1036 1190.5 931.5 c 128,-1,6
 1101 827 1101 827 956 805 c 1,7,8
 1080 777 1080 777 1142 698 c 128,-1,9
 1204 619 1204 619 1204 487 c 0,10,11
 1204 262 1204 262 1037.5 131 c 128,-1,12
 871 0 871 0 582 0 c 2,13,-1
 55 0 l 1,14,-1
 346 1493 l 1,0,-1
395 713 m 1,15,-1
 289 166 l 1,16,-1
 614 166 l 2,17,18
 797 166 797 166 896 250 c 128,-1,19
 995 334 995 334 995 487 c 0,20,21
 995 605 995 605 929.5 659 c 128,-1,22
 864 713 864 713 719 713 c 2,23,-1
 395 713 l 1,15,-1
514 1327 m 1,24,-1
 426 877 l 1,25,-1
 727 877 l 2,26,27
 888 877 888 877 978.5 947 c 128,-1,28
 1069 1017 1069 1017 1069 1141 c 0,29,30
 1069 1238 1069 1238 1008 1282.5 c 128,-1,31
 947 1327 947 1327 813 1327 c 2,32,-1
 514 1327 l 1,24,-1
EndSplineSet
Colour: aaaa88
EndChar
StartChar: C
Encoding: 67 67 38
Width: 1430
Flags: W
AnchorPoint: "TopCap" 989 1493 basechar 0
AnchorPoint: "Bottom" 699 0 basechar 0
Fore
1423 1378 m 1,0,-1
 1382 1165 l 1,1,2
 1286 1262 1286 1262 1178.5 1309 c 128,-1,3
 1071 1356 1071 1356 946 1356 c 0,4,5
 775 1356 775 1356 645.5 1274 c 128,-1,6
 516 1192 516 1192 422 1024 c 0,7,8
 362 916 362 916 330.5 795.5 c 128,-1,9
 299 675 299 675 299 553 c 0,10,11
 299 349 299 349 404.5 242 c 128,-1,12
 510 135 510 135 711 135 c 0,13,14
 850 135 850 135 978 179.5 c 128,-1,15
 1106 224 1106 224 1227 313 c 1,16,-1
 1180 74 l 1,17,18
 1061 23 1061 23 939.5 -3 c 128,-1,19
 818 -29 818 -29 696 -29 c 0,20,21
 409 -29 409 -29 247.5 127 c 128,-1,22
 86 283 86 283 86 561 c 0,23,24
 86 739 86 739 147.5 911 c 128,-1,25
 209 1083 209 1083 324 1225 c 0,26,27
 446 1376 446 1376 602.5 1448 c 128,-1,28
 759 1520 759 1520 967 1520 c 0,29,30
 1095 1520 1095 1520 1209.5 1484.5 c 128,-1,31
 1324 1449 1324 1449 1423 1378 c 1,0,-1
EndSplineSet
Colour: aaaa88
EndChar
StartChar: D
Encoding: 68 68 39
Width: 1577
Flags: W
AnchorPoint: "TopCap" 932 1493 basechar 0
AnchorPoint: "Bottom" 642 0 basechar 0
Fore
346 1493 m 1,0,-1
 780 1493 l 2,1,2
 1126 1493 1126 1493 1302.5 1346.5 c 128,-1,3
 1479 1200 1479 1200 1479 911 c 0,4,5
 1479 720 1479 720 1412 543.5 c 128,-1,6
 1345 367 1345 367 1227 246 c 0,7,8
 1108 122 1108 122 925 61 c 128,-1,9
 742 0 742 0 492 0 c 2,10,-1
 55 0 l 1,11,-1
 346 1493 l 1,0,-1
516 1327 m 1,12,-1
 291 166 l 1,13,-1
 555 166 l 2,14,15
 894 166 894 166 1080 361 c 128,-1,16
 1266 556 1266 556 1266 911 c 0,17,18
 1266 1126 1266 1126 1146 1226.5 c 128,-1,19
 1026 1327 1026 1327 770 1327 c 2,20,-1
 516 1327 l 1,12,-1
EndSplineSet
Colour: aaaa88
EndChar
StartChar: E
Encoding: 69 69 40
Width: 1294
Flags: W
AnchorPoint: "Cedilla" 524 0 basechar 0
AnchorPoint: "Ogonek" 850 0 basechar 0
AnchorPoint: "TopCap" 814 1493 basechar 0
AnchorPoint: "Bottom" 524 0 basechar 0
Fore
346 1493 m 1,0,-1
 1290 1493 l 1,1,-1
 1257 1323 l 1,2,-1
 514 1323 l 1,3,-1
 428 881 l 1,4,-1
 1141 881 l 1,5,-1
 1108 711 l 1,6,-1
 395 711 l 1,7,-1
 291 170 l 1,8,-1
 1051 170 l 1,9,-1
 1018 0 l 1,10,-1
 55 0 l 1,11,-1
 346 1493 l 1,0,-1
EndSplineSet
Colour: aaaa88
EndChar
StartChar: F
Encoding: 70 70 41
Width: 1178
Flags: W
AnchorPoint: "TopCap" 766 1493 basechar 0
AnchorPoint: "Bottom" 476 0 basechar 0
Fore
346 1493 m 1,0,-1
 1202 1493 l 1,1,-1
 1169 1323 l 1,2,-1
 514 1323 l 1,3,-1
 428 883 l 1,4,-1
 1020 883 l 1,5,-1
 987 713 l 1,6,-1
 395 713 l 1,7,-1
 256 0 l 1,8,-1
 55 0 l 1,9,-1
 346 1493 l 1,0,-1
EndSplineSet
Colour: aaaa88
EndChar
StartChar: G
Encoding: 71 71 42
Width: 1587
Flags: W
AnchorPoint: "TopCap" 1004 1493 basechar 0
AnchorPoint: "Bottom" 714 0 basechar 0
Fore
1118 223 m 1,0,-1
 1196 614 l 1,1,-1
 864 614 l 1,2,-1
 895 780 l 1,3,-1
 1425 780 l 1,4,-1
 1296 123 l 1,5,6
 1163 50 1163 50 1006 10.5 c 128,-1,7
 849 -29 849 -29 690 -29 c 0,8,9
 409 -29 409 -29 250.5 127 c 128,-1,10
 92 283 92 283 92 561 c 0,11,12
 92 792 92 792 188.5 1000.5 c 128,-1,13
 285 1209 285 1209 455 1348 c 0,14,15
 562 1435 562 1435 689 1477.5 c 128,-1,16
 816 1520 816 1520 971 1520 c 0,17,18
 1111 1520 1111 1520 1239.5 1484.5 c 128,-1,19
 1368 1449 1368 1449 1485 1378 c 1,20,-1
 1444 1163 l 1,21,22
 1354 1257 1354 1257 1233 1306.5 c 128,-1,23
 1112 1356 1112 1356 975 1356 c 0,24,25
 816 1356 816 1356 695 1295.5 c 128,-1,26
 574 1235 574 1235 479 1108 c 0,27,28
 398 1000 398 1000 351.5 853.5 c 128,-1,29
 305 707 305 707 305 555 c 0,30,31
 305 346 305 346 412 240.5 c 128,-1,32
 519 135 519 135 731 135 c 0,33,34
 837 135 837 135 936 157.5 c 128,-1,35
 1035 180 1035 180 1118 223 c 1,0,-1
EndSplineSet
Colour: aaaa88
EndChar
StartChar: H
Encoding: 72 72 43
Width: 1540
Flags: W
AnchorPoint: "Cedilla" 190 0 basechar 0
AnchorPoint: "TopCap" 914 1493 basechar 0
AnchorPoint: "Bottom" 624 0 basechar 0
Fore
346 1493 m 1,0,-1
 549 1493 l 1,1,-1
 430 881 l 1,2,-1
 1163 881 l 1,3,-1
 1282 1493 l 1,4,-1
 1485 1493 l 1,5,-1
 1194 0 l 1,6,-1
 991 0 l 1,7,-1
 1130 711 l 1,8,-1
 397 711 l 1,9,-1
 258 0 l 1,10,-1
 55 0 l 1,11,-1
 346 1493 l 1,0,-1
EndSplineSet
Colour: aaaa88
EndChar
StartChar: I
Encoding: 73 73 44
Width: 604
Flags: W
AnchorPoint: "Ogonek" 156 0 basechar 0
AnchorPoint: "TopCap" 446 1493 basechar 0
AnchorPoint: "Bottom" 156 0 basechar 0
Fore
346 1493 m 1,0,-1
 549 1493 l 1,1,-1
 258 0 l 1,2,-1
 55 0 l 1,3,-1
 346 1493 l 1,0,-1
EndSplineSet
Colour: aaaa88
EndChar
StartChar: J
Encoding: 74 74 45
Width: 604
Flags: W
AnchorPoint: "TopCap" 446 1493 basechar 0
AnchorPoint: "Bottom" 109 -426 basechar 0
Fore
342 1493 m 1,0,-1
 545 1493 l 1,1,-1
 274 104 l 2,2,3
 221 -167 221 -167 95.5 -288.5 c 128,-1,4
 -30 -410 -30 -410 -256 -410 c 2,5,-1
 -336 -410 l 1,6,-1
 -303 -240 l 1,7,-1
 -240 -240 l 2,8,9
 -105 -240 -105 -240 -35 -163 c 128,-1,10
 35 -86 35 -86 72 104 c 2,11,-1
 342 1493 l 1,0,-1
EndSplineSet
Colour: aaaa88
EndChar
StartChar: K
Encoding: 75 75 46
Width: 1343
Flags: W
AnchorPoint: "TopCap" 864 1493 basechar 0
AnchorPoint: "Bottom" 574 0 basechar 0
Fore
346 1493 m 1,0,-1
 549 1493 l 1,1,-1
 426 864 l 1,2,-1
 1210 1493 l 1,3,-1
 1479 1493 l 1,4,-1
 592 780 l 1,5,-1
 1241 0 l 1,6,-1
 995 0 l 1,7,-1
 399 727 l 1,8,-1
 258 0 l 1,9,-1
 55 0 l 1,10,-1
 346 1493 l 1,0,-1
EndSplineSet
Colour: aaaa88
EndChar
StartChar: L
Encoding: 76 76 47
Width: 1141
Flags: W
AnchorPoint: "TopCap" 774 1493 basechar 0
AnchorPoint: "Bottom" 484 0 basechar 0
Fore
344 1493 m 1,0,-1
 547 1493 l 1,1,-1
 291 168 l 1,2,-1
 1018 168 l 1,3,-1
 985 0 l 1,4,-1
 55 0 l 1,5,-1
 344 1493 l 1,0,-1
EndSplineSet
Colour: aaaa88
EndChar
StartChar: M
Encoding: 77 77 48
Width: 1767
Flags: W
AnchorPoint: "TopCap" 1027 1493 basechar 0
AnchorPoint: "Bottom" 737 0 basechar 0
Fore
346 1493 m 1,0,-1
 649 1493 l 1,1,-1
 823 487 l 1,2,-1
 1401 1493 l 1,3,-1
 1712 1493 l 1,4,-1
 1421 0 l 1,5,-1
 1225 0 l 1,6,-1
 1479 1309 l 1,7,-1
 893 287 l 1,8,-1
 696 287 l 1,9,-1
 506 1313 l 1,10,-1
 252 0 l 1,11,-1
 55 0 l 1,12,-1
 346 1493 l 1,0,-1
EndSplineSet
Colour: aaaa88
EndChar
StartChar: N
Encoding: 78 78 49
Width: 1532
Flags: W
AnchorPoint: "TopCap" 910 1493 basechar 0
AnchorPoint: "Bottom" 620 0 basechar 0
Fore
346 1493 m 1,0,-1
 618 1493 l 1,1,-1
 1030 213 l 1,2,-1
 1280 1493 l 1,3,-1
 1477 1493 l 1,4,-1
 1186 0 l 1,5,-1
 913 0 l 1,6,-1
 502 1288 l 1,7,-1
 252 0 l 1,8,-1
 55 0 l 1,9,-1
 346 1493 l 1,0,-1
EndSplineSet
Colour: aaaa88
EndChar
StartChar: O
Encoding: 79 79 50
Width: 1612
Flags: W
AnchorPoint: "Horn" 1339 1228 basechar 0
AnchorPoint: "Bottom" 660 0 basechar 0
AnchorPoint: "TopCap" 950 1493 basechar 0
Fore
934 1356 m 0,0,1
 768 1356 768 1356 641 1275.5 c 128,-1,2
 514 1195 514 1195 420 1030 c 0,3,4
 360 925 360 925 328.5 807 c 128,-1,5
 297 689 297 689 297 569 c 0,6,7
 297 361 297 361 396.5 248 c 128,-1,8
 496 135 496 135 678 135 c 0,9,10
 842 135 842 135 970.5 216.5 c 128,-1,11
 1099 298 1099 298 1190 459 c 0,12,13
 1251 567 1251 567 1283 685.5 c 128,-1,14
 1315 804 1315 804 1315 922 c 0,15,16
 1315 1129 1315 1129 1215 1242.5 c 128,-1,17
 1115 1356 1115 1356 934 1356 c 0,0,1
672 -29 m 0,18,19
 397 -29 397 -29 239.5 134 c 128,-1,20
 82 297 82 297 82 580 c 0,21,22
 82 742 82 742 143.5 911 c 128,-1,23
 205 1080 205 1080 313 1212 c 0,24,25
 440 1367 440 1367 596 1443.5 c 128,-1,26
 752 1520 752 1520 940 1520 c 0,27,28
 1214 1520 1214 1520 1372 1358.5 c 128,-1,29
 1530 1197 1530 1197 1530 918 c 0,30,31
 1530 746 1530 746 1470 580 c 128,-1,32
 1410 414 1410 414 1298 279 c 0,33,34
 1170 123 1170 123 1015.5 47 c 128,-1,35
 861 -29 861 -29 672 -29 c 0,18,19
EndSplineSet
Colour: aaaa88
EndChar
StartChar: P
Encoding: 80 80 51
Width: 1235
Flags: W
AnchorPoint: "TopCap" 784 1493 basechar 0
AnchorPoint: "Bottom" 494 0 basechar 0
Fore
346 1493 m 1,0,-1
 813 1493 l 2,1,2
 1017 1493 1017 1493 1124 1398 c 128,-1,3
 1231 1303 1231 1303 1231 1120 c 0,4,5
 1231 874 1231 874 1073 737 c 128,-1,6
 915 600 915 600 629 600 c 2,7,-1
 375 600 l 1,8,-1
 258 0 l 1,9,-1
 55 0 l 1,10,-1
 346 1493 l 1,0,-1
516 1327 m 1,11,-1
 408 766 l 1,12,-1
 662 766 l 2,13,14
 834 766 834 766 926 854 c 128,-1,15
 1018 942 1018 942 1018 1106 c 0,16,17
 1018 1211 1018 1211 955.5 1269 c 128,-1,18
 893 1327 893 1327 780 1327 c 2,19,-1
 516 1327 l 1,11,-1
EndSplineSet
Colour: aaaa88
EndChar
StartChar: Q
Encoding: 81 81 52
Width: 1612
Flags: W
AnchorPoint: "TopCap" 950 1493 basechar 0
AnchorPoint: "Bottom" 660 0 basechar 0
Fore
739 -27 m 1,0,1
 728 -28 728 -28 716 -28.5 c 128,-1,2
 704 -29 704 -29 680 -29 c 0,3,4
 400 -29 400 -29 242 131.5 c 128,-1,5
 84 292 84 292 84 575 c 0,6,7
 84 742 84 742 144.5 910 c 128,-1,8
 205 1078 205 1078 313 1212 c 0,9,10
 438 1366 438 1366 594.5 1443 c 128,-1,11
 751 1520 751 1520 940 1520 c 0,12,13
 1214 1520 1214 1520 1372 1358.5 c 128,-1,14
 1530 1197 1530 1197 1530 918 c 0,15,16
 1530 617 1530 617 1365 367 c 128,-1,17
 1200 117 1200 117 934 14 c 1,18,-1
 1137 -264 l 1,19,-1
 911 -264 l 1,20,-1
 739 -27 l 1,0,1
934 1356 m 0,21,22
 768 1356 768 1356 641 1275.5 c 128,-1,23
 514 1195 514 1195 420 1030 c 0,24,25
 360 925 360 925 328.5 807 c 128,-1,26
 297 689 297 689 297 569 c 0,27,28
 297 361 297 361 396.5 248 c 128,-1,29
 496 135 496 135 678 135 c 0,30,31
 842 135 842 135 970.5 216.5 c 128,-1,32
 1099 298 1099 298 1190 459 c 0,33,34
 1251 567 1251 567 1283 685.5 c 128,-1,35
 1315 804 1315 804 1315 922 c 0,36,37
 1315 1129 1315 1129 1215 1242.5 c 128,-1,38
 1115 1356 1115 1356 934 1356 c 0,21,22
EndSplineSet
Colour: aaaa88
EndChar
StartChar: R
Encoding: 82 82 53
Width: 1423
Flags: W
AnchorPoint: "TopCap" 794 1493 basechar 0
AnchorPoint: "Bottom" 504 0 basechar 0
Fore
516 1327 m 1,0,-1
 414 797 l 1,1,-1
 674 797 l 2,2,3
 827 797 827 797 921.5 881.5 c 128,-1,4
 1016 966 1016 966 1016 1102 c 0,5,6
 1016 1211 1016 1211 952.5 1269 c 128,-1,7
 889 1327 889 1327 770 1327 c 2,8,-1
 516 1327 l 1,0,-1
887 717 m 1,9,10
 951 702 951 702 993.5 643 c 128,-1,11
 1036 584 1036 584 1092 408 c 1,12,-1
 1219 0 l 1,13,-1
 1006 0 l 1,14,-1
 889 383 l 2,15,16
 844 531 844 531 785 581 c 128,-1,17
 726 631 726 631 604 631 c 2,18,-1
 381 631 l 1,19,-1
 258 0 l 1,20,-1
 55 0 l 1,21,-1
 346 1493 l 1,22,-1
 801 1493 l 2,23,24
 1008 1493 1008 1493 1118.5 1399.5 c 128,-1,25
 1229 1306 1229 1306 1229 1130 c 0,26,27
 1229 974 1229 974 1135 860 c 128,-1,28
 1041 746 1041 746 887 717 c 1,9,10
EndSplineSet
Colour: aaaa88
EndChar
StartChar: S
Encoding: 83 83 54
Width: 1300
Flags: W
AnchorPoint: "TopCap" 802 1493 basechar 0
AnchorPoint: "Bottom" 512 0 basechar 0
Fore
1235 1444 m 1,0,-1
 1196 1247 l 1,1,2
 1095 1301 1095 1301 995.5 1328.5 c 128,-1,3
 896 1356 896 1356 803 1356 c 0,4,5
 622 1356 622 1356 515 1277 c 128,-1,6
 408 1198 408 1198 408 1067 c 0,7,8
 408 995 408 995 447.5 956.5 c 128,-1,9
 487 918 487 918 651 874 c 1,10,-1
 772 844 l 2,11,12
 977 791 977 791 1057 709.5 c 128,-1,13
 1137 628 1137 628 1137 481 c 0,14,15
 1137 255 1137 255 959.5 113 c 128,-1,16
 782 -29 782 -29 492 -29 c 0,17,18
 373 -29 373 -29 253 -5.5 c 128,-1,19
 133 18 133 18 12 66 c 1,20,-1
 53 274 l 1,21,22
 164 205 164 205 275.5 170 c 128,-1,23
 387 135 387 135 498 135 c 0,24,25
 687 135 687 135 801 219 c 128,-1,26
 915 303 915 303 915 438 c 0,27,28
 915 528 915 528 869.5 574.5 c 128,-1,29
 824 621 824 621 674 659 c 2,30,-1
 553 690 l 2,31,32
 346 744 346 744 270.5 814.5 c 128,-1,33
 195 885 195 885 195 1012 c 0,34,35
 195 1235 195 1235 366.5 1377.5 c 128,-1,36
 538 1520 538 1520 813 1520 c 0,37,38
 920 1520 920 1520 1025 1501 c 128,-1,39
 1130 1482 1130 1482 1235 1444 c 1,0,-1
EndSplineSet
Colour: aaaa88
EndChar
StartChar: T
Encoding: 84 84 55
Width: 1251
Flags: W
AnchorPoint: "Cedilla" 478 0 basechar 0
AnchorPoint: "TopCap" 769 1493 basechar 0
AnchorPoint: "Bottom" 479 0 basechar 0
Fore
121 1493 m 1,0,-1
 1384 1493 l 1,1,-1
 1352 1323 l 1,2,-1
 819 1323 l 1,3,-1
 563 0 l 1,4,-1
 360 0 l 1,5,-1
 616 1323 l 1,6,-1
 88 1323 l 1,7,-1
 121 1493 l 1,0,-1
EndSplineSet
Colour: aaaa88
EndChar
StartChar: U
Encoding: 85 85 56
Width: 1499
Flags: W
AnchorPoint: "Ogonek" 599 0 basechar 0
AnchorPoint: "Horn" 1341 1369 basechar 0
AnchorPoint: "TopCap" 889 1493 basechar 0
AnchorPoint: "Bottom" 599 0 basechar 0
Fore
317 1493 m 1,0,-1
 520 1493 l 1,1,-1
 344 586 l 1,2,3
 333 525 333 525 328.5 485.5 c 128,-1,4
 324 446 324 446 324 416 c 0,5,6
 324 278 324 278 401 206.5 c 128,-1,7
 478 135 478 135 627 135 c 0,8,9
 820 135 820 135 927.5 241 c 128,-1,10
 1035 347 1035 347 1081 586 c 1,11,-1
 1257 1493 l 1,12,-1
 1460 1493 l 1,13,-1
 1280 561 l 1,14,15
 1221 259 1221 259 1056 115 c 128,-1,16
 891 -29 891 -29 604 -29 c 0,17,18
 380 -29 380 -29 249.5 83.5 c 128,-1,19
 119 196 119 196 119 389 c 0,20,21
 119 424 119 424 124 467.5 c 128,-1,22
 129 511 129 511 139 561 c 1,23,-1
 317 1493 l 1,0,-1
EndSplineSet
Colour: aaaa88
EndChar
StartChar: V
Encoding: 86 86 57
Width: 1401
Flags: W
AnchorPoint: "TopCap" 844 1493 basechar 0
AnchorPoint: "Bottom" 554 0 basechar 0
Fore
422 0 m 1,0,-1
 160 1493 l 1,1,-1
 358 1493 l 1,2,-1
 575 209 l 1,3,-1
 1300 1493 l 1,4,-1
 1520 1493 l 1,5,-1
 657 0 l 1,6,-1
 422 0 l 1,0,-1
EndSplineSet
Colour: aaaa88
EndChar
StartChar: W
Encoding: 87 87 58
Width: 2025
Flags: W
AnchorPoint: "TopCap" 1156 1493 basechar 0
AnchorPoint: "Bottom" 866 0 basechar 0
Fore
197 1493 m 1,0,-1
 393 1493 l 1,1,-1
 465 223 l 1,2,-1
 1028 1493 l 1,3,-1
 1253 1493 l 1,4,-1
 1327 223 l 1,5,-1
 1884 1493 l 1,6,-1
 2089 1493 l 1,7,-1
 1425 0 l 1,8,-1
 1171 0 l 1,9,-1
 1102 1245 l 1,10,-1
 543 0 l 1,11,-1
 289 0 l 1,12,-1
 197 1493 l 1,0,-1
EndSplineSet
Colour: aaaa88
EndChar
StartChar: X
Encoding: 88 88 59
Width: 1403
Flags: W
AnchorPoint: "TopCap" 845 1493 basechar 0
AnchorPoint: "Bottom" 555 0 basechar 0
Fore
281 1493 m 1,0,-1
 485 1493 l 1,1,-1
 741 954 l 1,2,-1
 1204 1493 l 1,3,-1
 1440 1493 l 1,4,-1
 825 780 l 1,5,-1
 1196 0 l 1,6,-1
 993 0 l 1,7,-1
 692 629 l 1,8,-1
 147 0 l 1,9,-1
 -88 0 l 1,10,-1
 610 803 l 1,11,-1
 281 1493 l 1,0,-1
EndSplineSet
Colour: aaaa88
EndChar
StartChar: Y
Encoding: 89 89 60
Width: 1251
Flags: W
AnchorPoint: "TopCap" 769 1493 basechar 0
AnchorPoint: "Bottom" 479 0 basechar 0
Fore
129 1493 m 1,0,-1
 346 1493 l 1,1,-1
 625 879 l 1,2,-1
 1157 1493 l 1,3,-1
 1384 1493 l 1,4,-1
 707 711 l 1,5,-1
 569 0 l 1,6,-1
 367 0 l 1,7,-1
 504 711 l 1,8,-1
 129 1493 l 1,0,-1
EndSplineSet
Colour: aaaa88
EndChar
StartChar: Z
Encoding: 90 90 61
Width: 1403
Flags: W
AnchorPoint: "TopCap" 845 1493 basechar 0
AnchorPoint: "Bottom" 555 0 basechar 0
Fore
268 1493 m 1,0,-1
 1440 1493 l 1,1,-1
 1411 1339 l 1,2,-1
 254 170 l 1,3,-1
 1206 170 l 1,4,-1
 1174 0 l 1,5,-1
 -45 0 l 1,6,-1
 -16 154 l 1,7,-1
 1141 1323 l 1,8,-1
 236 1323 l 1,9,-1
 268 1493 l 1,0,-1
EndSplineSet
Colour: aaaa88
EndChar
StartChar: bracketleft
Encoding: 91 91 62
Width: 799
Flags: W
Fore
436 1556 m 1,0,-1
 860 1556 l 1,1,-1
 831 1413 l 1,2,-1
 592 1413 l 1,3,-1
 293 -127 l 1,4,-1
 532 -127 l 1,5,-1
 506 -270 l 1,6,-1
 82 -270 l 1,7,-1
 436 1556 l 1,0,-1
EndSplineSet
Colour: aaaa88
EndChar
StartChar: backslash
Encoding: 92 92 63
Width: 690
Flags: W
Fore
344 1493 m 1,0,-1
 537 -190 l 1,1,-1
 369 -190 l 1,2,-1
 174 1493 l 1,3,-1
 344 1493 l 1,0,-1
EndSplineSet
Colour: aaaa88
EndChar
StartChar: bracketright
Encoding: 93 93 64
Width: 799
Flags: W
Fore
700 1556 m 1,0,-1
 346 -270 l 1,1,-1
 -78 -270 l 1,2,-1
 -51 -127 l 1,3,-1
 188 -127 l 1,4,-1
 487 1413 l 1,5,-1
 250 1413 l 1,6,-1
 276 1556 l 1,7,-1
 700 1556 l 1,0,-1
EndSplineSet
Colour: aaaa88
EndChar
StartChar: asciicircum
Encoding: 94 94 65
Width: 1716
Flags: W
Fore
956 1493 m 1,0,-1
 1499 936 l 1,1,-1
 1298 936 l 1,2,-1
 858 1331 l 1,3,-1
 418 936 l 1,4,-1
 217 936 l 1,5,-1
 760 1493 l 1,6,-1
 956 1493 l 1,0,-1
EndSplineSet
Colour: aaaa88
EndChar
StartChar: underscore
Encoding: 95 95 66
Width: 1024
Flags: W
Fore
1044 -340 m 1,0,-1
 1044 -483 l 1,1,-1
 -20 -483 l 1,2,-1
 -20 -340 l 1,3,-1
 1044 -340 l 1,0,-1
EndSplineSet
Colour: aaaa88
EndChar
StartChar: grave
Encoding: 96 96 67
Width: 1024
Flags: W
Fore
586 1638 m 1,0,-1
 795 1264 l 1,1,-1
 641 1264 l 1,2,-1
 389 1638 l 1,3,-1
 586 1638 l 1,0,-1
EndSplineSet
Colour: aaaa88
EndChar
StartChar: a
Encoding: 97 97 68
Width: 1255
Flags: W
AnchorPoint: "Ogonek" 847 0 basechar 0
AnchorPoint: "Top" 696 1120 basechar 0
AnchorPoint: "Bottom" 479 0 basechar 0
Fore
1100 639 m 1,0,-1
 975 0 l 1,1,-1
 791 0 l 1,2,-1
 825 170 l 1,3,4
 744 70 744 70 640.5 20.5 c 128,-1,5
 537 -29 537 -29 410 -29 c 0,6,7
 267 -29 267 -29 175.5 58.5 c 128,-1,8
 84 146 84 146 84 283 c 0,9,10
 84 479 84 479 240.5 593 c 128,-1,11
 397 707 397 707 672 707 c 2,12,-1
 928 707 l 1,13,-1
 938 756 l 1,14,15
 940 764 940 764 941 773.5 c 128,-1,16
 942 783 942 783 942 803 c 0,17,18
 942 892 942 892 869.5 941.5 c 128,-1,19
 797 991 797 991 666 991 c 0,20,21
 576 991 576 991 481.5 968 c 128,-1,22
 387 945 387 945 287 899 c 1,23,-1
 319 1069 l 1,24,25
 423 1108 423 1108 522.5 1127.5 c 128,-1,26
 622 1147 622 1147 715 1147 c 0,27,28
 913 1147 913 1147 1016.5 1061 c 128,-1,29
 1120 975 1120 975 1120 811 c 0,30,31
 1120 778 1120 778 1115 733.5 c 128,-1,32
 1110 689 1110 689 1100 639 c 1,0,-1
901 563 m 1,33,-1
 717 563 l 2,34,35
 491 563 491 563 382.5 502.5 c 128,-1,36
 274 442 274 442 274 315 c 0,37,38
 274 227 274 227 329.5 177 c 128,-1,39
 385 127 385 127 483 127 c 0,40,41
 633 127 633 127 745 234.5 c 128,-1,42
 857 342 857 342 893 522 c 2,43,-1
 901 563 l 1,33,-1
EndSplineSet
Colour: aaaa88
EndChar
StartChar: b
Encoding: 98 98 69
Width: 1300
Flags: W
AnchorPoint: "Top" 860 1493 basechar 0
AnchorPoint: "Bottom" 570 0 basechar 0
Fore
1014 684 m 0,0,1
 1014 829 1014 829 947.5 911 c 128,-1,2
 881 993 881 993 764 993 c 0,3,4
 679 993 679 993 604.5 951.5 c 128,-1,5
 530 910 530 910 475 831 c 0,6,7
 417 748 417 748 383.5 638.5 c 128,-1,8
 350 529 350 529 350 420 c 0,9,10
 350 282 350 282 415.5 203.5 c 128,-1,11
 481 125 481 125 596 125 c 0,12,13
 683 125 683 125 757 165.5 c 128,-1,14
 831 206 831 206 887 285 c 0,15,16
 944 367 944 367 979 476 c 128,-1,17
 1014 585 1014 585 1014 684 c 0,0,1
442 950 m 1,18,19
 510 1042 510 1042 612.5 1094.5 c 128,-1,20
 715 1147 715 1147 827 1147 c 0,21,22
 999 1147 999 1147 1100.5 1031 c 128,-1,23
 1202 915 1202 915 1202 717 c 0,24,25
 1202 555 1202 555 1142.5 403 c 128,-1,26
 1083 251 1083 251 973 133 c 0,27,28
 901 55 901 55 807 13 c 128,-1,29
 713 -29 713 -29 610 -29 c 0,30,31
 501 -29 501 -29 421 21 c 128,-1,32
 341 71 341 71 291 170 c 1,33,-1
 258 0 l 1,34,-1
 74 0 l 1,35,-1
 377 1556 l 1,36,-1
 561 1556 l 1,37,-1
 442 950 l 1,18,19
EndSplineSet
Colour: aaaa88
EndChar
StartChar: c
Encoding: 99 99 70
Width: 1126
Flags: W
AnchorPoint: "Cedilla" 537 0 basechar 0
AnchorPoint: "Bottom" 537 0 basechar 0
AnchorPoint: "Top" 753 1120 basechar 0
Fore
1098 1077 m 1,0,-1
 1061 895 l 1,1,2
 995 943 995 943 920.5 967 c 128,-1,3
 846 991 846 991 766 991 c 0,4,5
 678 991 678 991 598.5 960 c 128,-1,6
 519 929 519 929 465 872 c 1,7,8
 379 785 379 785 332 668 c 128,-1,9
 285 551 285 551 285 426 c 0,10,11
 285 275 285 275 360.5 201 c 128,-1,12
 436 127 436 127 590 127 c 0,13,14
 666 127 666 127 751.5 150 c 128,-1,15
 837 173 837 173 930 219 c 1,16,-1
 895 37 l 1,17,18
 815 4 815 4 730.5 -12.5 c 128,-1,19
 646 -29 646 -29 557 -29 c 0,20,21
 334 -29 334 -29 214 82.5 c 128,-1,22
 94 194 94 194 94 401 c 0,23,24
 94 575 94 575 156.5 721.5 c 128,-1,25
 219 868 219 868 342 985 c 0,26,27
 426 1065 426 1065 539 1106 c 128,-1,28
 652 1147 652 1147 786 1147 c 0,29,30
 864 1147 864 1147 941 1129.5 c 128,-1,31
 1018 1112 1018 1112 1098 1077 c 1,0,-1
EndSplineSet
Colour: aaaa88
EndChar
StartChar: d
Encoding: 100 100 71
Width: 1300
Flags: W
AnchorPoint: "Top" 720 1120 basechar 0
AnchorPoint: "Bottom" 502 0 basechar 0
Fore
856 168 m 1,0,1
 782 71 782 71 681 21 c 128,-1,2
 580 -29 580 -29 457 -29 c 0,3,4
 289 -29 289 -29 191.5 85.5 c 128,-1,5
 94 200 94 200 94 399 c 0,6,7
 94 565 94 565 153 715.5 c 128,-1,8
 212 866 212 866 324 985 c 0,9,10
 398 1064 398 1064 491 1105.5 c 128,-1,11
 584 1147 584 1147 686 1147 c 0,12,13
 794 1147 794 1147 876.5 1095 c 128,-1,14
 959 1043 959 1043 1004 946 c 1,15,-1
 1124 1556 l 1,16,-1
 1309 1556 l 1,17,-1
 1006 0 l 1,18,-1
 821 0 l 1,19,-1
 856 168 l 1,0,1
285 432 m 0,20,21
 285 287 285 287 350.5 206 c 128,-1,22
 416 125 416 125 532 125 c 0,23,24
 618 125 618 125 691.5 166.5 c 128,-1,25
 765 208 765 208 821 289 c 0,26,27
 880 373 880 373 914 483 c 128,-1,28
 948 593 948 593 948 700 c 0,29,30
 948 839 948 839 882.5 917 c 128,-1,31
 817 995 817 995 702 995 c 0,32,33
 615 995 615 995 540 954 c 128,-1,34
 465 913 465 913 412 836 c 0,35,36
 354 753 354 753 319.5 643 c 128,-1,37
 285 533 285 533 285 432 c 0,20,21
EndSplineSet
Colour: aaaa88
EndChar
StartChar: e
Encoding: 101 101 72
Width: 1260
Flags: W
AnchorPoint: "Cedilla" 547 0 basechar 0
AnchorPoint: "Ogonek" 547 0 basechar 0
AnchorPoint: "Top" 765 1120 basechar 0
AnchorPoint: "Bottom" 547 0 basechar 0
Fore
985 660 m 1,0,1
 988 676 988 676 989.5 693 c 128,-1,2
 991 710 991 710 991 727 c 0,3,4
 991 849 991 849 919.5 920 c 128,-1,5
 848 991 848 991 725 991 c 0,6,7
 588 991 588 991 483 904.5 c 128,-1,8
 378 818 378 818 324 659 c 1,9,-1
 985 660 l 1,0,1
1145 516 m 1,10,-1
 289 516 l 1,11,12
 283 478 283 478 281 456 c 128,-1,13
 279 434 279 434 279 418 c 0,14,15
 279 279 279 279 364.5 203 c 128,-1,16
 450 127 450 127 606 127 c 0,17,18
 726 127 726 127 833 154 c 128,-1,19
 940 181 940 181 1032 233 c 1,20,-1
 997 51 l 1,21,22
 898 11 898 11 792.5 -9 c 128,-1,23
 687 -29 687 -29 578 -29 c 0,24,25
 345 -29 345 -29 219.5 82.5 c 128,-1,26
 94 194 94 194 94 399 c 0,27,28
 94 574 94 574 156.5 724.5 c 128,-1,29
 219 875 219 875 340 993 c 1,30,31
 418 1067 418 1067 525.5 1107 c 128,-1,32
 633 1147 633 1147 754 1147 c 0,33,34
 944 1147 944 1147 1056.5 1033 c 128,-1,35
 1169 919 1169 919 1169 727 c 0,36,37
 1169 681 1169 681 1163 628.5 c 128,-1,38
 1157 576 1157 576 1145 516 c 1,10,-1
EndSplineSet
Colour: aaaa88
EndChar
StartChar: f
Encoding: 102 102 73
Width: 721
Flags: W
AnchorPoint: "Top" 606 1493 basechar 0
AnchorPoint: "Bottom" 231 0 basechar 0
Fore
979 1556 m 1,0,-1
 950 1403 l 1,1,-1
 774 1403 l 2,2,3
 674 1403 674 1403 628.5 1363.5 c 128,-1,4
 583 1324 583 1324 561 1219 c 1,5,-1
 541 1120 l 1,6,-1
 844 1120 l 1,7,-1
 817 977 l 1,8,-1
 514 977 l 1,9,-1
 324 0 l 1,10,-1
 139 0 l 1,11,-1
 330 977 l 1,12,-1
 154 977 l 1,13,-1
 180 1120 l 1,14,-1
 356 1120 l 1,15,-1
 371 1198 l 2,16,17
 409 1396 409 1396 504.5 1476 c 128,-1,18
 600 1556 600 1556 805 1556 c 2,19,-1
 979 1556 l 1,0,-1
EndSplineSet
Colour: aaaa88
EndChar
StartChar: g
Encoding: 103 103 74
Width: 1300
Flags: W
AnchorPoint: "Top" 720 1120 basechar 0
AnchorPoint: "Bottom" 401 -426 basechar 0
Fore
1221 1120 m 1,0,-1
 1030 139 l 1,1,2
 975 -146 975 -146 819.5 -286 c 128,-1,3
 664 -426 664 -426 401 -426 c 0,4,5
 304 -426 304 -426 221 -411.5 c 128,-1,6
 138 -397 138 -397 66 -367 c 1,7,-1
 100 -188 l 1,8,9
 168 -232 168 -232 244 -253 c 128,-1,10
 320 -274 320 -274 406 -274 c 0,11,12
 581 -274 581 -274 693.5 -178.5 c 128,-1,13
 806 -83 806 -83 842 96 c 1,14,-1
 858 180 l 1,15,16
 781 92 781 92 679 46 c 128,-1,17
 577 0 577 0 459 0 c 0,18,19
 289 0 289 0 191.5 112.5 c 128,-1,20
 94 225 94 225 94 422 c 0,21,22
 94 577 94 577 153 725.5 c 128,-1,23
 212 874 212 874 319 989 c 0,24,25
 390 1065 390 1065 484.5 1106 c 128,-1,26
 579 1147 579 1147 682 1147 c 0,27,28
 795 1147 795 1147 879 1094.5 c 128,-1,29
 963 1042 963 1042 1004 946 c 1,30,-1
 1036 1120 l 1,31,-1
 1221 1120 l 1,0,-1
944 709 m 0,32,33
 944 845 944 845 880 919 c 128,-1,34
 816 993 816 993 698 993 c 0,35,36
 625 993 625 993 559 964 c 128,-1,37
 493 935 493 935 446 883 c 0,38,39
 370 797 370 797 327.5 680.5 c 128,-1,40
 285 564 285 564 285 440 c 0,41,42
 285 302 285 302 349.5 228 c 128,-1,43
 414 154 414 154 535 154 c 0,44,45
 710 154 710 154 827 312.5 c 128,-1,46
 944 471 944 471 944 709 c 0,32,33
EndSplineSet
Colour: aaaa88
EndChar
StartChar: h
Encoding: 104 104 75
Width: 1298
Flags: W
AnchorPoint: "Cedilla" 166 0 basechar 0
AnchorPoint: "Top" 825 1493 basechar 0
AnchorPoint: "Bottom" 535 0 basechar 0
Fore
1141 676 m 1,0,-1
 1010 0 l 1,1,-1
 825 0 l 1,2,-1
 956 669 l 2,3,4
 965 716 965 716 970 752 c 128,-1,5
 975 788 975 788 975 809 c 0,6,7
 975 893 975 893 922 940 c 128,-1,8
 869 987 869 987 774 987 c 0,9,10
 626 987 626 987 517.5 887 c 128,-1,11
 409 787 409 787 377 621 c 1,12,-1
 256 0 l 1,13,-1
 72 0 l 1,14,-1
 375 1556 l 1,15,-1
 559 1556 l 1,16,-1
 440 944 l 1,17,18
 510 1038 510 1038 619 1092.5 c 128,-1,19
 728 1147 728 1147 848 1147 c 0,20,21
 996 1147 996 1147 1077.5 1067 c 128,-1,22
 1159 987 1159 987 1159 842 c 0,23,24
 1159 806 1159 806 1154.5 765 c 128,-1,25
 1150 724 1150 724 1141 676 c 1,0,-1
EndSplineSet
Colour: aaaa88
EndChar
StartChar: i
Encoding: 105 105 76
Width: 569
Flags: W
AnchorPoint: "Ogonek" 170 0 basechar 0
AnchorPoint: "Bottom" 170 0 basechar 0
AnchorPoint: "Top" 388 1120 basechar 0
Fore
375 1556 m 1,0,-1
 559 1556 l 1,1,-1
 514 1323 l 1,2,-1
 330 1323 l 1,3,-1
 375 1556 l 1,0,-1
291 1120 m 1,4,-1
 475 1120 l 1,5,-1
 256 0 l 1,6,-1
 72 0 l 1,7,-1
 291 1120 l 1,4,-1
EndSplineSet
Colour: aaaa88
EndChar
StartChar: j
Encoding: 106 106 77
Width: 569
Flags: W
HStem: -426 156<-201 -100> 1100 20G<297 481>
AnchorPoint: "Top" 388 1120 basechar 0
AnchorPoint: "Bottom" 87 -426 basechar 0
Fore
297 1120 m 1,0,-1
 481 1120 l 1,1,-1
 260 -20 l 1,2,-1
 259 -25 l 2,3,4
 222 -216 222 -216 174 -287 c 0,5,6
 129 -354 129 -354 42.5 -390 c 128,-1,7
 -44 -426 -44 -426 -162 -426 c 2,8,-1
 -231 -426 l 1,9,-1
 -201 -270 l 1,10,-1
 -154 -270 l 2,11,12
 -46 -270 -46 -270 -0.5 -225 c 128,-1,13
 45 -180 45 -180 76 -20 c 2,14,-1
 297 1120 l 1,0,-1
383 1556 m 1,15,-1
 567 1556 l 1,16,-1
 522 1323 l 1,17,-1
 338 1323 l 1,18,-1
 383 1556 l 1,15,-1
EndSplineSet
Colour: aaaa88
EndChar
StartChar: k
Encoding: 107 107 78
Width: 1186
Flags: W
AnchorPoint: "Top" 801 1493 basechar 0
AnchorPoint: "Bottom" 511 0 basechar 0
Fore
375 1556 m 1,0,-1
 559 1556 l 1,1,-1
 383 649 l 1,2,-1
 1014 1120 l 1,3,-1
 1253 1120 l 1,4,-1
 549 584 l 1,5,-1
 1063 0 l 1,6,-1
 840 0 l 1,7,-1
 362 547 l 1,8,-1
 256 0 l 1,9,-1
 72 0 l 1,10,-1
 375 1556 l 1,0,-1
EndSplineSet
Colour: aaaa88
EndChar
StartChar: l
Encoding: 108 108 79
Width: 569
Flags: W
AnchorPoint: "Bottom" 170 0 basechar 0
AnchorPoint: "Top" 462 1493 basechar 0
Fore
375 1556 m 1,0,-1
 559 1556 l 1,1,-1
 256 0 l 1,2,-1
 72 0 l 1,3,-1
 375 1556 l 1,0,-1
EndSplineSet
Colour: aaaa88
EndChar
StartChar: m
Encoding: 109 109 80
Width: 1995
Flags: W
AnchorPoint: "Bottom" 890 0 basechar 0
AnchorPoint: "Top" 1108 1120 basechar 0
Fore
1839 676 m 2,0,-1
 1708 0 l 1,1,-1
 1524 0 l 1,2,-1
 1653 670 l 1,3,4
 1661 713 1661 713 1665 744 c 128,-1,5
 1669 775 1669 775 1669 797 c 0,6,7
 1669 887 1669 887 1619 937 c 128,-1,8
 1569 987 1569 987 1479 987 c 0,9,10
 1345 987 1345 987 1240 886.5 c 128,-1,11
 1135 786 1135 786 1104 625 c 1,12,-1
 981 0 l 1,13,-1
 797 0 l 1,14,-1
 928 670 l 1,15,16
 936 707 936 707 940 738.5 c 128,-1,17
 944 770 944 770 944 795 c 0,18,19
 944 886 944 886 894 936.5 c 128,-1,20
 844 987 844 987 756 987 c 0,21,22
 620 987 620 987 515 886.5 c 128,-1,23
 410 786 410 786 379 625 c 1,24,-1
 256 0 l 1,25,-1
 72 0 l 1,26,-1
 291 1120 l 1,27,-1
 475 1120 l 1,28,-1
 440 946 l 1,29,30
 515 1044 515 1044 615.5 1095.5 c 128,-1,31
 716 1147 716 1147 831 1147 c 0,32,33
 953 1147 953 1147 1031.5 1083 c 128,-1,34
 1110 1019 1110 1019 1126 905 c 1,35,36
 1210 1023 1210 1023 1320.5 1085 c 128,-1,37
 1431 1147 1431 1147 1554 1147 c 0,38,39
 1698 1147 1698 1147 1776.5 1064 c 128,-1,40
 1855 981 1855 981 1855 829 c 0,41,42
 1855 796 1855 796 1851 756.5 c 128,-1,43
 1847 717 1847 717 1839 676 c 2,0,-1
EndSplineSet
Colour: aaaa88
EndChar
StartChar: n
Encoding: 110 110 81
Width: 1298
Flags: W
AnchorPoint: "Bottom" 535 0 basechar 0
AnchorPoint: "Top" 753 1120 basechar 0
Fore
1141 676 m 1,0,-1
 1010 0 l 1,1,-1
 825 0 l 1,2,-1
 956 669 l 2,3,4
 965 716 965 716 970 752 c 128,-1,5
 975 788 975 788 975 809 c 0,6,7
 975 893 975 893 922 940 c 128,-1,8
 869 987 869 987 774 987 c 0,9,10
 626 987 626 987 519 888.5 c 128,-1,11
 412 790 412 790 379 621 c 1,12,-1
 256 0 l 1,13,-1
 72 0 l 1,14,-1
 289 1120 l 1,15,-1
 473 1120 l 1,16,-1
 436 944 l 1,17,18
 513 1041 513 1041 621 1094 c 128,-1,19
 729 1147 729 1147 848 1147 c 0,20,21
 996 1147 996 1147 1077.5 1067 c 128,-1,22
 1159 987 1159 987 1159 842 c 0,23,24
 1159 806 1159 806 1154.5 765 c 128,-1,25
 1150 724 1150 724 1141 676 c 1,0,-1
EndSplineSet
Colour: aaaa88
EndChar
StartChar: o
Encoding: 111 111 82
Width: 1253
Flags: W
AnchorPoint: "Horn" 1010 948 basechar 0
AnchorPoint: "Bottom" 513 0 basechar 0
AnchorPoint: "Top" 731 1120 basechar 0
Fore
520 -29 m 0,0,1
 323 -29 323 -29 208.5 92.5 c 128,-1,2
 94 214 94 214 94 424 c 0,3,4
 94 546 94 546 133.5 672.5 c 128,-1,5
 173 799 173 799 236 885 c 0,6,7
 335 1019 335 1019 457 1083 c 128,-1,8
 579 1147 579 1147 733 1147 c 0,9,10
 924 1147 924 1147 1041.5 1028 c 128,-1,11
 1159 909 1159 909 1159 717 c 0,12,13
 1159 584 1159 584 1120 452 c 128,-1,14
 1081 320 1081 320 1018 233 c 0,15,16
 920 99 920 99 798 35 c 128,-1,17
 676 -29 676 -29 520 -29 c 0,0,1
285 430 m 0,18,19
 285 278 285 278 348.5 202.5 c 128,-1,20
 412 127 412 127 541 127 c 0,21,22
 726 127 726 127 847.5 288.5 c 128,-1,23
 969 450 969 450 969 698 c 0,24,25
 969 843 969 843 904 917 c 128,-1,26
 839 991 839 991 713 991 c 0,27,28
 609 991 609 991 528 942.5 c 128,-1,29
 447 894 447 894 383 795 c 0,30,31
 336 721 336 721 310.5 626 c 128,-1,32
 285 531 285 531 285 430 c 0,18,19
EndSplineSet
Colour: aaaa88
EndChar
StartChar: p
Encoding: 112 112 83
Width: 1300
Flags: W
AnchorPoint: "Top" 788 1120 basechar 0
AnchorPoint: "Bottom" 487 -426 basechar 0
Fore
1016 690 m 0,0,1
 1016 837 1016 837 952 915 c 128,-1,2
 888 993 888 993 768 993 c 0,3,4
 686 993 686 993 611.5 951 c 128,-1,5
 537 909 537 909 479 829 c 0,6,7
 422 750 422 750 388 638 c 128,-1,8
 354 526 354 526 354 416 c 0,9,10
 354 276 354 276 418 200.5 c 128,-1,11
 482 125 482 125 600 125 c 0,12,13
 687 125 687 125 761.5 166 c 128,-1,14
 836 207 836 207 889 285 c 0,15,16
 946 367 946 367 981 478 c 128,-1,17
 1016 589 1016 589 1016 690 c 0,0,1
446 950 m 1,18,19
 520 1047 520 1047 620.5 1097 c 128,-1,20
 721 1147 721 1147 844 1147 c 0,21,22
 1016 1147 1016 1147 1111 1034.5 c 128,-1,23
 1206 922 1206 922 1206 719 c 0,24,25
 1206 553 1206 553 1147 402.5 c 128,-1,26
 1088 252 1088 252 977 133 c 0,27,28
 903 54 903 54 810 12.5 c 128,-1,29
 717 -29 717 -29 614 -29 c 0,30,31
 495 -29 495 -29 414 20.5 c 128,-1,32
 333 70 333 70 293 168 c 1,33,-1
 178 -426 l 1,34,-1
 -6 -426 l 1,35,-1
 295 1120 l 1,36,-1
 479 1120 l 1,37,-1
 446 950 l 1,18,19
EndSplineSet
Colour: aaaa88
EndChar
StartChar: q
Encoding: 113 113 84
Width: 1300
Flags: W
AnchorPoint: "Top" 720 1120 basechar 0
AnchorPoint: "Bottom" 419 -426 basechar 0
Fore
854 168 m 1,0,1
 780 71 780 71 679.5 21 c 128,-1,2
 579 -29 579 -29 457 -29 c 0,3,4
 287 -29 287 -29 190.5 85.5 c 128,-1,5
 94 200 94 200 94 401 c 0,6,7
 94 563 94 563 153.5 714 c 128,-1,8
 213 865 213 865 324 985 c 0,9,10
 396 1063 396 1063 489.5 1105 c 128,-1,11
 583 1147 583 1147 686 1147 c 0,12,13
 810 1147 810 1147 890 1098 c 128,-1,14
 970 1049 970 1049 1006 950 c 1,15,-1
 1038 1118 l 1,16,-1
 1223 1118 l 1,17,-1
 924 -422 l 1,18,-1
 739 -422 l 1,19,-1
 854 168 l 1,0,1
285 428 m 0,20,21
 285 280 285 280 347 202.5 c 128,-1,22
 409 125 409 125 526 125 c 0,23,24
 700 125 700 125 823 291.5 c 128,-1,25
 946 458 946 458 946 696 c 0,26,27
 946 840 946 840 882.5 916.5 c 128,-1,28
 819 993 819 993 700 993 c 0,29,30
 613 993 613 993 539 952.5 c 128,-1,31
 465 912 465 912 410 834 c 0,32,33
 352 752 352 752 318.5 642 c 128,-1,34
 285 532 285 532 285 428 c 0,20,21
EndSplineSet
Colour: aaaa88
EndChar
StartChar: r
Encoding: 114 114 85
Width: 842
Flags: W
AnchorPoint: "Top" 636 1120 basechar 0
AnchorPoint: "Bottom" 398 0 basechar 0
Fore
913 950 m 1,0,1
 885 965 885 965 849 973 c 128,-1,2
 813 981 813 981 772 981 c 0,3,4
 625 981 625 981 515 869.5 c 128,-1,5
 405 758 405 758 369 571 c 1,6,-1
 256 0 l 1,7,-1
 72 0 l 1,8,-1
 291 1120 l 1,9,-1
 475 1120 l 1,10,-1
 440 946 l 1,11,12
 513 1043 513 1043 614.5 1095 c 128,-1,13
 716 1147 716 1147 831 1147 c 0,14,15
 861 1147 861 1147 890 1143.5 c 128,-1,16
 919 1140 919 1140 948 1132 c 1,17,-1
 913 950 l 1,0,1
EndSplineSet
Colour: aaaa88
EndChar
StartChar: s
Encoding: 115 115 86
Width: 1067
Flags: W
AnchorPoint: "Bottom" 421 0 basechar 0
AnchorPoint: "Top" 639 1120 basechar 0
Fore
1024 1087 m 1,0,-1
 989 913 l 1,1,2
 916 953 916 953 835 973 c 128,-1,3
 754 993 754 993 668 993 c 0,4,5
 523 993 523 993 439.5 943.5 c 128,-1,6
 356 894 356 894 356 809 c 0,7,8
 356 710 356 710 550 657 c 0,9,10
 565 653 565 653 572 651 c 2,11,-1
 631 633 l 1,12,13
 815 582 815 582 876.5 526 c 128,-1,14
 938 470 938 470 938 373 c 0,15,16
 938 195 938 195 796.5 83 c 128,-1,17
 655 -29 655 -29 426 -29 c 0,18,19
 337 -29 337 -29 239 -12 c 128,-1,20
 141 5 141 5 23 41 c 1,21,-1
 59 231 l 1,22,23
 160 179 160 179 258 152 c 128,-1,24
 356 125 356 125 446 125 c 0,25,26
 581 125 581 125 665.5 183 c 128,-1,27
 750 241 750 241 750 330 c 0,28,29
 750 426 750 426 528 485 c 2,30,-1
 509 490 l 1,31,-1
 446 506 l 2,32,33
 306 543 306 543 241 603.5 c 128,-1,34
 176 664 176 664 176 758 c 0,35,36
 176 937 176 937 310.5 1042 c 128,-1,37
 445 1147 445 1147 676 1147 c 0,38,39
 767 1147 767 1147 853.5 1132 c 128,-1,40
 940 1117 940 1117 1024 1087 c 1,0,-1
EndSplineSet
Colour: aaaa88
EndChar
StartChar: t
Encoding: 116 116 87
Width: 803
Flags: W
AnchorPoint: "Cedilla" 463 0 basechar 0
AnchorPoint: "Top" 467 1520 basechar 0
AnchorPoint: "Bottom" 308 0 basechar 0
Fore
866 1120 m 1,0,-1
 838 977 l 1,1,-1
 471 977 l 1,2,-1
 352 369 l 1,3,4
 346 335 346 335 343 312 c 128,-1,5
 340 289 340 289 340 276 c 0,6,7
 340 212 340 212 378.5 183 c 128,-1,8
 417 154 417 154 502 154 c 2,9,-1
 688 154 l 1,10,-1
 657 0 l 1,11,-1
 481 0 l 2,12,13
 317 0 317 0 236.5 64 c 128,-1,14
 156 128 156 128 156 258 c 0,15,16
 156 281 156 281 159 308.5 c 128,-1,17
 162 336 162 336 168 369 c 1,18,-1
 287 977 l 1,19,-1
 131 977 l 1,20,-1
 160 1120 l 1,21,-1
 313 1120 l 1,22,-1
 375 1438 l 1,23,-1
 559 1438 l 1,24,-1
 498 1120 l 1,25,-1
 866 1120 l 1,0,-1
EndSplineSet
Colour: aaaa88
EndChar
StartChar: u
Encoding: 117 117 88
Width: 1298
Flags: W
AnchorPoint: "Ogonek" 880 0 basechar 0
AnchorPoint: "Horn" 1075 948 basechar 0
AnchorPoint: "Bottom" 535 0 basechar 0
AnchorPoint: "Top" 753 1120 basechar 0
Fore
137 444 m 1,0,-1
 268 1120 l 1,1,-1
 453 1120 l 1,2,-1
 322 451 l 1,3,4
 312 402 312 402 307.5 367 c 128,-1,5
 303 332 303 332 303 309 c 0,6,7
 303 224 303 224 355 177.5 c 128,-1,8
 407 131 407 131 502 131 c 0,9,10
 650 131 650 131 758 231 c 128,-1,11
 866 331 866 331 899 500 c 1,12,-1
 1022 1120 l 1,13,-1
 1206 1120 l 1,14,-1
 989 0 l 1,15,-1
 805 0 l 1,16,-1
 842 176 l 1,17,18
 764 78 764 78 656.5 24.5 c 128,-1,19
 549 -29 549 -29 428 -29 c 0,20,21
 281 -29 281 -29 199 51.5 c 128,-1,22
 117 132 117 132 117 276 c 0,23,24
 117 306 117 306 122 351 c 128,-1,25
 127 396 127 396 137 444 c 1,0,-1
EndSplineSet
Colour: aaaa88
EndChar
StartChar: v
Encoding: 118 118 89
Width: 1212
Flags: W
AnchorPoint: "Bottom" 492 0 basechar 0
AnchorPoint: "Top" 710 1120 basechar 0
Fore
147 1120 m 1,0,-1
 342 1120 l 1,1,-1
 506 168 l 1,2,-1
 1042 1120 l 1,3,-1
 1237 1120 l 1,4,-1
 600 0 l 1,5,-1
 352 0 l 1,6,-1
 147 1120 l 1,0,-1
EndSplineSet
Colour: aaaa88
EndChar
StartChar: w
Encoding: 119 119 90
Width: 1675
Flags: W
AnchorPoint: "Bottom" 724 0 basechar 0
AnchorPoint: "Top" 942 1120 basechar 0
Fore
174 1120 m 1,0,-1
 356 1120 l 1,1,-1
 403 219 l 1,2,-1
 821 1120 l 1,3,-1
 1034 1120 l 1,4,-1
 1096 219 l 1,5,-1
 1493 1120 l 1,6,-1
 1677 1120 l 1,7,-1
 1165 0 l 1,8,-1
 950 0 l 1,9,-1
 895 928 l 1,10,-1
 467 0 l 1,11,-1
 250 0 l 1,12,-1
 174 1120 l 1,0,-1
EndSplineSet
Colour: aaaa88
EndChar
StartChar: x
Encoding: 120 120 91
Width: 1212
Flags: W
AnchorPoint: "Bottom" 492 0 basechar 0
AnchorPoint: "Top" 710 1120 basechar 0
Fore
1229 1120 m 1,0,-1
 715 571 l 1,1,-1
 1030 0 l 1,2,-1
 819 0 l 1,3,-1
 582 444 l 1,4,-1
 170 0 l 1,5,-1
 -53 0 l 1,6,-1
 498 590 l 1,7,-1
 205 1120 l 1,8,-1
 416 1120 l 1,9,-1
 631 715 l 1,10,-1
 1006 1120 l 1,11,-1
 1229 1120 l 1,0,-1
EndSplineSet
Colour: aaaa88
EndChar
StartChar: y
Encoding: 121 121 92
Width: 1212
Flags: W
AnchorPoint: "Top" 710 1120 basechar 0
AnchorPoint: "Bottom" 409 -426 basechar 0
Fore
508 -104 m 2,0,1
 380 -319 380 -319 299.5 -372.5 c 128,-1,2
 219 -426 219 -426 94 -426 c 2,3,-1
 -51 -426 l 1,4,-1
 -20 -272 l 1,5,-1
 86 -272 l 2,6,7
 163 -272 163 -272 217 -230 c 128,-1,8
 271 -188 271 -188 338 -66 c 1,9,-1
 395 41 l 1,10,-1
 147 1120 l 1,11,-1
 342 1120 l 1,12,-1
 528 262 l 1,13,-1
 1042 1120 l 1,14,-1
 1235 1120 l 1,15,-1
 508 -104 l 2,0,1
EndSplineSet
Colour: aaaa88
EndChar
StartChar: z
Encoding: 122 122 93
Width: 1075
Flags: W
AnchorPoint: "Bottom" 425 0 basechar 0
AnchorPoint: "Top" 643 1120 basechar 0
Fore
238 1120 m 1,0,-1
 1112 1120 l 1,1,-1
 1079 952 l 1,2,-1
 236 147 l 1,3,-1
 932 147 l 1,4,-1
 903 0 l 1,5,-1
 -6 0 l 1,6,-1
 27 168 l 1,7,-1
 870 973 l 1,8,-1
 209 973 l 1,9,-1
 238 1120 l 1,0,-1
EndSplineSet
Colour: aaaa88
EndChar
StartChar: braceleft
Encoding: 123 123 94
Width: 1303
Flags: W
Fore
1239 1556 m 1,0,-1
 1210 1413 l 1,1,-1
 1133 1413 l 2,2,3
 997 1413 997 1413 950 1373.5 c 128,-1,4
 903 1334 903 1334 872 1184 c 2,5,-1
 821 932 l 2,6,7
 789 772 789 772 728.5 699.5 c 128,-1,8
 668 627 668 627 557 606 c 1,9,10
 630 588 630 588 670.5 536.5 c 128,-1,11
 711 485 711 485 711 410 c 0,12,13
 711 386 711 386 707 353 c 128,-1,14
 703 320 703 320 696 282 c 2,15,-1
 649 38 l 2,16,17
 644 7 644 7 641.5 -19.5 c 128,-1,18
 639 -46 639 -46 639 -70 c 0,19,20
 639 -133 639 -133 681.5 -161.5 c 128,-1,21
 724 -190 724 -190 821 -190 c 2,22,-1
 899 -190 l 1,23,-1
 870 -334 l 1,24,-1
 799 -334 l 2,25,26
 611 -334 611 -334 530 -279.5 c 128,-1,27
 449 -225 449 -225 449 -102 c 0,28,29
 449 -70 449 -70 452.5 -36 c 128,-1,30
 456 -2 456 -2 463 35 c 2,31,-1
 508 270 l 2,32,33
 508 273 508 273 510 282 c 0,34,35
 520 332 520 332 520 377 c 0,36,37
 520 462 520 462 471 499.5 c 128,-1,38
 422 537 422 537 309 537 c 2,39,-1
 248 537 l 1,40,-1
 276 684 l 1,41,-1
 338 684 l 2,42,43
 482 684 482 684 545.5 738.5 c 128,-1,44
 609 793 609 793 641 944 c 2,45,-1
 688 1188 l 2,46,47
 714 1311 714 1311 749.5 1382.5 c 128,-1,48
 785 1454 785 1454 840 1493 c 0,49,50
 886 1527 886 1527 955 1541.5 c 128,-1,51
 1024 1556 1024 1556 1157 1556 c 2,52,-1
 1239 1556 l 1,0,-1
EndSplineSet
Colour: aaaa88
EndChar
StartChar: bar
Encoding: 124 124 95
Width: 690
Flags: W
Fore
430 1565 m 1,0,-1
 430 -483 l 1,1,-1
 260 -483 l 1,2,-1
 260 1565 l 1,3,-1
 430 1565 l 1,0,-1
EndSplineSet
Colour: aaaa88
EndChar
StartChar: braceright
Encoding: 125 125 96
Width: 1303
Flags: W
Fore
14 -334 m 1,0,-1
 43 -190 l 1,1,-1
 121 -190 l 2,2,3
 257 -190 257 -190 304 -150.5 c 128,-1,4
 351 -111 351 -111 381 39 c 2,5,-1
 432 291 l 2,6,7
 465 451 465 451 525 523.5 c 128,-1,8
 585 596 585 596 696 616 c 1,9,10
 623 635 623 635 583 686 c 128,-1,11
 543 737 543 737 543 813 c 0,12,13
 543 838 543 838 546.5 870 c 128,-1,14
 550 902 550 902 557 940 c 2,15,-1
 604 1183 l 2,16,17
 610 1217 610 1217 612 1242 c 128,-1,18
 614 1267 614 1267 614 1292 c 0,19,20
 614 1356 614 1356 571.5 1384.5 c 128,-1,21
 529 1413 529 1413 432 1413 c 2,22,-1
 354 1413 l 1,23,-1
 381 1556 l 1,24,-1
 455 1556 l 2,25,26
 642 1556 642 1556 723.5 1502 c 128,-1,27
 805 1448 805 1448 805 1325 c 0,28,29
 805 1294 805 1294 801.5 1260 c 128,-1,30
 798 1226 798 1226 790 1187 c 2,31,-1
 745 952 l 2,32,33
 745 949 745 949 743 940 c 0,34,35
 733 891 733 891 733 846 c 0,36,37
 733 760 733 760 782 723 c 128,-1,38
 831 686 831 686 944 686 c 2,39,-1
 1006 686 l 1,40,-1
 977 539 l 1,41,-1
 915 539 l 2,42,43
 771 539 771 539 708 484 c 128,-1,44
 645 429 645 429 616 279 c 2,45,-1
 563 35 l 2,46,47
 537 -91 537 -91 502 -161.5 c 128,-1,48
 467 -232 467 -232 414 -270 c 0,49,50
 367 -304 367 -304 298 -319 c 128,-1,51
 229 -334 229 -334 96 -334 c 2,52,-1
 14 -334 l 1,0,-1
EndSplineSet
Colour: aaaa88
EndChar
StartChar: asciitilde
Encoding: 126 126 97
Width: 1716
Flags: W
Fore
1499 817 m 1,0,-1
 1499 639 l 1,1,2
 1394 560 1394 560 1304.5 526 c 128,-1,3
 1215 492 1215 492 1118 492 c 0,4,5
 1008 492 1008 492 862 551 c 0,6,7
 851 555 851 555 846 557 c 0,8,9
 839 560 839 560 824 565 c 0,10,11
 669 627 669 627 575 627 c 0,12,13
 487 627 487 627 401 588.5 c 128,-1,14
 315 550 315 550 217 467 c 1,15,-1
 217 645 l 1,16,17
 322 724 322 724 411.5 758.5 c 128,-1,18
 501 793 501 793 598 793 c 0,19,20
 708 793 708 793 855 733 c 0,21,22
 865 729 865 729 870 727 c 0,23,24
 878 724 878 724 892 719 c 0,25,26
 1047 657 1047 657 1141 657 c 0,27,28
 1227 657 1227 657 1311.5 695 c 128,-1,29
 1396 733 1396 733 1499 817 c 1,0,-1
EndSplineSet
Colour: aaaa88
EndChar
StartChar: Aring
Encoding: 197 197 99
Width: 1401
Flags: W
Fore
1020 1626 m 256,0,1
 1020 1689 1020 1689 975.5 1733.5 c 128,-1,2
 931 1778 931 1778 868 1778 c 0,3,4
 804 1778 804 1778 760.5 1734.5 c 128,-1,5
 717 1691 717 1691 717 1626 c 0,6,7
 717 1563 717 1563 760.5 1519 c 128,-1,8
 804 1475 804 1475 868 1475 c 0,9,10
 931 1475 931 1475 975.5 1519 c 128,-1,11
 1020 1563 1020 1563 1020 1626 c 256,0,1
705 1407 m 1,12,13
 651 1444 651 1444 622.5 1500.5 c 128,-1,14
 594 1557 594 1557 594 1626 c 0,15,16
 594 1740 594 1740 674 1820.5 c 128,-1,17
 754 1901 754 1901 868 1901 c 256,18,19
 982 1901 982 1901 1062.5 1820.5 c 128,-1,20
 1143 1740 1143 1740 1143 1626 c 0,21,22
 1143 1547 1143 1547 1106.5 1486 c 128,-1,23
 1070 1425 1070 1425 1001 1389 c 1,24,-1
 1260 0 l 1,25,-1
 1049 0 l 1,26,-1
 987 383 l 1,27,-1
 315 383 l 1,28,-1
 104 0 l 1,29,-1
 -109 0 l 1,30,-1
 705 1407 l 1,12,13
827 1294 m 1,31,-1
 408 551 l 1,32,-1
 956 551 l 1,33,-1
 827 1294 l 1,31,-1
EndSplineSet
Colour: aaaa88
EndChar
StartChar: dagger
Encoding: 8224 8224 130
Width: 1024
Flags: W
Fore
565 1493 m 1,0,-1
 739 1493 l 1,1,-1
 659 1073 l 1,2,-1
 1026 1073 l 1,3,-1
 995 920 l 1,4,-1
 629 920 l 1,5,-1
 412 -197 l 1,6,-1
 236 -197 l 1,7,-1
 453 920 l 1,8,-1
 86 920 l 1,9,-1
 115 1073 l 1,10,-1
 483 1073 l 1,11,-1
 565 1493 l 1,0,-1
EndSplineSet
Colour: aaaa88
EndChar
StartChar: degree
Encoding: 176 176 131
Width: 1024
Flags: W
Fore
512 1391 m 0,0,1
 432 1391 432 1391 377 1335.5 c 128,-1,2
 322 1280 322 1280 322 1200 c 0,3,4
 322 1121 322 1121 377 1066.5 c 128,-1,5
 432 1012 432 1012 512 1012 c 256,6,7
 592 1012 592 1012 647 1066.5 c 128,-1,8
 702 1121 702 1121 702 1200 c 256,9,10
 702 1279 702 1279 646.5 1335 c 128,-1,11
 591 1391 591 1391 512 1391 c 0,0,1
512 1520 m 0,12,13
 576 1520 576 1520 635 1495.5 c 128,-1,14
 694 1471 694 1471 737 1425 c 0,15,16
 783 1380 783 1380 806 1323 c 128,-1,17
 829 1266 829 1266 829 1200 c 0,18,19
 829 1068 829 1068 736.5 976.5 c 128,-1,20
 644 885 644 885 510 885 c 0,21,22
 375 885 375 885 285 975 c 128,-1,23
 195 1065 195 1065 195 1200 c 0,24,25
 195 1334 195 1334 287 1427 c 128,-1,26
 379 1520 379 1520 512 1520 c 0,12,13
EndSplineSet
Colour: aaaa88
EndChar
StartChar: cent
Encoding: 162 162 132
Width: 1303
Flags: W
Fore
758 985 m 1,0,1
 580 962 580 962 460 801.5 c 128,-1,2
 340 641 340 641 340 426 c 0,3,4
 340 292 340 292 401 218.5 c 128,-1,5
 462 145 462 145 590 125 c 1,6,-1
 758 985 l 1,0,1
889 1145 m 1,7,8
 962 1138 962 1138 1026.5 1121.5 c 128,-1,9
 1091 1105 1091 1105 1153 1077 c 1,10,-1
 1118 895 l 1,11,12
 1071 932 1071 932 1009 954.5 c 128,-1,13
 947 977 947 977 858 989 c 1,14,-1
 690 127 l 1,15,16
 756 132 756 132 830 154.5 c 128,-1,17
 904 177 904 177 987 219 c 1,18,-1
 952 37 l 1,19,20
 887 9 887 9 814 -7.5 c 128,-1,21
 741 -24 741 -24 664 -29 c 1,22,-1
 604 -313 l 1,23,-1
 504 -313 l 1,24,-1
 563 -29 l 1,25,26
 366 -16 366 -16 259 95.5 c 128,-1,27
 152 207 152 207 152 401 c 0,28,29
 152 707 152 707 329 914.5 c 128,-1,30
 506 1122 506 1122 788 1145 c 1,31,-1
 844 1430 l 1,32,-1
 944 1430 l 1,33,-1
 889 1145 l 1,7,8
EndSplineSet
Colour: aaaa88
EndChar
StartChar: sterling
Encoding: 163 163 133
Width: 1303
Flags: W
Fore
1305 1460 m 1,0,-1
 1270 1278 l 1,1,2
 1209 1318 1209 1318 1143.5 1339 c 128,-1,3
 1078 1360 1078 1360 1014 1360 c 0,4,5
 867 1360 867 1360 793 1280.5 c 128,-1,6
 719 1201 719 1201 678 993 c 2,7,-1
 637 778 l 1,8,-1
 1028 778 l 1,9,-1
 999 635 l 1,10,-1
 608 635 l 1,11,-1
 518 170 l 1,12,-1
 1055 170 l 1,13,-1
 1022 0 l 1,14,-1
 49 0 l 1,15,-1
 82 170 l 1,16,-1
 317 170 l 1,17,-1
 408 635 l 1,18,-1
 209 635 l 1,19,-1
 238 778 l 1,20,-1
 436 778 l 1,21,-1
 481 1016 l 2,22,23
 533 1278 533 1278 663.5 1399 c 128,-1,24
 794 1520 794 1520 1026 1520 c 0,25,26
 1096 1520 1096 1520 1166 1505 c 128,-1,27
 1236 1490 1236 1490 1305 1460 c 1,0,-1
EndSplineSet
Colour: aaaa88
EndChar
StartChar: section
Encoding: 167 167 134
Width: 1024
Flags: W
Fore
602 410 m 1,0,1
 684 459 684 459 727 514.5 c 128,-1,2
 770 570 770 570 770 627 c 0,3,4
 770 681 770 681 716.5 737.5 c 128,-1,5
 663 794 663 794 520 885 c 2,6,-1
 440 936 l 1,7,8
 359 885 359 885 316.5 829 c 128,-1,9
 274 773 274 773 274 717 c 0,10,11
 274 667 274 667 316.5 618.5 c 128,-1,12
 359 570 359 570 485 487 c 2,13,-1
 602 410 l 1,0,1
993 1462 m 1,14,-1
 961 1298 l 1,15,16
 889 1337 889 1337 820.5 1356.5 c 128,-1,17
 752 1376 752 1376 694 1376 c 0,18,19
 591 1376 591 1376 525 1327.5 c 128,-1,20
 459 1279 459 1279 459 1206 c 0,21,22
 459 1127 459 1127 594 1037 c 0,23,24
 624 1017 624 1017 641 1006 c 2,25,-1
 729 946 l 2,26,27
 851 861 851 861 893.5 802.5 c 128,-1,28
 936 744 936 744 936 674 c 0,29,30
 936 573 936 573 870 483 c 128,-1,31
 804 393 804 393 690 340 c 1,32,33
 731 305 731 305 751.5 260 c 128,-1,34
 772 215 772 215 772 160 c 0,35,36
 772 3 772 3 650.5 -96 c 128,-1,37
 529 -195 529 -195 330 -195 c 0,38,39
 261 -195 261 -195 184 -180.5 c 128,-1,40
 107 -166 107 -166 25 -137 c 1,41,-1
 57 27 l 1,42,43
 133 -11 133 -11 205 -31 c 128,-1,44
 277 -51 277 -51 336 -51 c 0,45,46
 448 -51 448 -51 515 -3.5 c 128,-1,47
 582 44 582 44 582 123 c 0,48,49
 582 221 582 221 402 342 c 2,50,-1
 387 352 l 1,51,-1
 311 403 l 2,52,53
 188 487 188 487 147 543.5 c 128,-1,54
 106 600 106 600 106 674 c 0,55,56
 106 770 106 770 170 856.5 c 128,-1,57
 234 943 234 943 352 1006 c 1,58,59
 309 1044 309 1044 289.5 1084.5 c 128,-1,60
 270 1125 270 1125 270 1176 c 0,61,62
 270 1323 270 1323 391.5 1421.5 c 128,-1,63
 513 1520 513 1520 700 1520 c 0,64,65
 771 1520 771 1520 843.5 1505.5 c 128,-1,66
 916 1491 916 1491 993 1462 c 1,14,-1
EndSplineSet
Colour: aaaa88
EndChar
StartChar: bullet
Encoding: 8226 8226 135
Width: 1208
Flags: W
Fore
307 762 m 256,0,1
 307 885 307 885 394 971 c 128,-1,2
 481 1057 481 1057 604 1057 c 0,3,4
 726 1057 726 1057 812.5 970.5 c 128,-1,5
 899 884 899 884 899 762 c 256,6,7
 899 640 899 640 811.5 552.5 c 128,-1,8
 724 465 724 465 602 465 c 0,9,10
 479 465 479 465 393 552 c 128,-1,11
 307 639 307 639 307 762 c 256,0,1
EndSplineSet
Colour: aaaa88
EndChar
StartChar: paragraph
Encoding: 182 182 136
Width: 1303
Flags: W
Fore
768 1493 m 2,0,-1
 1174 1493 l 1,1,-1
 846 -197 l 1,2,-1
 707 -197 l 1,3,-1
 1012 1370 l 1,4,-1
 821 1370 l 1,5,-1
 516 -197 l 1,6,-1
 375 -197 l 1,7,-1
 539 649 l 1,8,9
 361 655 361 655 260.5 749 c 128,-1,10
 160 843 160 843 160 1001 c 0,11,12
 160 1212 160 1212 332 1352.5 c 128,-1,13
 504 1493 504 1493 768 1493 c 2,0,-1
EndSplineSet
Colour: aaaa88
EndChar
StartChar: germandbls
Encoding: 223 223 137
Width: 1290
Flags: W
Fore
317 1137 m 2,0,1
 355 1334 355 1334 487.5 1445 c 128,-1,2
 620 1556 620 1556 817 1556 c 0,3,4
 991 1556 991 1556 1099.5 1463 c 128,-1,5
 1208 1370 1208 1370 1208 1223 c 0,6,7
 1208 1198 1208 1198 1205 1167.5 c 128,-1,8
 1202 1137 1202 1137 1196 1100 c 1,9,10
 1034 1092 1034 1092 934 1024.5 c 128,-1,11
 834 957 834 957 834 860 c 0,12,13
 834 820 834 820 855 784 c 128,-1,14
 876 748 876 748 924 711 c 2,15,-1
 973 672 l 2,16,17
 1092 578 1092 578 1133 512.5 c 128,-1,18
 1174 447 1174 447 1174 367 c 0,19,20
 1174 195 1174 195 1035 83 c 128,-1,21
 896 -29 896 -29 678 -29 c 0,22,23
 602 -29 602 -29 532 -16.5 c 128,-1,24
 462 -4 462 -4 399 20 c 1,25,-1
 430 184 l 1,26,27
 495 155 495 155 564.5 140 c 128,-1,28
 634 125 634 125 705 125 c 0,29,30
 829 125 829 125 906 182 c 128,-1,31
 983 239 983 239 983 330 c 0,32,33
 983 375 983 375 959.5 414 c 128,-1,34
 936 453 936 453 858 520 c 2,35,-1
 807 563 l 2,36,37
 710 645 710 645 676.5 700.5 c 128,-1,38
 643 756 643 756 643 823 c 0,39,40
 643 949 643 949 749 1050 c 128,-1,41
 855 1151 855 1151 1028 1188 c 1,42,43
 1030 1196 1030 1196 1031 1206 c 128,-1,44
 1032 1216 1032 1216 1032 1235 c 0,45,46
 1032 1313 1032 1313 975.5 1358 c 128,-1,47
 919 1403 919 1403 819 1403 c 0,48,49
 686 1403 686 1403 606 1335 c 128,-1,50
 526 1267 526 1267 500 1133 c 2,51,-1
 281 0 l 1,52,-1
 96 0 l 1,53,-1
 317 1137 l 2,0,1
EndSplineSet
Colour: aaaa88
EndChar
StartChar: registered
Encoding: 174 174 138
Width: 2048
Flags: W
Fore
1024 1382 m 0,0,1
 893 1382 893 1382 780 1335 c 128,-1,2
 667 1288 667 1288 573 1194 c 256,3,4
 479 1100 479 1100 431 985.5 c 128,-1,5
 383 871 383 871 383 741 c 0,6,7
 383 612 383 612 431 498.5 c 128,-1,8
 479 385 479 385 573 291 c 256,9,10
 667 197 667 197 780 149.5 c 128,-1,11
 893 102 893 102 1024 102 c 0,12,13
 1156 102 1156 102 1269.5 149.5 c 128,-1,14
 1383 197 1383 197 1477 291 c 0,15,16
 1570 384 1570 384 1616.5 497 c 128,-1,17
 1663 610 1663 610 1663 741 c 0,18,19
 1663 874 1663 874 1616 987.5 c 128,-1,20
 1569 1101 1569 1101 1477 1194 c 0,21,22
 1383 1288 1383 1288 1269.5 1335 c 128,-1,23
 1156 1382 1156 1382 1024 1382 c 0,0,1
1024 1485 m 256,24,25
 1176 1485 1176 1485 1307.5 1430 c 128,-1,26
 1439 1375 1439 1375 1548 1266 c 256,27,28
 1657 1157 1657 1157 1711 1026 c 128,-1,29
 1765 895 1765 895 1765 741 c 0,30,31
 1765 589 1765 589 1711 458.5 c 128,-1,32
 1657 328 1657 328 1548 219 c 256,33,34
 1439 110 1439 110 1307.5 55 c 128,-1,35
 1176 0 1176 0 1024 0 c 256,36,37
 872 0 872 0 740.5 55 c 128,-1,38
 609 110 609 110 500 219 c 256,39,40
 391 328 391 328 337 458.5 c 128,-1,41
 283 589 283 589 283 741 c 0,42,43
 283 895 283 895 337 1026 c 128,-1,44
 391 1157 391 1157 500 1266 c 256,45,46
 609 1375 609 1375 740.5 1430 c 128,-1,47
 872 1485 872 1485 1024 1485 c 256,24,25
997 1071 m 2,48,-1
 874 1071 l 1,49,-1
 874 795 l 1,50,-1
 997 795 l 2,51,52
 1107 795 1107 795 1150.5 826 c 128,-1,53
 1194 857 1194 857 1194 932 c 0,54,55
 1194 1008 1194 1008 1150 1039.5 c 128,-1,56
 1106 1071 1106 1071 997 1071 c 2,48,-1
1004 1174 m 2,57,58
 1180 1174 1180 1174 1267 1114.5 c 128,-1,59
 1354 1055 1354 1055 1354 934 c 0,60,61
 1354 848 1354 848 1301.5 792 c 128,-1,62
 1249 736 1249 736 1153 719 c 1,63,64
 1177 711 1177 711 1210.5 672.5 c 128,-1,65
 1244 634 1244 634 1290 561 c 2,66,-1
 1427 338 l 1,67,-1
 1255 338 l 1,68,-1
 1126 547 l 2,69,70
 1067 643 1067 643 1030.5 668.5 c 128,-1,71
 994 694 994 694 940 694 c 2,72,-1
 874 694 l 1,73,-1
 874 338 l 1,74,-1
 719 338 l 1,75,-1
 719 1174 l 1,76,-1
 1004 1174 l 2,57,58
EndSplineSet
Colour: aaaa88
EndChar
StartChar: copyright
Encoding: 169 169 139
Width: 2048
Flags: W
Fore
1024 1485 m 256,0,1
 1176 1485 1176 1485 1307.5 1430 c 128,-1,2
 1439 1375 1439 1375 1548 1266 c 256,3,4
 1657 1157 1657 1157 1711 1026 c 128,-1,5
 1765 895 1765 895 1765 741 c 0,6,7
 1765 589 1765 589 1711 458.5 c 128,-1,8
 1657 328 1657 328 1548 219 c 256,9,10
 1439 110 1439 110 1307.5 55 c 128,-1,11
 1176 0 1176 0 1024 0 c 256,12,13
 872 0 872 0 740.5 55 c 128,-1,14
 609 110 609 110 500 219 c 256,15,16
 391 328 391 328 337 458.5 c 128,-1,17
 283 589 283 589 283 741 c 0,18,19
 283 895 283 895 337 1026 c 128,-1,20
 391 1157 391 1157 500 1266 c 256,21,22
 609 1375 609 1375 740.5 1430 c 128,-1,23
 872 1485 872 1485 1024 1485 c 256,0,1
1024 1382 m 0,24,25
 893 1382 893 1382 780 1335 c 128,-1,26
 667 1288 667 1288 573 1194 c 256,27,28
 479 1100 479 1100 431 985.5 c 128,-1,29
 383 871 383 871 383 741 c 0,30,31
 383 612 383 612 431 498.5 c 128,-1,32
 479 385 479 385 573 291 c 256,33,34
 667 197 667 197 780 149.5 c 128,-1,35
 893 102 893 102 1024 102 c 0,36,37
 1156 102 1156 102 1269.5 149.5 c 128,-1,38
 1383 197 1383 197 1477 291 c 0,39,40
 1570 384 1570 384 1616.5 497 c 128,-1,41
 1663 610 1663 610 1663 741 c 0,42,43
 1663 874 1663 874 1616 987.5 c 128,-1,44
 1569 1101 1569 1101 1477 1194 c 0,45,46
 1383 1288 1383 1288 1269.5 1335 c 128,-1,47
 1156 1382 1156 1382 1024 1382 c 0,24,25
1323 1137 m 1,48,-1
 1323 1008 l 1,49,50
 1257 1041 1257 1041 1192 1057 c 128,-1,51
 1127 1073 1127 1073 1061 1073 c 0,52,53
 912 1073 912 1073 828.5 985.5 c 128,-1,54
 745 898 745 898 745 741 c 0,55,56
 745 582 745 582 830.5 495 c 128,-1,57
 916 408 916 408 1071 408 c 0,58,59
 1135 408 1135 408 1196 423.5 c 128,-1,60
 1257 439 1257 439 1323 473 c 1,61,-1
 1323 346 l 1,62,63
 1256 317 1256 317 1187.5 303 c 128,-1,64
 1119 289 1119 289 1049 289 c 0,65,66
 833 289 833 289 707.5 411 c 128,-1,67
 582 533 582 533 582 741 c 0,68,69
 582 950 582 950 707.5 1071 c 128,-1,70
 833 1192 833 1192 1049 1192 c 0,71,72
 1122 1192 1122 1192 1190 1178 c 128,-1,73
 1258 1164 1258 1164 1323 1137 c 1,48,-1
EndSplineSet
Colour: aaaa88
EndChar
StartChar: trademark
Encoding: 8482 8482 140
Width: 2048
Flags: W
Fore
1098 1493 m 1,0,-1
 1272 1237 l 1,1,-1
 1436 1493 l 1,2,-1
 1606 1493 l 1,3,-1
 1606 915 l 1,4,-1
 1493 915 l 1,5,-1
 1493 1399 l 1,6,-1
 1298 1096 l 1,7,-1
 1243 1096 l 1,8,-1
 1040 1399 l 1,9,-1
 1040 915 l 1,10,-1
 926 915 l 1,11,-1
 926 1493 l 1,12,-1
 1098 1493 l 1,0,-1
813 1493 m 1,13,-1
 813 1399 l 1,14,-1
 610 1399 l 1,15,-1
 610 915 l 1,16,-1
 496 915 l 1,17,-1
 496 1399 l 1,18,-1
 295 1399 l 1,19,-1
 295 1493 l 1,20,-1
 813 1493 l 1,13,-1
EndSplineSet
Colour: aaaa88
EndChar
StartChar: acute
Encoding: 180 180 141
Width: 1024
Flags: W
Fore
870 1638 m 1,0,-1
 1069 1638 l 1,1,-1
 670 1262 l 1,2,-1
 516 1262 l 1,3,-1
 870 1638 l 1,0,-1
EndSplineSet
Colour: aaaa88
EndChar
StartChar: dieresis
Encoding: 168 168 142
Width: 1024
Flags: W
Fore
416 1552 m 1,0,-1
 621 1552 l 1,1,-1
 580 1350 l 1,2,-1
 377 1350 l 1,3,-1
 416 1552 l 1,0,-1
807 1552 m 1,4,-1
 1010 1552 l 1,5,-1
 971 1350 l 1,6,-1
 768 1350 l 1,7,-1
 807 1552 l 1,4,-1
EndSplineSet
Colour: aaaa88
EndChar
StartChar: notequal
Encoding: 8800 8800 143
Width: 1716
Flags: W
Fore
217 930 m 1,0,-1
 989 930 l 1,1,-1
 1245 1245 l 1,2,-1
 1370 1143 l 1,3,-1
 1196 930 l 1,4,-1
 1499 930 l 1,5,-1
 1499 762 l 1,6,-1
 1059 762 l 1,7,-1
 864 522 l 1,8,-1
 1499 522 l 1,9,-1
 1499 352 l 1,10,-1
 725 352 l 1,11,-1
 467 39 l 1,12,-1
 342 141 l 1,13,-1
 516 352 l 1,14,-1
 217 352 l 1,15,-1
 217 522 l 1,16,-1
 655 522 l 1,17,-1
 850 762 l 1,18,-1
 217 762 l 1,19,-1
 217 930 l 1,0,-1
EndSplineSet
Colour: aaaa88
EndChar
StartChar: AE
Encoding: 198 198 144
Width: 1995
Flags: W
HStem: 0 170<801 1763> 383 168<348 907> 711 170<1141 1853> 1335 158<823 1061>
AnchorPoint: "Bottom" 994 0 basechar 0
AnchorPoint: "TopCap" 1284 1493 basechar 0
Fore
932 1335 m 1,0,-1
 449 551 l 1,1,-1
 907 551 l 1,2,-1
 1061 1335 l 1,3,-1
 932 1335 l 1,0,-1
2036 1493 m 1,4,-1
 2003 1323 l 1,5,-1
 1262 1323 l 1,6,-1
 1174 881 l 1,7,-1
 1886 881 l 1,8,-1
 1853 711 l 1,9,-1
 1141 711 l 1,10,-1
 1036 170 l 1,11,-1
 1796 170 l 1,12,-1
 1763 0 l 1,13,-1
 801 0 l 1,14,-1
 874 383 l 1,15,-1
 348 383 l 1,16,-1
 113 0 l 1,17,-1
 -92 0 l 1,18,-1
 823 1493 l 1,19,-1
 2036 1493 l 1,4,-1
EndSplineSet
Colour: aaaa88
EndChar
StartChar: Oslash
Encoding: 216 216 145
Width: 1612
Flags: W
Fore
1223 1235 m 1,0,1
 1178 1295 1178 1295 1105 1325.5 c 128,-1,2
 1032 1356 1032 1356 934 1356 c 0,3,4
 769 1356 769 1356 641.5 1275 c 128,-1,5
 514 1194 514 1194 422 1032 c 0,6,7
 360 923 360 923 327.5 804 c 128,-1,8
 295 685 295 685 295 571 c 0,9,10
 295 526 295 526 301 482.5 c 128,-1,11
 307 439 307 439 319 395 c 1,12,-1
 1223 1235 l 1,0,1
1288 1116 m 1,13,-1
 381 270 l 1,14,15
 432 202 432 202 505.5 168.5 c 128,-1,16
 579 135 579 135 678 135 c 0,17,18
 842 135 842 135 970.5 216.5 c 128,-1,19
 1099 298 1099 298 1190 459 c 0,20,21
 1252 571 1252 571 1283.5 688.5 c 128,-1,22
 1315 806 1315 806 1315 928 c 0,23,24
 1315 984 1315 984 1308.5 1030.5 c 128,-1,25
 1302 1077 1302 1077 1288 1116 c 1,13,-1
160 246 m 1,26,27
 121 326 121 326 101.5 408 c 128,-1,28
 82 490 82 490 82 575 c 0,29,30
 82 741 82 741 143 909 c 128,-1,31
 204 1077 204 1077 313 1212 c 0,32,33
 438 1366 438 1366 594.5 1443 c 128,-1,34
 751 1520 751 1520 940 1520 c 0,35,36
 1070 1520 1070 1520 1175 1481.5 c 128,-1,37
 1280 1443 1280 1443 1364 1366 c 1,38,-1
 1567 1559 l 1,39,-1
 1657 1460 l 1,40,-1
 1448 1262 l 1,41,42
 1488 1189 1488 1189 1508 1104.5 c 128,-1,43
 1528 1020 1528 1020 1528 922 c 0,44,45
 1528 745 1528 745 1469 579.5 c 128,-1,46
 1410 414 1410 414 1298 279 c 0,47,48
 1170 123 1170 123 1015.5 47 c 128,-1,49
 861 -29 861 -29 672 -29 c 0,50,51
 533 -29 533 -29 424.5 13 c 128,-1,52
 316 55 316 55 240 137 c 1,53,-1
 20 -66 l 1,54,-1
 -70 33 l 1,55,-1
 160 246 l 1,26,27
EndSplineSet
Colour: aaaa88
EndChar
StartChar: infinity
Encoding: 8734 8734 146
Width: 2056
Flags: W
HStem: 139 173<1399 1582> 969 174<1391 1580>
VStem: 115 146<529 754> 1795 146<530 755>
Fore
1143 295 m 12,0,1
 1098 343 1098 343 1028 453 c 5,2,3
 931 296 931 296 846 227 c 4,4,5
 739 142 739 142 573 142 c 20,6,7
 378 142 378 142 250 274 c 4,8,9
 115 414 115 414 115 643 c 28,10,11
 115 864 115 864 250 1013 c 4,12,13
 372 1145 372 1145 576 1145 c 4,14,15
 682 1145 682 1145 760 1107 c 4,16,17
 850 1064 850 1064 913 989 c 12,18,19
 970 922 970 922 1028 831 c 5,20,21
 1125 988 1125 988 1210 1057 c 4,22,23
 1317 1142 1317 1142 1483 1142 c 20,24,25
 1678 1142 1678 1142 1806 1010 c 4,26,27
 1941 870 1941 870 1941 641 c 28,28,29
 1941 420 1941 420 1806 271 c 4,30,31
 1684 139 1684 139 1480 139 c 4,32,33
 1374 139 1374 139 1296 177 c 4,34,35
 1218 214 1218 214 1143 295 c 12,0,1
558 315 m 4,35,36
 795 315 795 315 939 629 c 5,37,38
 755 972 755 972 558 972 c 4,39,40
 413 972 413 972 340 879 c 4,41,42
 261 777 261 777 261 643 c 28,43,44
 261 496 261 496 340 406 c 4,45,46
 420 315 420 315 558 315 c 4,35,36
1498 969 m 4,47,48
 1284 969 1284 969 1117 655 c 5,49,50
 1300 312 1300 312 1498 312 c 4,51,52
 1643 312 1643 312 1716 405 c 4,53,54
 1795 507 1795 507 1795 641 c 28,55,56
 1795 788 1795 788 1716 878 c 4,57,58
 1636 969 1636 969 1498 969 c 4,47,48
EndSplineSet
Colour: aaaa88
EndChar
StartChar: plusminus
Encoding: 177 177 147
Width: 1716
Flags: W
Fore
942 1284 m 1,0,-1
 942 897 l 1,1,-1
 1499 897 l 1,2,-1
 1499 727 l 1,3,-1
 942 727 l 1,4,-1
 942 340 l 1,5,-1
 774 340 l 1,6,-1
 774 727 l 1,7,-1
 217 727 l 1,8,-1
 217 897 l 1,9,-1
 774 897 l 1,10,-1
 774 1284 l 1,11,-1
 942 1284 l 1,0,-1
217 170 m 1,12,-1
 1499 170 l 1,13,-1
 1499 0 l 1,14,-1
 217 0 l 1,15,-1
 217 170 l 1,12,-1
EndSplineSet
Colour: aaaa88
EndChar
StartChar: lessequal
Encoding: 8804 8804 148
Width: 1716
Flags: W
Fore
1499 1016 m 1,0,-1
 539 739 l 1,1,-1
 1499 465 l 1,2,-1
 1499 287 l 1,3,-1
 217 655 l 1,4,-1
 217 825 l 1,5,-1
 1499 1192 l 1,6,-1
 1499 1016 l 1,0,-1
217 170 m 1,7,-1
 1499 170 l 1,8,-1
 1499 0 l 1,9,-1
 217 0 l 1,10,-1
 217 170 l 1,7,-1
EndSplineSet
Colour: aaaa88
EndChar
StartChar: greaterequal
Encoding: 8805 8805 149
Width: 1716
Flags: W
Fore
217 1016 m 1,0,-1
 217 1192 l 1,1,-1
 1499 825 l 1,2,-1
 1499 655 l 1,3,-1
 217 287 l 1,4,-1
 217 465 l 1,5,-1
 1178 739 l 1,6,-1
 217 1016 l 1,0,-1
1499 170 m 1,7,-1
 1499 0 l 1,8,-1
 217 0 l 1,9,-1
 217 170 l 1,10,-1
 1499 170 l 1,7,-1
EndSplineSet
Colour: aaaa88
EndChar
StartChar: yen
Encoding: 165 165 150
Width: 1303
Flags: W
Fore
1122 455 m 1,0,-1
 711 455 l 1,1,-1
 623 0 l 1,2,-1
 420 0 l 1,3,-1
 508 455 l 1,4,-1
 92 455 l 1,5,-1
 115 578 l 1,6,-1
 532 578 l 1,7,-1
 543 629 l 1,8,-1
 489 784 l 1,9,-1
 156 784 l 1,10,-1
 180 907 l 1,11,-1
 446 907 l 1,12,-1
 242 1493 l 1,13,-1
 432 1493 l 1,14,-1
 672 793 l 1,15,-1
 1184 1493 l 1,16,-1
 1378 1493 l 1,17,-1
 948 907 l 1,18,-1
 1210 907 l 1,19,-1
 1186 784 l 1,20,-1
 858 784 l 1,21,-1
 745 629 l 1,22,-1
 735 578 l 1,23,-1
 1145 578 l 1,24,-1
 1122 455 l 1,0,-1
EndSplineSet
Colour: aaaa88
EndChar
StartChar: mu
Encoding: 181 181 151
Width: 1303
Flags: W
Fore
-27 -426 m 1,0,-1
 274 1120 l 1,1,-1
 459 1120 l 1,2,-1
 323 423 l 2,3,4
 319 402 319 402 316 376 c 128,-1,5
 313 350 313 350 313 324 c 0,6,7
 313 231 313 231 371.5 181 c 128,-1,8
 430 131 430 131 539 131 c 0,9,10
 687 131 687 131 778 215 c 128,-1,11
 869 299 869 299 901 467 c 2,12,-1
 1028 1120 l 1,13,-1
 1212 1120 l 1,14,-1
 1045 259 l 2,15,16
 1041 240 1041 240 1039.5 226 c 128,-1,17
 1038 212 1038 212 1038 201 c 0,18,19
 1038 170 1038 170 1050.5 155.5 c 128,-1,20
 1063 141 1063 141 1090 141 c 0,21,22
 1100 141 1100 141 1117.5 146 c 128,-1,23
 1135 151 1135 151 1167 164 c 1,24,-1
 1139 16 l 1,25,26
 1095 -6 1095 -6 1055 -17.5 c 128,-1,27
 1015 -29 1015 -29 977 -29 c 0,28,29
 911 -29 911 -29 873.5 13 c 128,-1,30
 836 55 836 55 836 129 c 1,31,32
 780 49 780 49 702.5 10 c 128,-1,33
 625 -29 625 -29 520 -29 c 0,34,35
 427 -29 427 -29 357.5 14 c 128,-1,36
 288 57 288 57 266 127 c 1,37,-1
 158 -426 l 1,38,-1
 -27 -426 l 1,0,-1
EndSplineSet
Colour: aaaa88
EndChar
StartChar: partialdiff
Encoding: 8706 8706 152
Width: 1109
Flags: W
HStem: -29 128<391.5 536> 694 136<404 594> 1201 155<479.5 688>
VStem: 120 171<249 435> 806 183<765 907.295>
Fore
462 -29 m 0,0,1
 321 -29 321 -29 229 56 c 0,2,3
 120 157 120 157 120 340 c 0,4,5
 120 530 120 530 216 678 c 0,6,7
 315 830 315 830 493 830 c 0,8,9
 610 830 610 830 702 757 c 0,10,11
 756 714 756 714 793 642 c 1,12,13
 806 723 806 723 806 815 c 0,14,15
 806 950 806 950 774 1028 c 0,16,17
 703 1201 703 1201 515 1201 c 0,18,19
 444 1201 444 1201 334 1157 c 1,20,-1
 334 1325 l 9,21,22
 450 1356 450 1356 554 1356 c 0,23,24
 822 1356 822 1356 936 1110 c 0,25,26
 989 994 989 994 989 821 c 0,27,28
 989 708 989 708 964 577 c 0,29,30
 901 249 901 249 738 93 c 0,31,32
 610 -29 610 -29 462 -29 c 0,0,1
291 310 m 0,33,34
 292 209 292 209 335 156 c 0,35,36
 382 99 382 99 454 99 c 0,37,38
 518 99 518 99 569 144 c 0,39,40
 641 206 641 206 694 307 c 0,41,42
 738 390 738 390 760 479 c 1,43,44
 671 694 671 694 517 694 c 0,45,46
 388 694 388 694 327 520 c 0,47,48
 290 413 290 413 291 310 c 0,33,34
EndSplineSet
Colour: aaaa88
EndChar
StartChar: summation
Encoding: 8721 8721 153
Width: 1380
Flags: W
Fore
55 1473 m 1,0,-1
 1313 1473 l 1,1,-1
 1313 1280 l 1,2,-1
 354 1280 l 1,3,-1
 1026 563 l 1,4,-1
 332 -201 l 1,5,-1
 1339 -201 l 1,6,-1
 1339 -393 l 1,7,-1
 25 -393 l 1,8,-1
 25 -244 l 1,9,-1
 750 557 l 1,10,-1
 55 1296 l 1,11,-1
 55 1473 l 1,0,-1
EndSplineSet
Colour: aaaa88
EndChar
StartChar: product
Encoding: 8719 8719 154
Width: 1550
Flags: W
Fore
156 1473 m 1,0,-1
 1393 1473 l 1,1,-1
 1393 -393 l 1,2,-1
 1153 -393 l 1,3,-1
 1153 1268 l 1,4,-1
 395 1268 l 1,5,-1
 395 -393 l 1,6,-1
 156 -393 l 1,7,-1
 156 1473 l 1,0,-1
EndSplineSet
Colour: aaaa88
EndChar
StartChar: pi
Encoding: 960 960 155
Width: 1288
Flags: W
HStem: -16 147<1062 1100> 962 158<420 453 453 945 453 1311>
VStem: 815 182<193 238>
AnchorPoint: "Bottom" 593 0 basechar 0
AnchorPoint: "Top" 811 1120 basechar 0
Fore
1311 962 m 1,0,-1
 1129 962 l 1,1,-1
 1025 426 l 2,2,3
 1008 337 1008 337 1004 306 c 0,4,5
 997 264 997 264 997 241 c 0,0,0
 997 240 997 240 997 238 c 0,6,7
 998 180 998 180 1021 156 c 0,8,9
 1045 131 1045 131 1100 131 c 0,10,11
 1117 131 1117 131 1140 134 c 0,12,13
 1163 136 1163 136 1200 141 c 1,14,-1
 1172 0 l 1,15,16
 1143 -8 1143 -8 1115 -12 c 0,17,18
 1088 -16 1088 -16 1062 -16 c 0,19,20
 940 -16 940 -16 878 35 c 0,21,22
 817 86 817 86 815 186 c 0,23,24
 815 189 815 189 815 193 c 0,0,0
 815 234 815 234 823 304 c 0,25,26
 832 379 832 379 862 537 c 2,27,-1
 945 962 l 1,28,-1
 628 962 l 1,29,-1
 441 0 l 1,30,-1
 257 0 l 1,31,-1
 444 962 l 1,32,-1
 403 962 l 2,33,34
 348 962 348 962 320 930 c 0,35,36
 290 897 290 897 277 829 c 1,37,-1
 117 829 l 1,38,39
 150 997 150 997 218 1057 c 0,40,41
 288 1120 288 1120 453 1120 c 2,42,-1
 1342 1120 l 1,43,-1
 1311 962 l 1,0,-1
EndSplineSet
Colour: aaaa88
EndChar
StartChar: integral
Encoding: 8747 8747 156
Width: 1067
Flags: W
Fore
628 1309 m 10,11,-1
 628 -70 l 18,0,0
 628 -186 628 -186 597 -245 c 0,15,16
 558 -319 558 -319 515 -354 c 0,17,18
 427 -426 427 -426 324 -426 c 0,19,20
 200 -426 200 -426 134 -354 c 9,21,22
 210 -247 l 17,6,7
 249 -291 249 -291 306 -291 c 128,-1,8
 363 -291 363 -291 403 -247 c 0,9,10
 443 -204 443 -204 443 -139 c 2,11,-1
 443 1240 l 18,0,0
 443 1356 443 1356 474 1415 c 0,15,16
 513 1489 513 1489 556 1524 c 0,17,18
 644 1596 644 1596 747 1596 c 0,19,20
 871 1596 871 1596 937 1524 c 9,21,22
 861 1417 l 17,6,7
 822 1461 822 1461 765 1461 c 128,-1,8
 708 1461 708 1461 668 1417 c 0,9,10
 628 1374 628 1374 628 1309 c 10,11,-1
EndSplineSet
Colour: aaaa88
EndChar
StartChar: ordfeminine
Encoding: 170 170 157
Width: 965
Flags: W
Fore
594 1104 m 2,0,1
 437 1104 437 1104 366 1066.5 c 128,-1,2
 295 1029 295 1029 295 946 c 0,3,4
 295 887 295 887 333 852 c 128,-1,5
 371 817 371 817 436 817 c 0,6,7
 551 817 551 817 629.5 884.5 c 128,-1,8
 708 952 708 952 735 1075 c 2,9,-1
 741 1104 l 1,10,-1
 594 1104 l 2,0,1
903 1165 m 2,11,-1
 815 717 l 1,12,-1
 666 717 l 1,13,-1
 688 829 l 1,14,15
 630 764 630 764 553.5 731 c 128,-1,16
 477 698 477 698 381 698 c 0,17,18
 274 698 274 698 208.5 759 c 128,-1,19
 143 820 143 820 143 920 c 0,20,21
 143 1060 143 1060 258.5 1139.5 c 128,-1,22
 374 1219 374 1219 582 1219 c 2,23,-1
 764 1219 l 1,24,-1
 764 1223 l 2,25,26
 766 1242 766 1242 767 1252.5 c 128,-1,27
 768 1263 768 1263 768 1270 c 0,28,29
 768 1340 768 1340 721.5 1372.5 c 128,-1,30
 675 1405 675 1405 575 1405 c 0,31,32
 505 1405 505 1405 432.5 1388 c 128,-1,33
 360 1371 360 1371 287 1337 c 1,34,-1
 311 1464 l 1,35,36
 390 1492 390 1492 466 1506 c 128,-1,37
 542 1520 542 1520 610 1520 c 0,38,39
 760 1520 760 1520 836.5 1458 c 128,-1,40
 913 1396 913 1396 913 1276 c 0,41,42
 913 1249 913 1249 910.5 1221.5 c 128,-1,43
 908 1194 908 1194 903 1165 c 2,11,-1
104 592 m 1,44,-1
 793 592 l 1,45,-1
 770 469 l 1,46,-1
 82 469 l 1,47,-1
 104 592 l 1,44,-1
EndSplineSet
Colour: aaaa88
EndChar
StartChar: ordmasculine
Encoding: 186 186 158
Width: 965
Flags: W
Fore
788 1180 m 0,0,1
 788 1290 788 1290 738.5 1347.5 c 128,-1,2
 689 1405 689 1405 592 1405 c 0,3,4
 476 1405 476 1405 391.5 1298 c 128,-1,5
 307 1191 307 1191 307 1040 c 0,6,7
 307 931 307 931 356.5 872 c 128,-1,8
 406 813 406 813 498 813 c 0,9,10
 620 813 620 813 704 918.5 c 128,-1,11
 788 1024 788 1024 788 1180 c 0,0,1
621 1520 m 0,12,13
 769 1520 769 1520 857.5 1434 c 128,-1,14
 946 1348 946 1348 946 1204 c 0,15,16
 946 984 946 984 813 841 c 128,-1,17
 680 698 680 698 477 698 c 0,18,19
 327 698 327 698 239.5 788 c 128,-1,20
 152 878 152 878 152 1032 c 0,21,22
 152 1100 152 1100 171 1166.5 c 128,-1,23
 190 1233 190 1233 227 1296 c 0,24,25
 289 1402 289 1402 393 1461 c 128,-1,26
 497 1520 497 1520 621 1520 c 0,12,13
104 592 m 1,27,-1
 793 592 l 1,28,-1
 770 469 l 1,29,-1
 82 469 l 1,30,-1
 104 592 l 1,27,-1
EndSplineSet
Colour: aaaa88
EndChar
StartChar: Omega
Encoding: 937 937 159
Width: 1565
Flags: W
HStem: 0 178<-35 531 1055 1340> 1339 172<890 931>
VStem: 86 211<639 673> 1287 210<943 977>
AnchorPoint: "Bottom" 640 0 basechar 0
AnchorPoint: "TopCap" 930 1493 basechar 0
Fore
1375 178 m 1,0,-1
 1340 0 l 1,1,-1
 740 0 l 1,2,-1
 775 178 l 1,3,4
 971 275 971 275 1102 441 c 128,-1,5
 1233 607 1233 607 1272 809 c 0,6,7
 1287 884 1287 884 1287 949 c 0,8,9
 1287 1094 1287 1094 1215 1194 c 0,10,11
 1111 1339 1111 1339 895 1339 c 128,-1,12
 679 1339 679 1339 519 1194 c 0,13,14
 358 1048 358 1048 311 809 c 0,15,16
 297 735 297 735 297 665 c 0,17,18
 297 546 297 546 339 441 c 0,19,20
 407 275 407 275 566 178 c 1,21,-1
 531 0 l 1,22,-1
 -69 0 l 1,23,-1
 -34 178 l 1,24,-1
 285 178 l 1,25,26
 154 317 154 317 110 466 c 0,27,28
 86 548 86 548 86 641 c 0,29,30
 86 716 86 716 102 799 c 0,31,32
 164 1117 164 1117 394 1314 c 128,-1,33
 624 1511 624 1511 929 1511 c 0,34,35
 1232 1511 1232 1511 1386 1314 c 0,36,37
 1497 1173 1497 1173 1497 973 c 0,38,39
 1497 896 1497 896 1480 809 c 0,40,41
 1443 615 1443 615 1343 467 c 128,-1,42
 1243 319 1243 319 1055 178 c 1,43,-1
 1375 178 l 1,0,-1
EndSplineSet
Colour: aaaa88
EndChar
StartChar: ae
Encoding: 230 230 160
Width: 2038
Flags: W
AnchorPoint: "Bottom" 904 0 basechar 0
AnchorPoint: "Top" 1121 1120 basechar 0
Fore
1763 660 m 1,0,1
 1766 676 1766 676 1767.5 693 c 128,-1,2
 1769 710 1769 710 1769 727 c 0,3,4
 1769 849 1769 849 1698 920 c 128,-1,5
 1627 991 1627 991 1503 991 c 0,6,7
 1366 991 1366 991 1261 904.5 c 128,-1,8
 1156 818 1156 818 1102 659 c 1,9,-1
 1763 660 l 1,0,1
319 1069 m 1,10,11
 423 1108 423 1108 522.5 1127.5 c 128,-1,12
 622 1147 622 1147 715 1147 c 0,13,14
 859 1147 859 1147 952 1102 c 128,-1,15
 1045 1057 1045 1057 1090 965 c 1,16,17
 1176 1055 1176 1055 1288 1101 c 128,-1,18
 1400 1147 1400 1147 1532 1147 c 0,19,20
 1722 1147 1722 1147 1835 1033 c 128,-1,21
 1948 919 1948 919 1948 727 c 0,22,23
 1948 681 1948 681 1941.5 628.5 c 128,-1,24
 1935 576 1935 576 1923 516 c 1,25,-1
 1067 516 l 1,26,27
 1061 478 1061 478 1059 456 c 128,-1,28
 1057 434 1057 434 1057 418 c 0,29,30
 1057 279 1057 279 1142.5 203 c 128,-1,31
 1228 127 1228 127 1384 127 c 0,32,33
 1504 127 1504 127 1611.5 154 c 128,-1,34
 1719 181 1719 181 1810 233 c 1,35,-1
 1776 51 l 1,36,37
 1676 11 1676 11 1570.5 -9 c 128,-1,38
 1465 -29 1465 -29 1356 -29 c 0,39,40
 1188 -29 1188 -29 1074.5 28.5 c 128,-1,41
 961 86 961 86 905 199 c 1,42,43
 803 81 803 81 693 26 c 128,-1,44
 583 -29 583 -29 451 -29 c 0,45,46
 277 -29 277 -29 180.5 53 c 128,-1,47
 84 135 84 135 84 283 c 0,48,49
 84 479 84 479 240.5 593 c 128,-1,50
 397 707 397 707 672 707 c 2,51,-1
 928 707 l 1,52,-1
 938 756 l 1,53,54
 940 764 940 764 941 773.5 c 128,-1,55
 942 783 942 783 942 803 c 0,56,57
 942 892 942 892 869.5 941.5 c 128,-1,58
 797 991 797 991 666 991 c 0,59,60
 576 991 576 991 481.5 968 c 128,-1,61
 387 945 387 945 287 899 c 1,62,-1
 319 1069 l 1,10,11
901 563 m 1,63,-1
 717 563 l 2,64,65
 491 563 491 563 382.5 502.5 c 128,-1,66
 274 442 274 442 274 315 c 0,67,68
 274 227 274 227 329.5 177 c 128,-1,69
 385 127 385 127 483 127 c 0,70,71
 633 127 633 127 745 234.5 c 128,-1,72
 857 342 857 342 893 522 c 2,73,-1
 901 563 l 1,63,-1
EndSplineSet
Colour: aaaa88
EndChar
StartChar: oslash
Encoding: 248 248 161
Width: 1253
Flags: W
Fore
901 922 m 1,0,1
 864 957 864 957 817.5 974 c 128,-1,2
 771 991 771 991 713 991 c 0,3,4
 527 991 527 991 407 830.5 c 128,-1,5
 287 670 287 670 287 420 c 0,6,7
 287 373 287 373 288.5 352.5 c 128,-1,8
 290 332 290 332 295 315 c 1,9,-1
 901 922 l 1,0,1
154 172 m 1,10,11
 124 221 124 221 109 284 c 128,-1,12
 94 347 94 347 94 422 c 0,13,14
 94 544 94 544 133.5 671.5 c 128,-1,15
 173 799 173 799 236 885 c 0,16,17
 334 1019 334 1019 455.5 1083 c 128,-1,18
 577 1147 577 1147 733 1147 c 0,19,20
 820 1147 820 1147 894 1121 c 128,-1,21
 968 1095 968 1095 1026 1044 c 1,22,-1
 1188 1208 l 1,23,-1
 1274 1122 l 1,24,-1
 1102 950 l 1,25,26
 1130 895 1130 895 1144.5 832.5 c 128,-1,27
 1159 770 1159 770 1159 702 c 0,28,29
 1159 578 1159 578 1119.5 448.5 c 128,-1,30
 1080 319 1080 319 1018 233 c 0,31,32
 921 99 921 99 799.5 35 c 128,-1,33
 678 -29 678 -29 520 -29 c 0,34,35
 433 -29 433 -29 359.5 -2.5 c 128,-1,36
 286 24 286 24 229 76 c 1,37,-1
 57 -94 l 1,38,-1
 -29 -10 l 1,39,-1
 154 172 l 1,10,11
961 809 m 1,40,-1
 352 199 l 1,41,42
 391 162 391 162 436.5 144.5 c 128,-1,43
 482 127 482 127 541 127 c 0,44,45
 730 127 730 127 849.5 290.5 c 128,-1,46
 969 454 969 454 969 717 c 0,47,48
 969 756 969 756 967 775 c 128,-1,49
 965 794 965 794 961 809 c 1,40,-1
EndSplineSet
Colour: aaaa88
EndChar
StartChar: questiondown
Encoding: 191 191 162
Width: 1087
Flags: W
Fore
612 1239 m 1,0,-1
 662 1493 l 1,1,-1
 864 1493 l 1,2,-1
 815 1239 l 1,3,-1
 612 1239 l 1,0,-1
834 86 m 1,4,5
 731 29 731 29 630 1 c 128,-1,6
 529 -27 529 -27 422 -27 c 0,7,8
 261 -27 261 -27 168.5 48 c 128,-1,9
 76 123 76 123 76 252 c 0,10,11
 76 355 76 355 129.5 445 c 128,-1,12
 183 535 183 535 303 633 c 2,13,-1
 406 717 l 2,14,15
 491 785 491 785 519.5 832 c 128,-1,16
 548 879 548 879 565 969 c 2,17,-1
 590 1092 l 1,18,-1
 780 1092 l 1,19,-1
 750 938 l 2,20,21
 731 844 731 844 692 778.5 c 128,-1,22
 653 713 653 713 543 621 c 2,23,-1
 436 532 l 2,24,25
 352 462 352 462 318.5 409 c 128,-1,26
 285 356 285 356 285 299 c 0,27,28
 285 223 285 223 339.5 180 c 128,-1,29
 394 137 394 137 489 137 c 0,30,31
 570 137 570 137 668 172.5 c 128,-1,32
 766 208 766 208 870 274 c 1,33,-1
 834 86 l 1,4,5
EndSplineSet
Colour: aaaa88
EndChar
StartChar: exclamdown
Encoding: 161 161 163
Width: 821
Flags: W
Fore
377 0 m 1,0,-1
 174 0 l 1,1,-1
 301 655 l 1,2,-1
 391 1012 l 1,3,-1
 553 1012 l 1,4,-1
 504 655 l 1,5,-1
 377 0 l 1,0,-1
616 1239 m 1,6,-1
 414 1239 l 1,7,-1
 463 1493 l 1,8,-1
 668 1493 l 1,9,-1
 616 1239 l 1,6,-1
EndSplineSet
Colour: aaaa88
EndChar
StartChar: logicalnot
Encoding: 172 172 164
Width: 1716
Flags: W
Fore
217 862 m 1,0,-1
 1499 862 l 1,1,-1
 1499 287 l 1,2,-1
 1331 287 l 1,3,-1
 1331 692 l 1,4,-1
 217 692 l 1,5,-1
 217 862 l 1,0,-1
EndSplineSet
Colour: aaaa88
EndChar
StartChar: radical
Encoding: 8730 8730 165
Width: 1305
Flags: W
Fore
1116 1661 m 1,0,-1
 1305 1661 l 1,1,-1
 1305 1565 l 1,2,-1
 1190 1565 l 1,3,-1
 596 -41 l 1,4,-1
 530 -41 l 1,5,-1
 211 842 l 1,6,-1
 86 797 l 1,7,-1
 61 877 l 1,8,-1
 344 975 l 1,9,-1
 600 266 l 1,10,-1
 1116 1661 l 1,0,-1
EndSplineSet
Colour: aaaa88
EndChar
StartChar: florin
Encoding: 402 402 166
Width: 721
Flags: W
HStem: 977 143<151 327 484 787> 1403 153<680.5 919>
Fore
280 -70 m 22,0,1
 258 -186 258 -186 215 -245 c 4,2,3
 162 -319 162 -319 112 -354 c 4,4,5
 11 -426 11 -426 -93 -426 c 4,6,7
 -217 -426 -217 -426 -269 -354 c 13,8,-1
 -172 -247 l 21,9,10
 -141 -291 -141 -291 -84 -291 c 132,-1,11
 -27 -291 -27 -291 21 -247 c 4,12,13
 69 -204 69 -204 82 -139 c 6,14,-1
 299 977 l 1,15,-1
 123 977 l 1,16,-1
 151 1120 l 1,17,-1
 327 1120 l 1,18,-1
 342 1198 l 2,19,20
 378 1385 378 1385 482 1470 c 0,21,22
 586 1556 586 1556 775 1556 c 2,23,-1
 949 1556 l 1,24,-1
 919 1403 l 1,25,-1
 743 1403 l 2,26,27
 644 1403 644 1403 598 1363 c 0,28,29
 551 1323 551 1323 531 1219 c 2,30,-1
 512 1120 l 1,31,-1
 815 1120 l 1,32,-1
 787 977 l 1,33,-1
 484 977 l 9,34,-1
 280 -70 l 22,0,1
EndSplineSet
Colour: aaaa88
EndChar
StartChar: approxequal
Encoding: 8776 8776 167
Width: 1716
Flags: W
Fore
1499 623 m 1,0,-1
 1499 444 l 1,1,2
 1394 366 1394 366 1304.5 331.5 c 128,-1,3
 1215 297 1215 297 1118 297 c 0,4,5
 1008 297 1008 297 862 356 c 0,6,7
 852 360 852 360 845 363 c 0,8,9
 839 365 839 365 824 371 c 0,10,11
 669 432 669 432 575 432 c 0,12,13
 487 432 487 432 401 394 c 128,-1,14
 315 356 315 356 217 272 c 1,15,-1
 217 451 l 1,16,17
 322 529 322 529 411.5 563.5 c 128,-1,18
 501 598 501 598 598 598 c 0,19,20
 708 598 708 598 855 539 c 0,21,22
 866 534 866 534 871 532 c 0,23,24
 877 530 877 530 892 524 c 0,25,26
 1047 463 1047 463 1141 463 c 0,27,28
 1227 463 1227 463 1311.5 500.5 c 128,-1,29
 1396 538 1396 538 1499 623 c 1,0,-1
1499 1012 m 1,30,-1
 1499 834 l 1,31,32
 1394 755 1394 755 1304.5 720.5 c 128,-1,33
 1215 686 1215 686 1118 686 c 0,34,35
 1008 686 1008 686 862 745 c 0,36,37
 852 749 852 749 845 752 c 0,38,39
 839 754 839 754 824 760 c 0,40,41
 669 821 669 821 575 821 c 0,42,43
 487 821 487 821 401 783 c 128,-1,44
 315 745 315 745 217 662 c 1,45,-1
 217 840 l 1,46,47
 322 918 322 918 411.5 952.5 c 128,-1,48
 501 987 501 987 598 987 c 0,49,50
 708 987 708 987 855 928 c 0,51,52
 865 924 865 924 870 922 c 0,53,54
 877 919 877 919 892 913 c 0,55,56
 1047 852 1047 852 1141 852 c 0,57,58
 1227 852 1227 852 1311.5 889.5 c 128,-1,59
 1396 927 1396 927 1499 1012 c 1,30,-1
EndSplineSet
Colour: aaaa88
EndChar
StartChar: Delta
Encoding: 8710 8710 168
Width: 1370
Flags: W
Fore
684 1262 m 1,0,-1
 266 178 l 1,1,-1
 1102 178 l 1,2,-1
 684 1262 l 1,0,-1
573 1473 m 1,3,-1
 797 1473 l 1,4,-1
 1376 0 l 1,5,-1
 -6 0 l 1,6,-1
 573 1473 l 1,3,-1
EndSplineSet
Colour: aaaa88
EndChar
StartChar: guillemotleft
Encoding: 171 171 169
Width: 1264
Flags: W
Fore
692 1059 m 1,0,-1
 653 858 l 1,1,-1
 299 588 l 1,2,-1
 551 322 l 1,3,-1
 514 141 l 1,4,-1
 127 559 l 1,5,-1
 143 641 l 1,6,-1
 692 1059 l 1,0,-1
1137 1059 m 1,7,-1
 1098 858 l 1,8,-1
 743 588 l 1,9,-1
 995 322 l 1,10,-1
 958 141 l 1,11,-1
 571 559 l 1,12,-1
 588 641 l 1,13,-1
 1137 1059 l 1,7,-1
EndSplineSet
Colour: aaaa88
EndChar
StartChar: guillemotright
Encoding: 187 187 170
Width: 1264
Flags: W
Fore
569 141 m 1,0,-1
 608 342 l 1,1,-1
 963 612 l 1,2,-1
 711 879 l 1,3,-1
 750 1059 l 1,4,-1
 1135 641 l 1,5,-1
 1120 559 l 1,6,-1
 569 141 l 1,0,-1
127 141 m 1,7,-1
 166 342 l 1,8,-1
 518 612 l 1,9,-1
 268 879 l 1,10,-1
 305 1059 l 1,11,-1
 690 641 l 1,12,-1
 676 559 l 1,13,-1
 127 141 l 1,7,-1
EndSplineSet
Colour: aaaa88
EndChar
StartChar: ellipsis
Encoding: 8230 8230 171
Width: 2048
Flags: W
Fore
182 254 m 1,0,-1
 393 254 l 1,1,-1
 344 0 l 1,2,-1
 133 0 l 1,3,-1
 182 254 l 1,0,-1
1548 254 m 1,4,-1
 1759 254 l 1,5,-1
 1710 0 l 1,6,-1
 1499 0 l 1,7,-1
 1548 254 l 1,4,-1
864 254 m 1,8,-1
 1075 254 l 1,9,-1
 1026 0 l 1,10,-1
 815 0 l 1,11,-1
 864 254 l 1,8,-1
EndSplineSet
Colour: aaaa88
EndChar
StartChar: OE
Encoding: 338 338 176
Width: 2191
Flags: W
Fore
1210 1323 m 1,0,-1
 1090 1323 l 2,1,2
 924 1323 924 1323 794.5 1285 c 128,-1,3
 665 1247 665 1247 578 1174 c 0,4,5
 445 1064 445 1064 376 913.5 c 128,-1,6
 307 763 307 763 307 582 c 0,7,8
 307 379 307 379 433.5 274.5 c 128,-1,9
 560 170 560 170 807 170 c 2,10,-1
 856 170 l 1,11,-1
 985 170 l 1,12,-1
 1210 1323 l 1,0,-1
2185 1493 m 1,13,-1
 2152 1323 l 1,14,-1
 1413 1323 l 1,15,-1
 1325 881 l 1,16,-1
 2036 881 l 1,17,-1
 2003 711 l 1,18,-1
 1292 711 l 1,19,-1
 1188 170 l 1,20,-1
 1948 170 l 1,21,-1
 1915 0 l 1,22,-1
 825 0 l 2,23,24
 663 0 663 0 574.5 15.5 c 128,-1,25
 486 31 486 31 408 66 c 0,26,27
 251 136 251 136 172.5 265 c 128,-1,28
 94 394 94 394 94 582 c 0,29,30
 94 791 94 791 186.5 977 c 128,-1,31
 279 1163 279 1163 451 1298 c 0,32,33
 574 1396 574 1396 749 1444.5 c 128,-1,34
 924 1493 924 1493 1149 1493 c 2,35,-1
 2185 1493 l 1,13,-1
EndSplineSet
Colour: aaaa88
EndChar
StartChar: oe
Encoding: 339 339 177
Width: 2105
Flags: W
Fore
1991 516 m 1,0,-1
 1135 516 l 1,1,2
 1131 489 1131 489 1128.5 464 c 128,-1,3
 1126 439 1126 439 1126 418 c 0,4,5
 1126 279 1126 279 1211 203 c 128,-1,6
 1296 127 1296 127 1452 127 c 0,7,8
 1572 127 1572 127 1680.5 154 c 128,-1,9
 1789 181 1789 181 1880 233 c 1,10,-1
 1843 51 l 1,11,12
 1744 12 1744 12 1639 -8.5 c 128,-1,13
 1534 -29 1534 -29 1425 -29 c 0,14,15
 1264 -29 1264 -29 1149 26 c 128,-1,16
 1034 81 1034 81 987 180 c 1,17,18
 886 75 886 75 770.5 23 c 128,-1,19
 655 -29 655 -29 520 -29 c 0,20,21
 329 -29 329 -29 211.5 90 c 128,-1,22
 94 209 94 209 94 401 c 0,23,24
 94 538 94 538 132 667.5 c 128,-1,25
 170 797 170 797 236 885 c 0,26,27
 335 1019 335 1019 457 1083 c 128,-1,28
 579 1147 579 1147 733 1147 c 0,29,30
 863 1147 863 1147 962.5 1088.5 c 128,-1,31
 1062 1030 1062 1030 1116 922 c 1,32,33
 1215 1034 1215 1034 1336 1090.5 c 128,-1,34
 1457 1147 1457 1147 1599 1147 c 0,35,36
 1790 1147 1790 1147 1902.5 1033 c 128,-1,37
 2015 919 2015 919 2015 727 c 0,38,39
 2015 681 2015 681 2009 628.5 c 128,-1,40
 2003 576 2003 576 1991 516 c 1,0,-1
1831 660 m 1,41,42
 1834 676 1834 676 1835.5 693 c 128,-1,43
 1837 710 1837 710 1837 727 c 0,44,45
 1837 849 1837 849 1765.5 920 c 128,-1,46
 1694 991 1694 991 1571 991 c 0,47,48
 1433 991 1433 991 1328.5 904.5 c 128,-1,49
 1224 818 1224 818 1169 659 c 1,50,-1
 1831 660 l 1,41,42
285 430 m 0,51,52
 285 278 285 278 348.5 202.5 c 128,-1,53
 412 127 412 127 541 127 c 0,54,55
 726 127 726 127 847.5 287 c 128,-1,56
 969 447 969 447 969 696 c 0,57,58
 969 843 969 843 904.5 917 c 128,-1,59
 840 991 840 991 713 991 c 0,60,61
 609 991 609 991 528 942.5 c 128,-1,62
 447 894 447 894 383 795 c 0,63,64
 336 721 336 721 310.5 626 c 128,-1,65
 285 531 285 531 285 430 c 0,51,52
EndSplineSet
Colour: aaaa88
EndChar
StartChar: endash
Encoding: 8211 8211 178
Width: 1024
Flags: W
Fore
14 633 m 1,0,-1
 1038 633 l 1,1,-1
 1010 489 l 1,2,-1
 -14 489 l 1,3,-1
 14 633 l 1,0,-1
EndSplineSet
Colour: aaaa88
EndChar
StartChar: emdash
Encoding: 8212 8212 179
Width: 2048
Flags: W
Fore
14 633 m 1,0,-1
 2062 633 l 1,1,-1
 2034 489 l 1,2,-1
 -14 489 l 1,3,-1
 14 633 l 1,0,-1
EndSplineSet
Colour: aaaa88
EndChar
StartChar: quotedblleft
Encoding: 8220 8220 180
Width: 1061
Flags: W
Fore
479 1001 m 1,0,-1
 268 1001 l 1,1,-1
 303 1174 l 1,2,-1
 528 1493 l 1,3,-1
 657 1493 l 1,4,-1
 514 1174 l 1,5,-1
 479 1001 l 1,0,-1
889 1001 m 1,6,-1
 678 1001 l 1,7,-1
 713 1174 l 1,8,-1
 938 1493 l 1,9,-1
 1067 1493 l 1,10,-1
 924 1174 l 1,11,-1
 889 1001 l 1,6,-1
EndSplineSet
Colour: aaaa88
EndChar
StartChar: quotedblright
Encoding: 8221 8221 181
Width: 1061
Flags: W
Fore
455 1493 m 1,0,-1
 666 1493 l 1,1,-1
 631 1321 l 1,2,-1
 406 1001 l 1,3,-1
 276 1001 l 1,4,-1
 420 1321 l 1,5,-1
 455 1493 l 1,0,-1
864 1493 m 1,6,-1
 1075 1493 l 1,7,-1
 1040 1321 l 1,8,-1
 815 1001 l 1,9,-1
 686 1001 l 1,10,-1
 829 1321 l 1,11,-1
 864 1493 l 1,6,-1
EndSplineSet
Colour: aaaa88
EndChar
StartChar: quoteleft
Encoding: 8216 8216 182
Width: 651
Flags: W
Fore
479 1001 m 1,0,-1
 268 1001 l 1,1,-1
 303 1174 l 1,2,-1
 528 1493 l 1,3,-1
 657 1493 l 1,4,-1
 514 1174 l 1,5,-1
 479 1001 l 1,0,-1
EndSplineSet
Colour: aaaa88
EndChar
StartChar: quoteright
Encoding: 8217 8217 183
Width: 651
Flags: W
Fore
455 1493 m 1,0,-1
 666 1493 l 1,1,-1
 633 1321 l 1,2,-1
 406 1001 l 1,3,-1
 276 1001 l 1,4,-1
 420 1321 l 1,5,-1
 455 1493 l 1,0,-1
EndSplineSet
Colour: aaaa88
EndChar
StartChar: divide
Encoding: 247 247 184
Width: 1716
Flags: W
Fore
735 1135 m 1,0,-1
 981 1135 l 1,1,-1
 981 889 l 1,2,-1
 735 889 l 1,3,-1
 735 1135 l 1,0,-1
735 395 m 1,4,-1
 981 395 l 1,5,-1
 981 150 l 1,6,-1
 735 150 l 1,7,-1
 735 395 l 1,4,-1
217 727 m 1,8,-1
 1499 727 l 1,9,-1
 1499 557 l 1,10,-1
 217 557 l 1,11,-1
 217 727 l 1,8,-1
EndSplineSet
Colour: aaaa88
EndChar
StartChar: lozenge
Encoding: 9674 9674 185
Width: 1012
Flags: W
Fore
506 1409 m 1,0,-1
 121 592 l 1,1,-1
 506 -233 l 1,2,-1
 891 592 l 1,3,-1
 506 1409 l 1,0,-1
506 1653 m 1,4,-1
 1006 592 l 1,5,-1
 506 -477 l 1,6,-1
 6 592 l 1,7,-1
 506 1653 l 1,4,-1
EndSplineSet
Colour: aaaa88
EndChar
StartChar: fraction
Encoding: 8725 8725 188
AltUni: 8260
Width: 342
Flags: W
Fore
698 1520 m 1,0,-1
 877 1520 l 1,1,-1
 -356 -29 l 1,2,-1
 -537 -29 l 1,3,-1
 698 1520 l 1,0,-1
EndSplineSet
Colour: aaaa88
EndChar
StartChar: currency
Encoding: 164 164 189
Width: 1303
Flags: W
Fore
891 993 m 1,0,-1
 1098 1202 l 1,1,-1
 1212 1087 l 1,2,-1
 1006 881 l 1,3,4
 1043 822 1043 822 1061 762.5 c 128,-1,5
 1079 703 1079 703 1079 641 c 0,6,7
 1079 578 1079 578 1060 520.5 c 128,-1,8
 1041 463 1041 463 1001 406 c 1,9,-1
 1210 199 l 1,10,-1
 1096 86 l 1,11,-1
 889 293 l 1,12,13
 830 253 830 253 772 234 c 128,-1,14
 714 215 714 215 653 215 c 0,15,16
 595 215 595 215 535 233.5 c 128,-1,17
 475 252 475 252 414 289 c 1,18,-1
 207 82 l 1,19,-1
 94 197 l 1,20,-1
 301 403 l 1,21,22
 264 465 264 465 245.5 524 c 128,-1,23
 227 583 227 583 227 641 c 0,24,25
 227 705 227 705 246 763 c 128,-1,26
 265 821 265 821 303 877 c 1,27,-1
 96 1083 l 1,28,-1
 211 1198 l 1,29,-1
 418 991 l 1,30,31
 473 1030 473 1030 531 1048.5 c 128,-1,32
 589 1067 589 1067 653 1067 c 0,33,34
 713 1067 713 1067 771.5 1049 c 128,-1,35
 830 1031 830 1031 891 993 c 1,0,-1
922 643 m 0,36,37
 922 755 922 755 844.5 832 c 128,-1,38
 767 909 767 909 653 909 c 0,39,40
 541 909 541 909 462 832 c 128,-1,41
 383 755 383 755 383 643 c 0,42,43
 383 529 383 529 461.5 451 c 128,-1,44
 540 373 540 373 653 373 c 256,45,46
 766 373 766 373 844 451.5 c 128,-1,47
 922 530 922 530 922 643 c 0,36,37
EndSplineSet
Colour: aaaa88
EndChar
StartChar: guilsinglleft
Encoding: 8249 8249 190
Width: 819
Flags: W
Fore
692 1059 m 1,0,-1
 655 858 l 1,1,-1
 299 588 l 1,2,-1
 551 322 l 1,3,-1
 514 141 l 1,4,-1
 127 559 l 1,5,-1
 143 641 l 1,6,-1
 692 1059 l 1,0,-1
EndSplineSet
Colour: aaaa88
EndChar
StartChar: guilsinglright
Encoding: 8250 8250 191
Width: 819
Flags: W
Fore
127 141 m 1,0,-1
 166 342 l 1,1,-1
 522 612 l 1,2,-1
 270 879 l 1,3,-1
 305 1059 l 1,4,-1
 692 641 l 1,5,-1
 678 559 l 1,6,-1
 127 141 l 1,0,-1
EndSplineSet
Colour: aaaa88
EndChar
StartChar: fi
Encoding: 64257 64257 192
Width: 1323
Flags: W
Fore
1042 1120 m 1,0,-1
 1229 1120 l 1,1,-1
 1010 0 l 1,2,-1
 825 0 l 1,3,-1
 1042 1120 l 1,0,-1
1128 1556 m 1,4,-1
 1313 1556 l 1,5,-1
 1268 1323 l 1,6,-1
 1083 1323 l 1,7,-1
 1128 1556 l 1,4,-1
979 1556 m 1,8,-1
 950 1403 l 1,9,-1
 774 1403 l 2,10,11
 674 1403 674 1403 628.5 1363.5 c 128,-1,12
 583 1324 583 1324 561 1219 c 1,13,-1
 541 1120 l 1,14,-1
 844 1120 l 1,15,-1
 817 977 l 1,16,-1
 514 977 l 1,17,-1
 324 0 l 1,18,-1
 139 0 l 1,19,-1
 330 977 l 1,20,-1
 154 977 l 1,21,-1
 180 1120 l 1,22,-1
 356 1120 l 1,23,-1
 371 1198 l 2,24,25
 409 1396 409 1396 504.5 1476 c 128,-1,26
 600 1556 600 1556 805 1556 c 2,27,-1
 979 1556 l 1,8,-1
EndSplineSet
Ligature: 0 0 'liga' f i
Colour: aaaa88
EndChar
StartChar: fl
Encoding: 64258 64258 193
Width: 1323
Flags: W
Fore
805 1556 m 2,0,-1
 1313 1556 l 1,1,-1
 1010 0 l 1,2,-1
 825 0 l 1,3,-1
 1104 1403 l 1,4,-1
 774 1403 l 2,5,6
 674 1403 674 1403 628.5 1363.5 c 128,-1,7
 583 1324 583 1324 561 1219 c 1,8,-1
 541 1120 l 1,9,-1
 844 1120 l 1,10,-1
 817 977 l 1,11,-1
 514 977 l 1,12,-1
 324 0 l 1,13,-1
 139 0 l 1,14,-1
 330 977 l 1,15,-1
 154 977 l 1,16,-1
 180 1120 l 1,17,-1
 356 1120 l 1,18,-1
 371 1198 l 2,19,20
 409 1397 409 1397 504 1476.5 c 128,-1,21
 599 1556 599 1556 805 1556 c 2,0,-1
EndSplineSet
Ligature: 0 0 'liga' f l
Colour: aaaa88
EndChar
StartChar: daggerdbl
Encoding: 8225 8225 194
Width: 1024
Flags: W
Fore
874 223 m 1,0,-1
 508 223 l 1,1,-1
 426 -197 l 1,2,-1
 250 -197 l 1,3,-1
 332 223 l 1,4,-1
 -35 223 l 1,5,-1
 -6 377 l 1,6,-1
 360 377 l 1,7,-1
 467 920 l 1,8,-1
 100 920 l 1,9,-1
 129 1073 l 1,10,-1
 496 1073 l 1,11,-1
 578 1493 l 1,12,-1
 754 1493 l 1,13,-1
 672 1073 l 1,14,-1
 1040 1073 l 1,15,-1
 1010 920 l 1,16,-1
 643 920 l 1,17,-1
 537 377 l 1,18,-1
 903 377 l 1,19,-1
 874 223 l 1,0,-1
EndSplineSet
Colour: aaaa88
EndChar
StartChar: periodcentered
Encoding: 183 183 195
Width: 651
Flags: W
Fore
283 838 m 1,0,-1
 494 838 l 1,1,-1
 444 584 l 1,2,-1
 233 584 l 1,3,-1
 283 838 l 1,0,-1
EndSplineSet
Colour: aaaa88
EndChar
StartChar: quotesinglbase
Encoding: 8218 8218 196
Width: 651
Flags: W
Fore
184 254 m 1,0,-1
 395 254 l 1,1,-1
 360 82 l 1,2,-1
 135 -238 l 1,3,-1
 6 -238 l 1,4,-1
 150 82 l 1,5,-1
 184 254 l 1,0,-1
EndSplineSet
Colour: aaaa88
EndChar
StartChar: quotedblbase
Encoding: 8222 8222 197
Width: 1061
Flags: W
Fore
184 254 m 1,0,-1
 395 254 l 1,1,-1
 360 82 l 1,2,-1
 135 -238 l 1,3,-1
 6 -238 l 1,4,-1
 150 82 l 1,5,-1
 184 254 l 1,0,-1
594 254 m 1,6,-1
 805 254 l 1,7,-1
 770 82 l 1,8,-1
 545 -238 l 1,9,-1
 416 -238 l 1,10,-1
 559 82 l 1,11,-1
 594 254 l 1,6,-1
EndSplineSet
Colour: aaaa88
EndChar
StartChar: perthousand
Encoding: 8240 8240 198
Width: 2765
Flags: W
Fore
2163 -29 m 0,0,1
 2026 -29 2026 -29 1947 60 c 128,-1,2
 1868 149 1868 149 1868 301 c 0,3,4
 1868 517 1868 517 1983.5 650.5 c 128,-1,5
 2099 784 2099 784 2286 784 c 0,6,7
 2421 784 2421 784 2499.5 696 c 128,-1,8
 2578 608 2578 608 2578 455 c 0,9,10
 2578 240 2578 240 2462.5 105.5 c 128,-1,11
 2347 -29 2347 -29 2163 -29 c 0,0,1
2419 446 m 0,12,13
 2419 553 2419 553 2380.5 606 c 128,-1,14
 2342 659 2342 659 2265 659 c 0,15,16
 2154 659 2154 659 2091 561.5 c 128,-1,17
 2028 464 2028 464 2028 291 c 0,18,19
 2028 198 2028 198 2068 148 c 128,-1,20
 2108 98 2108 98 2183 98 c 0,21,22
 2290 98 2290 98 2354.5 193 c 128,-1,23
 2419 288 2419 288 2419 446 c 0,12,13
481 707 m 0,24,25
 345 707 345 707 265.5 795.5 c 128,-1,26
 186 884 186 884 186 1036 c 0,27,28
 186 1252 186 1252 302 1386 c 128,-1,29
 418 1520 418 1520 604 1520 c 0,30,31
 740 1520 740 1520 819.5 1430.5 c 128,-1,32
 899 1341 899 1341 899 1188 c 0,33,34
 899 974 899 974 783 840.5 c 128,-1,35
 667 707 667 707 481 707 c 0,24,25
739 1182 m 0,36,37
 739 1287 739 1287 700 1340 c 128,-1,38
 661 1393 661 1393 584 1393 c 0,39,40
 472 1393 472 1393 409 1296 c 128,-1,41
 346 1199 346 1199 346 1026 c 0,42,43
 346 934 346 934 386.5 884 c 128,-1,44
 427 834 427 834 502 834 c 0,45,46
 609 834 609 834 674 929 c 128,-1,47
 739 1024 739 1024 739 1182 c 0,36,37
1599 446 m 0,48,49
 1599 553 1599 553 1561 606 c 128,-1,50
 1523 659 1523 659 1446 659 c 0,51,52
 1335 659 1335 659 1271.5 561.5 c 128,-1,53
 1208 464 1208 464 1208 291 c 0,54,55
 1208 198 1208 198 1248.5 148 c 128,-1,56
 1289 98 1289 98 1364 98 c 0,57,58
 1471 98 1471 98 1535 193 c 128,-1,59
 1599 288 1599 288 1599 446 c 0,48,49
1343 -29 m 0,60,61
 1207 -29 1207 -29 1128 60 c 128,-1,62
 1049 149 1049 149 1049 301 c 0,63,64
 1049 517 1049 517 1164.5 650.5 c 128,-1,65
 1280 784 1280 784 1466 784 c 0,66,67
 1602 784 1602 784 1680.5 696 c 128,-1,68
 1759 608 1759 608 1759 455 c 0,69,70
 1759 240 1759 240 1643.5 105.5 c 128,-1,71
 1528 -29 1528 -29 1343 -29 c 0,60,61
1683 1520 m 1,72,-1
 449 -29 l 1,73,-1
 289 -29 l 1,74,-1
 1524 1520 l 1,75,-1
 1683 1520 l 1,72,-1
EndSplineSet
Colour: aaaa88
EndChar
StartChar: dotlessi
Encoding: 305 305 214
Width: 569
Flags: W
AnchorPoint: "Ogonek" 165 0 basechar 0
AnchorPoint: "Top" 383 1120 basechar 0
AnchorPoint: "Bottom" 165 0 basechar 0
Fore
291 1120 m 1,0,-1
 475 1120 l 1,1,-1
 256 0 l 1,2,-1
 72 0 l 1,3,-1
 291 1120 l 1,0,-1
EndSplineSet
Colour: aaaa88
EndChar
StartChar: circumflex
Encoding: 710 710 215
Width: 1024
Flags: W
Fore
657 1638 m 1,0,-1
 805 1638 l 1,1,-1
 977 1262 l 1,2,-1
 838 1262 l 1,3,-1
 711 1499 l 1,4,-1
 477 1262 l 1,5,-1
 338 1262 l 1,6,-1
 657 1638 l 1,0,-1
EndSplineSet
Colour: aaaa88
EndChar
StartChar: tilde
Encoding: 732 732 216
Width: 1024
Flags: W
Fore
674 1370 m 2,0,-1
 629 1425 l 2,1,2
 616 1441 616 1441 600 1451 c 128,-1,3
 584 1461 584 1461 568 1464 c 0,4,5
 529 1464 529 1464 503.5 1427.5 c 128,-1,6
 478 1391 478 1391 461 1309 c 1,7,-1
 336 1309 l 1,8,9
 366 1446 366 1446 430.5 1518.5 c 128,-1,10
 495 1591 495 1591 586 1591 c 0,11,12
 623 1591 623 1591 655 1575.5 c 128,-1,13
 687 1560 687 1560 713 1530 c 2,14,-1
 760 1475 l 2,15,16
 772 1459 772 1459 786 1450 c 128,-1,17
 800 1441 800 1441 819 1436 c 0,18,19
 857 1436 857 1436 881.5 1471.5 c 128,-1,20
 906 1507 906 1507 926 1591 c 1,21,-1
 1051 1591 l 1,22,23
 1022 1454 1022 1454 957.5 1381.5 c 128,-1,24
 893 1309 893 1309 801 1309 c 0,25,26
 763 1309 763 1309 730 1324.5 c 128,-1,27
 697 1340 697 1340 674 1370 c 2,0,-1
EndSplineSet
Colour: aaaa88
EndChar
StartChar: macron
Encoding: 175 175 217
Width: 1024
Flags: W
Fore
410 1526 m 1,0,-1
 1008 1526 l 1,1,-1
 979 1378 l 1,2,-1
 381 1378 l 1,3,-1
 410 1526 l 1,0,-1
EndSplineSet
Colour: aaaa88
EndChar
StartChar: breve
Encoding: 728 728 218
Width: 1024
Flags: W
Fore
412 1608 m 1,0,-1
 526 1608 l 1,1,-1
 526 1593 l 2,2,3
 526 1525 526 1525 568 1491.5 c 128,-1,4
 610 1458 610 1458 696 1458 c 0,5,6
 781 1458 781 1458 836 1494.5 c 128,-1,7
 891 1531 891 1531 922 1608 c 1,8,-1
 1038 1608 l 1,9,10
 1006 1469 1006 1469 911 1395 c 128,-1,11
 816 1321 816 1321 670 1321 c 0,12,13
 542 1321 542 1321 476 1385.5 c 128,-1,14
 410 1450 410 1450 410 1575 c 0,15,16
 410 1581 410 1581 411 1592 c 128,-1,17
 412 1603 412 1603 412 1608 c 1,0,-1
EndSplineSet
Colour: aaaa88
EndChar
StartChar: dotaccent
Encoding: 729 729 219
Width: 1024
Flags: W
Fore
612 1552 m 1,0,-1
 815 1552 l 1,1,-1
 776 1348 l 1,2,-1
 571 1348 l 1,3,-1
 612 1552 l 1,0,-1
EndSplineSet
Colour: aaaa88
EndChar
StartChar: ring
Encoding: 730 730 220
Width: 1024
Flags: W
Fore
977 1524 m 0,0,1
 977 1409 977 1409 897.5 1329 c 128,-1,2
 818 1249 818 1249 702 1249 c 0,3,4
 587 1249 587 1249 507.5 1329 c 128,-1,5
 428 1409 428 1409 428 1524 c 0,6,7
 428 1640 428 1640 507.5 1719 c 128,-1,8
 587 1798 587 1798 702 1798 c 0,9,10
 818 1798 818 1798 897.5 1719 c 128,-1,11
 977 1640 977 1640 977 1524 c 0,0,1
854 1524 m 0,12,13
 854 1588 854 1588 810.5 1631.5 c 128,-1,14
 767 1675 767 1675 702 1675 c 0,15,16
 636 1675 636 1675 593.5 1632.5 c 128,-1,17
 551 1590 551 1590 551 1524 c 256,18,19
 551 1458 551 1458 593.5 1415 c 128,-1,20
 636 1372 636 1372 702 1372 c 0,21,22
 769 1372 769 1372 811.5 1415 c 128,-1,23
 854 1458 854 1458 854 1524 c 0,12,13
EndSplineSet
Colour: aaaa88
EndChar
StartChar: cedilla
Encoding: 184 184 221
Width: 1024
Flags: W
Fore
477 0 m 1,0,1
 513 -51 513 -51 530 -94.5 c 128,-1,2
 547 -138 547 -138 547 -180 c 0,3,4
 547 -280 547 -280 473.5 -337.5 c 128,-1,5
 400 -395 400 -395 272 -395 c 0,6,7
 229 -395 229 -395 186 -389 c 128,-1,8
 143 -383 143 -383 100 -371 c 1,9,-1
 123 -240 l 1,10,11
 162 -256 162 -256 201.5 -264 c 128,-1,12
 241 -272 241 -272 283 -272 c 0,13,14
 343 -272 343 -272 378.5 -241.5 c 128,-1,15
 414 -211 414 -211 414 -158 c 0,16,17
 414 -129 414 -129 401.5 -93 c 128,-1,18
 389 -57 389 -57 358 0 c 1,19,-1
 477 0 l 1,0,1
EndSplineSet
Colour: aaaa88
EndChar
StartChar: hungarumlaut
Encoding: 733 733 222
Width: 1024
Flags: W
Fore
649 1638 m 1,0,-1
 819 1638 l 1,1,-1
 522 1262 l 1,2,-1
 385 1262 l 1,3,-1
 649 1638 l 1,0,-1
983 1638 m 1,4,-1
 1161 1638 l 1,5,-1
 840 1262 l 1,6,-1
 705 1262 l 1,7,-1
 983 1638 l 1,4,-1
EndSplineSet
Colour: aaaa88
EndChar
StartChar: ogonek
Encoding: 731 731 223
Width: 1024
Flags: W
Fore
354 0 m 1,0,-1
 473 0 l 1,1,2
 409 -67 409 -67 377.5 -117.5 c 128,-1,3
 346 -168 346 -168 346 -203 c 256,4,5
 346 -238 346 -238 368.5 -255 c 128,-1,6
 391 -272 391 -272 436 -272 c 0,7,8
 465 -272 465 -272 499.5 -264.5 c 128,-1,9
 534 -257 534 -257 571 -242 c 1,10,-1
 547 -374 l 1,11,12
 510 -386 510 -386 474.5 -391.5 c 128,-1,13
 439 -397 439 -397 408 -397 c 0,14,15
 305 -397 305 -397 253 -359 c 128,-1,16
 201 -321 201 -321 201 -246 c 0,17,18
 201 -194 201 -194 239.5 -132.5 c 128,-1,19
 278 -71 278 -71 354 0 c 1,0,-1
EndSplineSet
Colour: aaaa88
EndChar
StartChar: caron
Encoding: 711 711 224
Width: 1024
Flags: W
Fore
729 1262 m 1,0,-1
 582 1262 l 1,1,-1
 410 1638 l 1,2,-1
 551 1638 l 1,3,-1
 678 1401 l 1,4,-1
 909 1638 l 1,5,-1
 1049 1638 l 1,6,-1
 729 1262 l 1,0,-1
EndSplineSet
Colour: aaaa88
EndChar
StartChar: Lslash
Encoding: 321 321 225
Width: 1151
Flags: W
Fore
354 1493 m 1,0,-1
 557 1493 l 1,1,-1
 432 860 l 1,2,-1
 784 1016 l 1,3,-1
 840 891 l 1,4,-1
 401 698 l 1,5,-1
 301 168 l 1,6,-1
 1028 168 l 1,7,-1
 995 0 l 1,8,-1
 66 0 l 1,9,-1
 180 600 l 1,10,-1
 16 524 l 1,11,-1
 -41 647 l 1,12,-1
 211 760 l 1,13,-1
 354 1493 l 1,0,-1
EndSplineSet
Colour: aaaa88
EndChar
StartChar: lslash
Encoding: 322 322 226
Width: 588
Flags: W
Fore
389 1556 m 1,0,-1
 573 1556 l 1,1,-1
 457 950 l 1,2,-1
 598 1014 l 1,3,-1
 651 895 l 1,4,-1
 428 793 l 1,5,-1
 270 0 l 1,6,-1
 86 0 l 1,7,-1
 223 700 l 1,8,-1
 88 639 l 1,9,-1
 35 758 l 1,10,-1
 254 856 l 1,11,-1
 389 1556 l 1,0,-1
EndSplineSet
Colour: aaaa88
EndChar
StartChar: brokenbar
Encoding: 166 166 231
Width: 690
Flags: W
Fore
430 408 m 1,0,-1
 430 -350 l 1,1,-1
 260 -350 l 1,2,-1
 260 408 l 1,3,-1
 430 408 l 1,0,-1
430 1432 m 1,4,-1
 430 674 l 1,5,-1
 260 674 l 1,6,-1
 260 1432 l 1,7,-1
 430 1432 l 1,4,-1
EndSplineSet
Colour: aaaa88
EndChar
StartChar: Eth
Encoding: 208 208 232
Width: 1587
Flags: W
Fore
356 1493 m 1,0,-1
 791 1493 l 2,1,2
 1136 1493 1136 1493 1312.5 1346.5 c 128,-1,3
 1489 1200 1489 1200 1489 911 c 0,4,5
 1489 721 1489 721 1421.5 544.5 c 128,-1,6
 1354 368 1354 368 1235 246 c 0,7,8
 1116 122 1116 122 934 61 c 128,-1,9
 752 0 752 0 502 0 c 2,10,-1
 66 0 l 1,11,-1
 201 700 l 1,12,-1
 0 700 l 1,13,-1
 29 844 l 1,14,-1
 229 844 l 1,15,-1
 356 1493 l 1,0,-1
526 1327 m 1,16,-1
 432 844 l 1,17,-1
 768 844 l 1,18,-1
 739 700 l 1,19,-1
 403 700 l 1,20,-1
 301 166 l 1,21,-1
 565 166 l 2,22,23
 905 166 905 166 1090.5 361 c 128,-1,24
 1276 556 1276 556 1276 911 c 0,25,26
 1276 1126 1276 1126 1156 1226.5 c 128,-1,27
 1036 1327 1036 1327 780 1327 c 2,28,-1
 526 1327 l 1,16,-1
EndSplineSet
Colour: aaaa88
EndChar
StartChar: eth
Encoding: 240 240 233
Width: 1253
Flags: W
Fore
1016 1141 m 2,0,1
 1084 1039 1084 1039 1118.5 928.5 c 128,-1,2
 1153 818 1153 818 1153 700 c 0,3,4
 1153 564 1153 564 1113.5 437.5 c 128,-1,5
 1074 311 1074 311 999 211 c 0,6,7
 915 95 915 95 792.5 33 c 128,-1,8
 670 -29 670 -29 526 -29 c 0,9,10
 328 -29 328 -29 210 88.5 c 128,-1,11
 92 206 92 206 92 401 c 0,12,13
 92 521 92 521 133 639 c 128,-1,14
 174 757 174 757 250 858 c 0,15,16
 338 974 338 974 459 1036 c 128,-1,17
 580 1098 580 1098 719 1098 c 0,18,19
 739 1098 739 1098 768 1095.5 c 128,-1,20
 797 1093 797 1093 837 1088 c 1,21,-1
 713 1268 l 1,22,-1
 362 1161 l 1,23,-1
 330 1255 l 1,24,-1
 657 1352 l 1,25,-1
 518 1556 l 1,26,-1
 735 1556 l 1,27,-1
 831 1411 l 1,28,-1
 1167 1520 l 1,29,-1
 1202 1425 l 1,30,-1
 889 1327 l 1,31,-1
 1016 1141 l 2,0,1
913 915 m 1,32,33
 870 932 870 932 826.5 940 c 128,-1,34
 783 948 783 948 739 948 c 0,35,36
 537 948 537 948 410 797.5 c 128,-1,37
 283 647 283 647 283 408 c 0,38,39
 283 270 283 270 348.5 198.5 c 128,-1,40
 414 127 414 127 541 127 c 0,41,42
 723 127 723 127 845 288.5 c 128,-1,43
 967 450 967 450 967 694 c 0,44,45
 967 762 967 762 954 816 c 128,-1,46
 941 870 941 870 913 915 c 1,32,33
EndSplineSet
Colour: aaaa88
EndChar
StartChar: Thorn
Encoding: 222 222 236
Width: 1245
Flags: W
Fore
580 338 m 2,0,-1
 324 338 l 1,1,-1
 258 0 l 1,2,-1
 55 0 l 1,3,-1
 346 1493 l 1,4,-1
 549 1493 l 1,5,-1
 498 1229 l 1,6,-1
 764 1229 l 2,7,8
 968 1229 968 1229 1075 1134 c 128,-1,9
 1182 1039 1182 1039 1182 856 c 0,10,11
 1182 610 1182 610 1024 474 c 128,-1,12
 866 338 866 338 580 338 c 2,0,-1
467 1063 m 1,13,-1
 358 504 l 1,14,-1
 612 504 l 2,15,16
 784 504 784 504 876.5 591.5 c 128,-1,17
 969 679 969 679 969 844 c 0,18,19
 969 948 969 948 907 1005.5 c 128,-1,20
 845 1063 845 1063 731 1063 c 2,21,-1
 467 1063 l 1,13,-1
EndSplineSet
Colour: aaaa88
EndChar
StartChar: thorn
Encoding: 254 254 237
Width: 1300
Flags: W
Fore
1016 690 m 0,0,1
 1016 837 1016 837 952 915 c 128,-1,2
 888 993 888 993 768 993 c 0,3,4
 686 993 686 993 611.5 951 c 128,-1,5
 537 909 537 909 479 829 c 0,6,7
 422 750 422 750 388 638 c 128,-1,8
 354 526 354 526 354 416 c 0,9,10
 354 276 354 276 418 200.5 c 128,-1,11
 482 125 482 125 600 125 c 0,12,13
 687 125 687 125 761.5 166 c 128,-1,14
 836 207 836 207 889 285 c 0,15,16
 946 367 946 367 981 478 c 128,-1,17
 1016 589 1016 589 1016 690 c 0,0,1
446 950 m 1,18,19
 520 1047 520 1047 620.5 1097 c 128,-1,20
 721 1147 721 1147 844 1147 c 0,21,22
 1016 1147 1016 1147 1111 1034.5 c 128,-1,23
 1206 922 1206 922 1206 719 c 0,24,25
 1206 553 1206 553 1147 402.5 c 128,-1,26
 1088 252 1088 252 977 133 c 0,27,28
 903 54 903 54 810 12.5 c 128,-1,29
 717 -29 717 -29 614 -29 c 0,30,31
 495 -29 495 -29 414 20.5 c 128,-1,32
 333 70 333 70 293 168 c 1,33,-1
 178 -426 l 1,34,-1
 -6 -426 l 1,35,-1
 375 1556 l 1,36,-1
 559 1556 l 1,37,-1
 446 950 l 1,18,19
EndSplineSet
Colour: aaaa88
EndChar
StartChar: minus
Encoding: 8722 8722 238
Width: 1716
Flags: W
Fore
217 727 m 1,0,-1
 1499 727 l 1,1,-1
 1499 557 l 1,2,-1
 217 557 l 1,3,-1
 217 727 l 1,0,-1
EndSplineSet
Colour: aaaa88
EndChar
StartChar: multiply
Encoding: 215 215 239
Width: 1716
Flags: W
Fore
1436 1100 m 1,0,-1
 979 641 l 1,1,-1
 1436 184 l 1,2,-1
 1317 63 l 1,3,-1
 858 522 l 1,4,-1
 399 63 l 1,5,-1
 281 184 l 1,6,-1
 737 641 l 1,7,-1
 281 1100 l 1,8,-1
 399 1221 l 1,9,-1
 858 762 l 1,10,-1
 1317 1221 l 1,11,-1
 1436 1100 l 1,0,-1
EndSplineSet
Colour: aaaa88
EndChar
StartChar: onesuperior
Encoding: 185 185 240
Width: 821
Flags: W
Fore
156 778 m 1,0,-1
 360 778 l 1,1,-1
 479 1389 l 1,2,-1
 250 1348 l 1,3,-1
 272 1464 l 1,4,-1
 502 1503 l 1,5,-1
 647 1503 l 1,6,-1
 506 778 l 1,7,-1
 711 778 l 1,8,-1
 688 668 l 1,9,-1
 135 668 l 1,10,-1
 156 778 l 1,0,-1
EndSplineSet
Colour: aaaa88
EndChar
StartChar: twosuperior
Encoding: 178 178 241
Width: 821
Flags: W
Fore
659 1090 m 2,0,-1
 274 782 l 1,1,-1
 715 782 l 1,2,-1
 692 668 l 1,3,-1
 74 668 l 1,4,-1
 96 778 l 1,5,-1
 518 1118 l 2,6,7
 577 1164 577 1164 606 1207 c 128,-1,8
 635 1250 635 1250 635 1290 c 0,9,10
 635 1344 635 1344 593 1377.5 c 128,-1,11
 551 1411 551 1411 481 1411 c 0,12,13
 426 1411 426 1411 360 1394 c 128,-1,14
 294 1377 294 1377 211 1341 c 1,15,-1
 236 1464 l 1,16,17
 312 1492 312 1492 380 1506 c 128,-1,18
 448 1520 448 1520 512 1520 c 0,19,20
 635 1520 635 1520 711.5 1463 c 128,-1,21
 788 1406 788 1406 788 1317 c 0,22,23
 788 1255 788 1255 756 1198.5 c 128,-1,24
 724 1142 724 1142 659 1090 c 2,0,-1
EndSplineSet
Colour: aaaa88
EndChar
StartChar: threesuperior
Encoding: 179 179 242
Width: 821
Flags: W
Fore
215 1485 m 1,0,1
 298 1503 298 1503 361 1511.5 c 128,-1,2
 424 1520 424 1520 479 1520 c 0,3,4
 604 1520 604 1520 679 1467.5 c 128,-1,5
 754 1415 754 1415 754 1329 c 0,6,7
 754 1252 754 1252 697 1195 c 128,-1,8
 640 1138 640 1138 543 1120 c 1,9,10
 618 1104 618 1104 658 1057 c 128,-1,11
 698 1010 698 1010 698 938 c 0,12,13
 698 811 698 811 586.5 732 c 128,-1,14
 475 653 475 653 291 653 c 0,15,16
 227 653 227 653 162 663.5 c 128,-1,17
 97 674 97 674 33 694 c 1,18,-1
 57 815 l 1,19,20
 110 788 110 788 166 775 c 128,-1,21
 222 762 222 762 285 762 c 0,22,23
 408 762 408 762 477.5 808 c 128,-1,24
 547 854 547 854 547 936 c 0,25,26
 547 998 547 998 498.5 1029.5 c 128,-1,27
 450 1061 450 1061 352 1061 c 2,28,-1
 266 1061 l 1,29,-1
 289 1169 l 1,30,-1
 381 1169 l 2,31,32
 483 1169 483 1169 540.5 1205 c 128,-1,33
 598 1241 598 1241 598 1305 c 0,34,35
 598 1358 598 1358 557 1384.5 c 128,-1,36
 516 1411 516 1411 434 1411 c 0,37,38
 378 1411 378 1411 316 1400.5 c 128,-1,39
 254 1390 254 1390 193 1370 c 1,40,-1
 215 1485 l 1,0,1
EndSplineSet
Colour: aaaa88
EndChar
StartChar: dcroat
Encoding: 273 273 255
Width: 1300
Flags: W
Fore
856 168 m 1,0,1
 782 71 782 71 681 21 c 128,-1,2
 580 -29 580 -29 457 -29 c 0,3,4
 289 -29 289 -29 191.5 85.5 c 128,-1,5
 94 200 94 200 94 399 c 0,6,7
 94 565 94 565 153 715.5 c 128,-1,8
 212 866 212 866 324 985 c 0,9,10
 398 1064 398 1064 491 1105.5 c 128,-1,11
 584 1147 584 1147 686 1147 c 0,12,13
 794 1147 794 1147 876.5 1095 c 128,-1,14
 959 1043 959 1043 1004 946 c 1,15,-1
 1071 1284 l 1,16,-1
 745 1284 l 1,17,-1
 772 1407 l 1,18,-1
 1098 1407 l 1,19,-1
 1124 1556 l 1,20,-1
 1309 1556 l 1,21,-1
 1282 1407 l 1,22,-1
 1436 1407 l 1,23,-1
 1409 1284 l 1,24,-1
 1255 1284 l 1,25,-1
 1006 0 l 1,26,-1
 821 0 l 1,27,-1
 856 168 l 1,0,1
285 432 m 0,28,29
 285 287 285 287 350.5 206 c 128,-1,30
 416 125 416 125 532 125 c 0,31,32
 618 125 618 125 691.5 166.5 c 128,-1,33
 765 208 765 208 821 289 c 0,34,35
 880 373 880 373 914 483 c 128,-1,36
 948 593 948 593 948 700 c 0,37,38
 948 839 948 839 882.5 917 c 128,-1,39
 817 995 817 995 702 995 c 0,40,41
 615 995 615 995 540 954 c 128,-1,42
 465 913 465 913 412 836 c 0,43,44
 354 753 354 753 319.5 643 c 128,-1,45
 285 533 285 533 285 432 c 0,28,29
EndSplineSet
Colour: aaaa88
EndChar
StartChar: sfthyphen
Encoding: 173 173 256
Width: 739
Flags: W
Fore
125 643 m 1,0,-1
 664 643 l 1,1,-1
 633 479 l 1,2,-1
 92 479 l 1,3,-1
 125 643 l 1,0,-1
EndSplineSet
Colour: aaaa88
EndChar
StartChar: periodcentered
Encoding: 8729 8729 257
Width: 651
Flags: W
Fore
283 838 m 1,0,-1
 494 838 l 1,1,-1
 444 584 l 1,2,-1
 233 584 l 1,3,-1
 283 838 l 1,0,-1
EndSplineSet
Colour: aaaa88
EndChar
StartChar: Euro
Encoding: 8364 8364 258
Width: 1303
Flags: W
Fore
1243 1378 m 1,0,-1
 1210 1165 l 1,1,2
 1127 1266 1127 1266 1043.5 1313 c 128,-1,3
 960 1360 960 1360 864 1360 c 0,4,5
 721 1360 721 1360 613 1262.5 c 128,-1,6
 505 1165 505 1165 434 973 c 1,7,-1
 954 973 l 1,8,-1
 901 850 l 1,9,-1
 397 850 l 1,10,11
 385 800 385 800 377 749 c 128,-1,12
 369 698 369 698 365 643 c 1,13,-1
 809 643 l 1,14,-1
 754 520 l 1,15,-1
 361 520 l 1,16,17
 370 325 370 325 449.5 228 c 128,-1,18
 529 131 529 131 680 131 c 0,19,20
 789 131 789 131 885 174 c 128,-1,21
 981 217 981 217 1083 313 c 1,22,-1
 1044 74 l 1,23,24
 950 23 950 23 851 -3 c 128,-1,25
 752 -29 752 -29 655 -29 c 0,26,27
 432 -29 432 -29 300.5 117 c 128,-1,28
 169 263 169 263 159 520 c 1,29,-1
 -39 520 l 1,30,-1
 16 643 l 1,31,-1
 161 643 l 1,32,33
 166 698 166 698 174 749.5 c 128,-1,34
 182 801 182 801 193 850 c 1,35,-1
 20 850 l 1,36,-1
 76 973 l 1,37,-1
 227 973 l 1,38,39
 324 1249 324 1249 484 1384.5 c 128,-1,40
 644 1520 644 1520 872 1520 c 0,41,42
 975 1520 975 1520 1067.5 1484.5 c 128,-1,43
 1160 1449 1160 1449 1243 1378 c 1,0,-1
EndSplineSet
Colour: aaaa88
EndChar
StartChar: Dieresis
Encoding: 65539 -1 259
Width: 1024
Flags: W
Fore
406 1497 m 1,0,-1
 610 1497 l 1,1,-1
 569 1294 l 1,2,-1
 367 1294 l 1,3,-1
 406 1497 l 1,0,-1
797 1497 m 1,4,-1
 999 1497 l 1,5,-1
 961 1294 l 1,6,-1
 758 1294 l 1,7,-1
 797 1497 l 1,4,-1
EndSplineSet
Colour: aaaa88
EndChar
StartChar: Acute
Encoding: 65540 -1 260
Width: 1024
Flags: W
Fore
774 1526 m 1,0,-1
 981 1526 l 1,1,-1
 674 1262 l 1,2,-1
 516 1262 l 1,3,-1
 774 1526 l 1,0,-1
EndSplineSet
Colour: aaaa88
EndChar
StartChar: Tilde
Encoding: 65541 -1 261
Width: 1024
Flags: W
Fore
680 1337 m 2,0,-1
 645 1362 l 1,1,-1
 644 1363 l 2,2,3
 601 1395 601 1395 563 1395 c 0,4,5
 529 1395 529 1395 502 1369.5 c 128,-1,6
 475 1344 475 1344 457 1294 c 1,7,-1
 332 1294 l 1,8,9
 367 1403 367 1403 428.5 1458 c 128,-1,10
 490 1513 490 1513 575 1513 c 0,11,12
 610 1513 610 1513 640.5 1502 c 128,-1,13
 671 1491 671 1491 707 1466 c 2,14,-1
 739 1440 l 2,15,16
 757 1426 757 1426 776 1419.5 c 128,-1,17
 795 1413 795 1413 815 1413 c 0,18,19
 854 1413 854 1413 882.5 1440 c 128,-1,20
 911 1467 911 1467 922 1513 c 1,21,-1
 1047 1513 l 1,22,23
 1014 1404 1014 1404 951.5 1349 c 128,-1,24
 889 1294 889 1294 797 1294 c 0,25,26
 766 1294 766 1294 738.5 1304.5 c 128,-1,27
 711 1315 711 1315 680 1337 c 2,0,-1
EndSplineSet
Colour: aaaa88
EndChar
StartChar: Grave
Encoding: 65542 -1 262
Width: 1024
Flags: W
Fore
647 1526 m 1,0,-1
 795 1262 l 1,1,-1
 655 1262 l 1,2,-1
 465 1526 l 1,3,-1
 647 1526 l 1,0,-1
EndSplineSet
Colour: aaaa88
EndChar
StartChar: Circumflex
Encoding: 65543 -1 263
Width: 1024
Flags: W
Fore
600 1528 m 1,0,-1
 815 1528 l 1,1,-1
 973 1262 l 1,2,-1
 838 1262 l 1,3,-1
 698 1440 l 1,4,-1
 489 1262 l 1,5,-1
 338 1262 l 1,6,-1
 600 1528 l 1,0,-1
EndSplineSet
Colour: aaaa88
EndChar
StartChar: Caron
Encoding: 65544 -1 264
Width: 1024
Flags: W
Fore
772 1262 m 1,0,-1
 559 1262 l 1,1,-1
 401 1528 l 1,2,-1
 535 1528 l 1,3,-1
 674 1350 l 1,4,-1
 883 1528 l 1,5,-1
 1034 1528 l 1,6,-1
 772 1262 l 1,0,-1
EndSplineSet
Colour: aaaa88
EndChar
StartChar: verafoursup
Encoding: 65545 -1 265
Width: 821
Flags: W
Fore
602 1378 m 1,0,-1
 209 963 l 1,1,-1
 520 963 l 1,2,-1
 602 1378 l 1,0,-1
602 1503 m 1,3,-1
 768 1503 l 1,4,-1
 662 963 l 1,5,-1
 799 963 l 1,6,-1
 778 854 l 1,7,-1
 641 854 l 1,8,-1
 604 668 l 1,9,-1
 463 668 l 1,10,-1
 500 854 l 1,11,-1
 84 854 l 1,12,-1
 109 985 l 1,13,-1
 602 1503 l 1,3,-1
EndSplineSet
Colour: aaaa88
EndChar
StartChar: Breve
Encoding: 65546 -1 266
Width: 1024
Flags: W
Fore
389 1528 m 1,0,-1
 508 1528 l 1,1,2
 520 1467 520 1467 559 1440 c 128,-1,3
 598 1413 598 1413 674 1413 c 0,4,5
 760 1413 760 1413 814 1440.5 c 128,-1,6
 868 1468 868 1468 897 1528 c 1,7,-1
 1016 1528 l 1,8,9
 982 1415 982 1415 890 1350.5 c 128,-1,10
 798 1286 798 1286 670 1286 c 0,11,12
 549 1286 549 1286 479 1346.5 c 128,-1,13
 409 1407 409 1407 389 1528 c 1,0,-1
EndSplineSet
Colour: aaaa88
EndChar
StartChar: Dotaccent
Encoding: 65547 -1 267
Width: 1024
Flags: W
Fore
602 1499 m 1,0,-1
 805 1499 l 1,1,-1
 766 1294 l 1,2,-1
 561 1294 l 1,3,-1
 602 1499 l 1,0,-1
EndSplineSet
Colour: aaaa88
EndChar
StartChar: Hungarumlaut
Encoding: 65548 -1 268
Width: 1024
Flags: W
TeX: 78 0 0 0
AnchorPoint: "TopCapMkMk" 638 1120 mark 0
AnchorPoint: "TopCapMkMk" 710 1493 basemark 0
AnchorPoint: "TopCap" 638 1120 mark 0
Fore
883 1526 m 1,0,-1
 1048 1526 l 1,1,-1
 822 1262 l 1,2,-1
 687 1262 l 1,3,-1
 883 1526 l 1,0,-1
554 1527 m 1,4,-1
 714 1527 l 1,5,-1
 505 1262 l 1,6,-1
 368 1262 l 1,7,-1
 554 1527 l 1,4,-1
EndSplineSet
EndChar
StartChar: HepBar
Encoding: 65549 -1 269
Width: 1024
Flags: W
TeX: 78 0 0 0
HStem: 1700 105<436 1267>
Fore
438 1805 m 5,0,-1
 1288 1805 l 5,1,-1
 1267 1700 l 5,2,-1
 417 1700 l 5,3,-1
 438 1805 l 5,0,-1
EndSplineSet
EndChar
StartChar: Uni030F
Encoding: 65550 -1 270
Width: 1024
Flags: W
TeX: 78 0 0 0
AnchorPoint: "TopCapMkMk" 628 1120 mark 0
AnchorPoint: "TopCapMkMk" 700 1493 basemark 0
AnchorPoint: "TopCap" 628 1120 mark 0
Fore
516 1526 m 1,0,-1
 608 1262 l 1,3,-1
 473 1262 l 1,2,-1
 351 1526 l 1,1,-1
 516 1526 l 1,0,-1
845 1527 m 1,4,-1
 927 1262 l 1,7,-1
 790 1262 l 1,6,-1
 685 1527 l 1,5,-1
 845 1527 l 1,4,-1
EndSplineSet
EndChar
StartChar: Uni0311
Encoding: 65551 -1 271
Width: 1024
Flags: W
TeX: 78 0 0 0
AnchorPoint: "TopCap" 730 1120 mark 0
AnchorPoint: "TopCapMkMk" 804 1504 basemark 0
AnchorPoint: "TopCapMkMk" 730 1120 mark 0
Fore
469 1286 m 1,0,-1
 477 1395 477 1395 578 1467 c 128,-1,13
 663 1528 663 1528 822 1528 c 0,11,12
 935 1528 935 1528 1015 1466 c 128,-1,10
 1084 1413 1084 1413 1095 1286 c 1,8,9
 977 1286 l 1,7,-1
 959 1342 959 1342 922 1370 c 128,-1,6
 874 1397 874 1397 792 1397 c 0,4,5
 709 1397 709 1397 660 1368 c 128,-1,3
 596 1330 596 1330 587 1286 c 1,1,2
 469 1286 l 1,0,-1
EndSplineSet
EndChar
StartChar: Macron
Encoding: 65552 -1 272
Width: 1024
Flags: W
TeX: 78 0 0 0
HStem: 1322 148<397 966>
AnchorPoint: "TopCapMkMk" 628 1120 mark 0
AnchorPoint: "TopCapMkMk" 700 1493 basemark 0
AnchorPoint: "TopCap" 628 1120 mark 0
Fore
397 1470 m 1,0,-1
 995 1470 l 1,1,-1
 966 1322 l 1,2,-1
 368 1322 l 1,3,-1
 397 1470 l 1,0,-1
EndSplineSet
EndChar
StartChar: uniFFFD
Encoding: 65533 65533 273
Width: 1087
Flags: W
TeX: 117 0 0 0
HStem: -105 105<-137 888> 254 147<294 520> 1520 90<197 778>
Fore
197 1610 m 1,0,-1
 1222 1610 l 1,1,-1
 888 -105 l 1,2,-1
 -137 -105 l 1,3,-1
 197 1610 l 1,0,-1
294 254 m 1,4,-1
 245 0 l 1,5,-1
 448 0 l 1,6,-1
 497 254 l 1,7,-1
 294 254 l 1,4,-1
520 401 m 1,8,-1
 544 524 l 2,9,10
 554 576 554 576 563 606 c 0,11,12
 571 636 571 636 582 657 c 0,13,14
 594 682 594 682 619 708 c 0,15,16
 644 735 644 735 700 782 c 2,17,-1
 805 868 l 2,18,19
 911 954 911 954 961 1022 c 0,20,21
 1010 1091 1010 1091 1025 1167 c 0,22,23
 1032 1207 1032 1207 1032 1243 c 0,24,25
 1032 1350 1032 1350 963 1423 c 0,26,27
 870 1520 870 1520 686 1520 c 0,28,29
 583 1520 583 1520 481 1492 c 128,-1,30
 379 1464 379 1464 274 1407 c 1,31,-1
 238 1219 l 1,32,33
 348 1286 348 1286 444 1321 c 128,-1,34
 540 1356 540 1356 619 1356 c 0,35,36
 727 1356 727 1356 782 1301 c 0,37,38
 824 1259 824 1259 824 1198 c 0,39,40
 824 1178 824 1178 820 1157 c 0,41,42
 810 1108 810 1108 776 1061 c 0,43,44
 741 1014 741 1014 674 961 c 1,45,-1
 566 872 l 1,46,47
 460 786 460 786 419 721 c 128,-1,48
 378 656 378 656 359 555 c 2,49,-1
 329 401 l 1,50,-1
 520 401 l 1,8,-1
EndSplineSet
EndChar
StartChar: uni0237
Encoding: 567 567 274
Width: 569
Flags: W
TeX: 117 0 0 0
AnchorPoint: "Top" 383 1120 basechar 0
Fore
297 1120 m 1,0,-1
 481 1120 l 1,1,-1
 260 -20 l 1,2,-1
 259 -25 l 2,3,4
 222 -216 222 -216 174 -287 c 0,5,6
 129 -354 129 -354 42 -390 c 0,7,8
 -44 -426 -44 -426 -162 -426 c 2,9,-1
 -231 -426 l 1,10,-1
 -201 -270 l 1,11,-1
 -154 -270 l 2,12,13
 -46 -270 -46 -270 -0 -225 c 0,14,15
 45 -180 45 -180 76 -20 c 2,16,-1
 297 1120 l 1,0,-1
EndSplineSet
EndChar
StartChar: uni02B0
Encoding: 688 688 275
Width: 908
VWidth: 2153
Flags: W
TeX: 117 0 0 0
HStem: 1413 96<561 727.5>
VStem: 756 132<1270.5 1350>
Fore
879 1227 m 2,0,-1
 800 821 l 1,1,-1
 671 821 l 1,2,-1
 750 1223 l 2,3,4
 756 1257 756 1257 756 1284 c 0,5,6
 756 1335 756 1335 734 1366 c 0,7,8
 700 1413 700 1413 613 1413 c 0,9,10
 509 1413 509 1413 437 1356 c 0,11,12
 366 1299 366 1299 347 1201 c 2,13,-1
 273 821 l 1,14,-1
 144 821 l 1,15,-1
 325 1755 l 1,16,-1
 455 1755 l 1,17,-1
 383 1389 l 1,18,19
 441 1449 441 1449 510 1479 c 0,20,21
 578 1509 578 1509 660 1509 c 0,22,23
 795 1509 795 1509 851 1438 c 0,24,25
 888 1389 888 1389 888 1311 c 0,26,27
 888 1272 888 1272 879 1227 c 2,0,-1
EndSplineSet
EndChar
StartChar: uni02B1
Encoding: 689 689 276
Width: 908
VWidth: 2148
Flags: W
TeX: 117 0 0 0
HStem: 1413 96<561 727.5> 1652 81<498 577>
VStem: 756 132<1270.5 1350>
Fore
279 1519 m 18,0,1
 293 1590 293 1590 321 1624 c 0,2,3
 359 1670 359 1670 392 1690 c 0,4,5
 462 1733 462 1733 534 1733 c 0,6,7
 620 1733 620 1733 658 1690 c 9,8,-1
 593 1626 l 17,9,10
 570 1652 570 1652 531 1652 c 0,11,12
 491 1652 491 1652 458 1626 c 0,13,14
 424 1600 424 1600 417 1561 c 2,15,-1
 383 1389 l 1,16,17
 441 1449 441 1449 510 1479 c 0,18,19
 578 1509 578 1509 660 1509 c 0,20,21
 795 1509 795 1509 851 1438 c 0,22,23
 888 1389 888 1389 888 1311 c 0,24,25
 888 1272 888 1272 879 1227 c 2,26,-1
 800 821 l 1,27,-1
 671 821 l 1,28,-1
 750 1223 l 2,29,30
 756 1257 756 1257 756 1284 c 0,31,32
 756 1335 756 1335 734 1366 c 0,33,34
 700 1413 700 1413 613 1413 c 0,35,36
 509 1413 509 1413 437 1356 c 0,37,38
 366 1299 366 1299 347 1201 c 2,39,-1
 273 821 l 1,40,-1
 144 821 l 9,41,-1
 279 1519 l 18,0,1
EndSplineSet
EndChar
StartChar: uni02B2
Encoding: 690 690 277
Width: 398
VWidth: 2101
Flags: W
TeX: 117 0 0 0
HStem: 565 94<-44 50.5> 1473 20G<279 408> 1615 140<330 432>
Fore
279 1493 m 1,0,-1
 408 1493 l 1,1,-1
 275 809 l 2,2,3
 250 681 250 681 182 623 c 128,-1,4
 114 565 114 565 -13 565 c 2,5,-1
 -62 565 l 1,6,-1
 -44 659 l 1,7,-1
 -10 659 l 2,8,9
 64 659 64 659 96 688 c 128,-1,10
 128 717 128 717 146 809 c 2,11,-1
 279 1493 l 1,0,-1
330 1755 m 1,12,-1
 459 1755 l 1,13,-1
 432 1615 l 1,14,-1
 303 1615 l 1,15,-1
 330 1755 l 1,12,-1
EndSplineSet
EndChar
StartChar: uni02B3
Encoding: 691 691 278
Width: 589
VWidth: 2103
Flags: W
TeX: 117 0 0 0
HStem: 1411 98<559.5 678>
Fore
713 1390 m 1,0,1
 694 1401 694 1401 669 1406 c 0,2,3
 645 1411 645 1411 614 1411 c 0,4,5
 505 1411 505 1411 434 1350 c 0,6,7
 364 1289 364 1289 342 1175 c 2,8,-1
 273 821 l 1,9,-1
 144 821 l 1,10,-1
 274 1493 l 1,11,-1
 404 1493 l 1,12,-1
 383 1389 l 1,13,14
 436 1450 436 1450 507 1480 c 0,15,16
 578 1509 578 1509 671 1509 c 0,17,18
 685 1509 685 1509 701 1508 c 0,19,20
 716 1506 716 1506 735 1503 c 1,21,-1
 713 1390 l 1,0,1
EndSplineSet
EndChar
StartChar: uni02B4
Encoding: 692 692 279
Width: 589
VWidth: 2097
Flags: W
TeX: 117 0 0 0
HStem: 805 98<69.5 187.5> 1473 20G<474 603>
Fore
33 924 m 5,0,1
 53 913 53 913 78 908 c 4,2,3
 102 903 102 903 133 903 c 4,4,5
 242 903 242 903 313 964 c 4,6,7
 383 1025 383 1025 405 1139 c 6,8,-1
 474 1493 l 5,9,-1
 603 1493 l 5,10,-1
 473 821 l 5,11,-1
 343 821 l 5,12,-1
 363 925 l 5,13,14
 311 864 311 864 240 835 c 4,15,16
 169 805 169 805 76 805 c 4,17,18
 63 805 63 805 47 806 c 4,19,20
 29 808 29 808 11 811 c 5,21,-1
 33 924 l 5,0,1
EndSplineSet
EndChar
StartChar: uni02B5
Encoding: 693 693 280
Width: 589
VWidth: 1863
Flags: W
TeX: 117 0 0 0
HStem: 565 81<470 554.5> 805 98<69.5 187.5> 1473 20G<474 603>
VStem: 328 127<706 732.5>
Fore
456 738 m 22,0,1
 455 728 455 728 455 719 c 0,2,3
 455 693 455 693 472 673 c 4,4,5
 495 646 495 646 535 646 c 4,6,7
 574 646 574 646 607 673 c 13,8,-1
 648 609 l 21,9,10
 593 565 593 565 506 565 c 4,11,12
 434 565 434 565 381 609 c 4,13,14
 355 630 355 630 336 674 c 4,15,16
 328 692 328 692 328 720 c 0,17,18
 328 745 328 745 335 779 c 6,19,-1
 363 925 l 1,20,21
 311 864 311 864 240 835 c 0,22,23
 169 805 169 805 76 805 c 0,24,25
 63 805 63 805 47 806 c 0,26,27
 28 808 28 808 11 811 c 1,28,-1
 33 924 l 1,29,30
 53 913 53 913 78 908 c 0,31,32
 102 903 102 903 133 903 c 0,33,34
 242 903 242 903 313 964 c 0,35,36
 383 1025 383 1025 405 1139 c 2,37,-1
 474 1493 l 1,38,-1
 603 1493 l 9,39,-1
 456 738 l 22,0,1
EndSplineSet
EndChar
StartChar: uni02B6
Encoding: 694 694 281
Width: 862
VWidth: 1692
Flags: W
TeX: 117 0 0 0
HStem: 821 93<296 496> 1116 93<335 474> 1473 20G<279 409 835 971>
VStem: 628 136<1029 1069.5>
Fore
639 1178 m 1,0,1
 710 1162 710 1162 741 1120 c 0,2,3
 764 1090 764 1090 764 1049 c 0,4,5
 764 1033 764 1033 760 1015 c 0,6,7
 741 918 741 918 657 869 c 0,8,9
 572 821 572 821 420 821 c 2,10,-1
 149 821 l 1,11,-1
 279 1493 l 1,12,-1
 409 1493 l 1,13,-1
 353 1209 l 1,14,-1
 472 1209 l 2,15,16
 540 1209 540 1209 585 1231 c 0,17,18
 631 1253 631 1253 688 1321 c 1,19,-1
 835 1493 l 1,20,-1
 971 1493 l 1,21,-1
 814 1309 l 1,22,23
 766 1253 766 1253 723 1221 c 0,24,25
 680 1188 680 1188 639 1178 c 1,0,1
296 914 m 1,26,-1
 435 914 l 2,27,28
 518 914 518 914 567 939 c 0,29,30
 617 964 617 964 626 1015 c 0,31,32
 628 1025 628 1025 628 1033 c 0,33,34
 628 1070 628 1070 596 1090 c 0,35,36
 557 1116 557 1116 474 1116 c 2,37,-1
 335 1116 l 1,38,-1
 296 914 l 1,26,-1
EndSplineSet
EndChar
StartChar: uni02B7
Encoding: 695 695 282
Width: 1172
VWidth: 2049
Flags: W
TeX: 117 0 0 0
HStem: 1473 20G<204 333 654 806 1128 1256>
Fore
204 1493 m 1,0,-1
 333 1493 l 1,1,-1
 392 969 l 1,2,-1
 654 1493 l 1,3,-1
 806 1493 l 1,4,-1
 865 969 l 1,5,-1
 1128 1493 l 1,6,-1
 1256 1493 l 1,7,-1
 921 821 l 1,8,-1
 769 821 l 1,9,-1
 707 1372 l 1,10,-1
 431 821 l 1,11,-1
 279 821 l 1,12,-1
 204 1493 l 1,0,-1
EndSplineSet
EndChar
StartChar: uni02B8
Encoding: 696 696 283
Width: 848
VWidth: 1641
Flags: W
TeX: 117 0 0 0
HStem: 565 93<95 223.5> 1473 20G<187 323 813 950>
Fore
463 759 m 1,0,1
 385 639 385 639 326 602 c 128,-1,2
 267 565 267 565 180 565 c 2,3,-1
 77 565 l 1,4,-1
 95 658 l 1,5,-1
 171 658 l 2,6,7
 224 658 224 658 257 679 c 0,8,9
 291 701 291 701 342 781 c 1,10,-1
 375 832 l 1,11,-1
 187 1493 l 1,12,-1
 323 1493 l 1,13,-1
 466 967 l 1,14,-1
 813 1493 l 1,15,-1
 950 1493 l 1,16,-1
 463 759 l 1,0,1
EndSplineSet
EndChar
StartChar: afii64937
Encoding: 701 701 288
Width: 651
Flags: W
TeX: 97 0 0 0
Fore
610 1754 m 1,0,-1
 577 1582 l 1,1,-1
 596 1262 l 1,2,-1
 467 1262 l 1,3,-1
 366 1582 l 1,4,-1
 399 1754 l 1,5,-1
 610 1754 l 1,0,-1
EndSplineSet
EndChar
StartChar: uni02BE
Encoding: 702 702 289
Width: 1024
Flags: W
TeX: 117 0 0 0
VStem: 826 125<1547.5 1620.5>
Fore
628 1249 m 9,0,-1
 652 1372 l 17,1,2
 716 1372 716 1372 768 1416 c 0,3,4
 821 1460 821 1460 833 1524 c 0,5,6
 836 1540 836 1540 836 1555 c 0,7,8
 836 1598 836 1598 810 1631 c 0,9,10
 775 1675 775 1675 711 1675 c 9,11,-1
 734 1798 l 17,12,13
 849 1798 849 1798 914 1718 c 0,14,15
 961 1660 961 1660 961 1581 c 0,16,17
 961 1554 961 1554 955 1524 c 0,18,19
 933 1409 933 1409 838 1329 c 128,-1,20
 743 1249 743 1249 628 1249 c 9,0,-1
EndSplineSet
EndChar
StartChar: uni02BF
Encoding: 703 703 290
Width: 1024
Flags: W
TeX: 117 0 0 0
VStem: 665 125<1426.5 1499.5>
Fore
1003 1798 m 9,0,-1
 980 1675 l 17,1,2
 916 1675 916 1675 863 1631 c 128,-1,3
 810 1587 810 1587 798 1523 c 0,4,5
 795 1507 795 1507 795 1492 c 0,6,7
 795 1449 795 1449 821 1416 c 0,8,9
 857 1372 857 1372 921 1372 c 9,10,-1
 897 1249 l 17,11,12
 782 1249 782 1249 717 1329 c 0,13,14
 670 1387 670 1387 670 1466 c 0,15,16
 670 1493 670 1493 676 1523 c 0,17,18
 698 1638 698 1638 793 1718 c 128,-1,19
 888 1798 888 1798 1003 1798 c 9,0,-1
EndSplineSet
EndChar
StartChar: uni02C0
Encoding: 704 704 291
Width: 1024
Flags: W
TeX: 117 0 0 0
Fore
659 1575 m 5,0,1
 582 1575 l 5,26,-1
 600 1669 600 1669 685 1733 c 4,24,25
 771 1798 771 1798 872 1798 c 4,22,23
 976 1798 976 1798 1035 1733 c 4,20,21
 1094 1667 1094 1667 1076 1575 c 132,-1,19
 1058 1483 1058 1483 974 1418 c 4,17,18
 918 1375 918 1375 853 1360 c 13,15,16
 833 1262 l 5,14,-1
 703 1262 l 5,13,-1
 729 1414 l 29,12,-1
 778 1414 l 6,11,-1
 843 1414 843 1414 894 1454 c 132,-1,10
 945 1494 945 1494 956 1551 c 4,8,9
 968 1608 968 1608 931 1647 c 4,6,7
 895 1687 895 1687 831 1687 c 4,4,5
 766 1687 766 1687 715 1648 c 4,2,3
 675 1617 675 1617 659 1575 c 5,0,1
EndSplineSet
EndChar
StartChar: uni02C1
Encoding: 705 705 292
Width: 1024
Flags: W
TeX: 117 0 0 0
HStem: 1262 152<774.5 822> 1687 111<809 912>
VStem: 567 112<1501 1544> 988 81<1575 1650.5>
Fore
988 1575 m 1,0,1
 988 1617 988 1617 960 1648 c 0,2,3
 925 1687 925 1687 860 1687 c 0,4,5
 796 1687 796 1687 744 1647 c 0,6,7
 693 1608 693 1608 681 1551 c 0,8,9
 679 1538 679 1538 679 1525 c 0,10,11
 679 1485 679 1485 707 1454 c 0,12,13
 742 1414 742 1414 807 1414 c 2,14,-1
 856 1414 l 25,15,-1
 822 1262 l 1,16,-1
 692 1262 l 1,17,-1
 710 1360 l 17,18,19
 651 1375 651 1375 613 1418 c 0,20,21
 567 1468 567 1468 567 1534 c 0,22,23
 567 1554 567 1554 571 1575 c 0,24,25
 589 1667 589 1667 674 1733 c 0,26,27
 757 1798 757 1798 861 1798 c 0,28,29
 963 1798 963 1798 1024 1733 c 0,30,31
 1069 1684 1069 1684 1069 1617 c 0,32,33
 1069 1597 1069 1597 1065 1575 c 1,34,-1
 988 1575 l 1,0,1
EndSplineSet
EndChar
StartChar: uni02C2
Encoding: 706 706 293
Width: 1024
Flags: W
TeX: 117 0 0 0
Fore
552 1467 m 1,0,-1
 1090 1712 l 1,1,-1
 1063 1573 l 1,2,-1
 669 1393 l 1,3,-1
 993 1213 l 1,4,-1
 966 1074 l 1,5,-1
 523 1319 l 1,6,-1
 552 1467 l 1,0,-1
EndSplineSet
EndChar
StartChar: uni02C3
Encoding: 707 707 294
Width: 1024
Flags: W
TeX: 117 0 0 0
Fore
1013 1319 m 1,0,-1
 476 1074 l 1,1,-1
 503 1213 l 1,2,-1
 897 1393 l 1,3,-1
 573 1573 l 1,4,-1
 600 1712 l 1,5,-1
 1042 1467 l 1,6,-1
 1013 1319 l 1,0,-1
EndSplineSet
EndChar
StartChar: uni02C4
Encoding: 708 708 295
Width: 1024
Flags: W
TeX: 117 0 0 0
HStem: 1148 21G<661 809>
Fore
661 1148 m 1,0,-1
 511 1638 l 1,1,-1
 650 1638 l 1,2,-1
 761 1279 l 1,3,-1
 1010 1638 l 1,4,-1
 1149 1638 l 1,5,-1
 809 1148 l 1,6,-1
 661 1148 l 1,0,-1
EndSplineSet
EndChar
StartChar: uni02C5
Encoding: 709 709 296
Width: 1024
Flags: W
TeX: 117 0 0 0
HStem: 1148 21G<416 555 915 1054>
Fore
756 1638 m 1,0,-1
 904 1638 l 1,1,-1
 1054 1148 l 1,2,-1
 915 1148 l 1,3,-1
 805 1507 l 1,4,-1
 555 1148 l 1,5,-1
 416 1148 l 1,6,-1
 756 1638 l 1,0,-1
EndSplineSet
EndChar
StartChar: uni02C8
Encoding: 712 712 297
Width: 1024
Flags: W
TeX: 117 0 0 0
Fore
763 1638 m 1,0,-1
 913 1638 l 1,1,-1
 840 1262 l 1,2,-1
 690 1262 l 1,3,-1
 763 1638 l 1,0,-1
EndSplineSet
EndChar
StartChar: uni02CE
Encoding: 718 718 303
Width: 1024
Flags: W
TeX: 117 0 0 0
Fore
289 -89 m 1,0,-1
 710 -336 l 1,1,-1
 650 -426 l 1,2,-1
 198 -225 l 1,3,-1
 289 -89 l 1,0,-1
EndSplineSet
EndChar
StartChar: uni02CF
Encoding: 719 719 304
Width: 1024
Flags: W
TeX: 117 0 0 0
Fore
702 -89 m 1,0,-1
 739 -225 l 1,1,-1
 209 -426 l 1,2,-1
 185 -336 l 1,3,-1
 702 -89 l 1,0,-1
EndSplineSet
EndChar
StartChar: uni02D0
Encoding: 720 720 305
Width: 690
Flags: W
TeX: 117 0 0 0
HStem: 0 21G<63 400>
Fore
373 729 m 5,0,-1
 269 1059 l 5,1,-1
 606 1059 l 5,2,-1
 373 729 l 5,0,-1
295 330 m 5,3,-1
 400 0 l 5,4,-1
 63 0 l 5,5,-1
 295 330 l 5,3,-1
EndSplineSet
EndChar
StartChar: uni02D1
Encoding: 721 721 306
Width: 690
Flags: W
TeX: 117 0 0 0
Fore
373 729 m 1,0,-1
 269 1059 l 1,1,-1
 606 1059 l 1,2,-1
 373 729 l 1,0,-1
EndSplineSet
EndChar
StartChar: uni02D3
Encoding: 723 723 308
Width: 1024
Flags: W
TeX: 117 0 0 0
Fore
644 -60 m 13,0,-1
 620 -183 l 21,1,2
 556 -183 556 -183 504 -227 c 4,3,4
 451 -271 451 -271 439 -335 c 4,5,6
 427 -398 427 -398 462 -442 c 4,7,8
 498 -486 498 -486 562 -486 c 13,9,-1
 538 -609 l 21,10,11
 423 -609 423 -609 358 -529 c 4,12,13
 295 -450 295 -450 317 -335 c 132,-1,14
 339 -220 339 -220 434 -140 c 132,-1,15
 529 -60 529 -60 644 -60 c 13,0,-1
EndSplineSet
EndChar
StartChar: uni02D4
Encoding: 724 724 309
Width: 1024
Flags: W
TeX: 117 0 0 0
Fore
681 -342 m 5,0,-1
 651 -492 l 5,1,-1
 201 -492 l 5,2,-1
 231 -342 l 5,3,-1
 381 -342 l 5,4,-1
 439 -42 l 5,5,-1
 589 -42 l 5,6,-1
 531 -342 l 5,7,-1
 681 -342 l 5,0,-1
EndSplineSet
EndChar
StartChar: uni02D5
Encoding: 725 725 310
Width: 1024
Flags: W
TeX: 117 0 0 0
Fore
260 -192 m 5,0,-1
 289 -42 l 5,1,-1
 739 -42 l 5,2,-1
 710 -192 l 5,3,-1
 560 -192 l 5,4,-1
 501 -492 l 5,5,-1
 351 -492 l 5,6,-1
 410 -192 l 5,7,-1
 260 -192 l 5,0,-1
EndSplineSet
EndChar
StartChar: uni02D6
Encoding: 726 726 311
Width: 1024
Flags: W
TeX: 117 0 0 0
Fore
679 -342 m 21,0,-1
 529 -342 l 5,1,-1
 499 -492 l 5,2,-1
 349 -492 l 5,3,-1
 379 -342 l 5,4,-1
 229 -342 l 5,5,-1
 258 -192 l 5,6,-1
 408 -192 l 5,7,-1
 437 -42 l 5,8,-1
 587 -42 l 5,9,-1
 558 -192 l 5,10,-1
 708 -192 l 13,11,-1
 679 -342 l 21,0,-1
EndSplineSet
EndChar
StartChar: uni02D7
Encoding: 727 727 312
Width: 1024
Flags: W
TeX: 117 0 0 0
Fore
681 -342 m 29,0,-1
 231 -342 l 21,1,-1
 260 -192 l 5,2,-1
 710 -192 l 13,3,-1
 681 -342 l 29,0,-1
EndSplineSet
EndChar
StartChar: uni02DE
Encoding: 734 734 313
Width: 608
Flags: W
TeX: 117 0 0 0
VStem: 303 180<826 858>
Fore
304 874 m 9,0,-1
 -38 677 l 25,1,-1
 -57 809 l 25,2,-1
 533 1147 l 9,3,-1
 572 1027 l 9,4,5
 507 989 507 989 487 885 c 0,6,7
 483 866 483 866 483 850 c 0,8,9
 483 808 483 808 506 777 c 0,10,11
 537 733 537 733 594 733 c 128,-1,12
 651 733 651 733 699 777 c 9,13,-1
 754 670 l 17,14,15
 674 598 674 598 550 598 c 0,16,17
 447 598 447 598 373 670 c 0,18,19
 342 700 342 700 312 779 c 0,20,21
 303 804 303 804 303 848 c 0,22,23
 303 860 303 860 304 874 c 9,0,-1
EndSplineSet
EndChar
StartChar: uni02DF
Encoding: 735 735 314
Width: 1024
Flags: W
TeX: 117 0 0 0
Fore
579 1262 m 5,0,-1
 506 1359 l 5,1,-1
 394 1262 l 5,2,-1
 214 1262 l 5,3,-1
 432 1449 l 5,4,-1
 287 1638 l 5,5,-1
 467 1638 l 5,6,-1
 542 1542 l 5,7,-1
 652 1638 l 5,8,-1
 832 1638 l 5,9,-1
 614 1449 l 5,10,-1
 759 1262 l 5,11,-1
 579 1262 l 5,0,-1
EndSplineSet
EndChar
StartChar: uni02E0
Encoding: 736 736 315
Width: 848
VWidth: 1641
Flags: W
TeX: 117 0 0 0
HStem: 565 96<300.5 497> 1473 20G<211 370 772 931>
VStem: 211 129<638 732> 510 134<763 830.5>
Fore
460 924 m 1,0,1
 350 791 350 791 343 755 c 0,2,3
 340 739 340 739 340 725 c 0,4,5
 340 661 340 661 409 661 c 8,6,7
 491 661 491 661 509 755 c 0,8,9
 510 760 510 760 510 766 c 0,10,11
 510 812 510 812 460 924 c 1,0,1
565 1050 m 1,12,13
 644 869 644 869 644 792 c 0,14,15
 644 780 644 780 642 771 c 0,16,17
 604 565 604 565 390 565 c 16,18,19
 211 565 211 565 211 711 c 0,20,21
 211 738 211 738 217 771 c 0,22,23
 231 840 231 840 405 1051 c 1,24,-1
 211 1493 l 1,25,-1
 370 1493 l 1,26,-1
 509 1171 l 1,27,-1
 772 1493 l 1,28,-1
 931 1493 l 1,29,-1
 565 1050 l 1,12,13
EndSplineSet
EndChar
StartChar: uni02E1
Encoding: 737 737 316
Width: 398
VWidth: 1745
Flags: W
TeX: 117 0 0 0
Fore
330 1755 m 1,0,-1
 459 1755 l 1,1,-1
 277 821 l 1,2,-1
 149 821 l 1,3,-1
 330 1755 l 1,0,-1
EndSplineSet
EndChar
StartChar: uni02E2
Encoding: 738 738 317
Width: 746
VWidth: 1692
Flags: W
TeX: 117 0 0 0
HStem: 804 92<331.5 438.5> 1417 92<459 567>
VStem: 188 128<1248 1304.5> 594 136<1012.5 1072.5>
Fore
775 1473 m 1,0,-1
 755 1369 l 1,1,2
 705 1393 705 1393 648 1405 c 0,3,4
 592 1417 592 1417 529 1417 c 0,5,6
 433 1417 433 1417 380 1392 c 0,7,8
 327 1366 327 1366 318 1316 c 0,9,10
 316 1308 316 1308 316 1301 c 0,11,12
 316 1273 316 1273 340 1256 c 0,13,14
 370 1234 370 1234 470 1214 c 2,15,-1
 512 1206 l 2,16,17
 645 1180 645 1180 694 1134 c 0,18,19
 730 1100 730 1100 730 1045 c 0,20,21
 730 1027 730 1027 726 1006 c 0,22,23
 708 913 708 913 611 858 c 0,24,25
 514 804 514 804 363 804 c 0,26,27
 300 804 300 804 234 814 c 0,28,29
 167 825 167 825 96 846 c 1,30,-1
 118 960 l 1,31,32
 183 928 183 928 249 912 c 0,33,34
 316 896 316 896 384 896 c 0,35,36
 475 896 475 896 529 923 c 0,37,38
 583 949 583 949 592 998 c 0,39,40
 594 1008 594 1008 594 1017 c 0,41,42
 594 1048 594 1048 570 1067 c 0,43,44
 540 1091 540 1091 424 1113 c 2,45,-1
 381 1122 l 1,46,47
 266 1144 266 1144 221 1188 c 0,48,49
 188 1222 188 1222 188 1274 c 0,50,51
 188 1291 188 1291 192 1311 c 0,52,53
 210 1406 210 1406 299 1458 c 4,54,55
 387 1509 387 1509 531 1509 c 4,56,57
 603 1509 603 1509 664 1500 c 128,-1,58
 725 1491 725 1491 775 1473 c 1,0,-1
EndSplineSet
EndChar
StartChar: uni02E3
Encoding: 739 739 318
Width: 848
VWidth: 1692
Flags: W
TeX: 117 0 0 0
HStem: 1473 20G<211 363 779 931>
Fore
931 1493 m 1,0,-1
 584 1166 l 1,1,-1
 815 821 l 1,2,-1
 663 821 l 1,3,-1
 486 1085 l 1,4,-1
 207 821 l 1,5,-1
 55 821 l 1,6,-1
 428 1173 l 1,7,-1
 211 1493 l 1,8,-1
 363 1493 l 1,9,-1
 525 1254 l 1,10,-1
 779 1493 l 1,11,-1
 931 1493 l 1,0,-1
EndSplineSet
EndChar
StartChar: uni02E4
Encoding: 740 740 319
Width: 760
VWidth: 1740
Flags: W
TeX: 117 0 0 0
HStem: 1635 98<511.5 612>
Fore
363 821 m 5,0,-1
 424 1135 l 6,1,2
 430 1167 430 1167 431 1185 c 4,3,4
 433 1203 433 1203 431 1215 c 4,5,6
 428 1230 428 1230 418 1246 c 4,7,8
 406 1264 406 1264 380 1290 c 6,9,-1
 328 1342 l 6,10,11
 274 1396 274 1396 258 1434 c 4,12,13
 247 1461 247 1461 247 1491 c 0,14,15
 247 1506 247 1506 250 1521 c 4,16,17
 268 1617 268 1617 357 1675 c 4,18,19
 447 1733 447 1733 576 1733 c 4,20,21
 648 1733 648 1733 712 1716 c 132,-1,22
 776 1699 776 1699 836 1665 c 5,23,-1
 814 1552 l 5,24,25
 753 1593 753 1593 695 1614 c 4,26,27
 636 1635 636 1635 581 1635 c 4,28,29
 505 1635 505 1635 454 1602 c 4,30,31
 401 1569 401 1569 391 1515 c 4,32,33
 385 1486 385 1486 398 1458 c 4,34,35
 410 1429 410 1429 443 1398 c 5,36,-1
 496 1344 l 5,37,38
 549 1293 549 1293 561 1254 c 4,39,40
 567 1234 567 1234 567 1209 c 128,-1,41
 567 1184 567 1184 561 1154 c 6,42,-1
 496 821 l 5,43,-1
 363 821 l 5,0,-1
EndSplineSet
EndChar
StartChar: uni02E5
Encoding: 741 741 320
Width: 899
Flags: W
TeX: 117 0 0 0
HStem: 0 21G<412 577> 1328 165<345 867>
Fore
577 0 m 9,0,-1
 412 0 l 17,1,-1
 670 1328 l 5,2,-1
 313 1328 l 5,3,-1
 345 1493 l 1,4,-1
 867 1493 l 1,5,-1
 577 0 l 9,0,-1
EndSplineSet
EndChar
StartChar: uni02E6
Encoding: 742 742 321
Width: 899
Flags: W
TeX: 117 0 0 0
HStem: 0 21G<412 577> 996 165<281 641> 1473 20G<705 867>
Fore
641 1161 m 29,0,-1
 705 1493 l 25,1,-1
 867 1493 l 1,2,-1
 577 0 l 9,3,-1
 412 0 l 17,4,-1
 605 996 l 5,5,-1
 248 996 l 5,6,-1
 281 1161 l 5,7,-1
 641 1161 l 29,0,-1
EndSplineSet
EndChar
StartChar: uni02E7
Encoding: 743 743 322
Width: 899
Flags: W
TeX: 117 0 0 0
HStem: 0 21G<412 577> 664 165<216 576> 1473 20G<705 867>
Fore
576 829 m 29,0,-1
 705 1493 l 25,1,-1
 867 1493 l 1,2,-1
 577 0 l 9,3,-1
 412 0 l 17,4,-1
 541 664 l 5,5,-1
 184 664 l 5,6,-1
 216 829 l 5,7,-1
 576 829 l 29,0,-1
EndSplineSet
EndChar
StartChar: uni02E8
Encoding: 744 744 323
Width: 899
Flags: W
TeX: 117 0 0 0
HStem: 0 21G<412 577> 332 165<151 511> 1473 20G<705 867>
Fore
511 497 m 29,0,-1
 705 1493 l 25,1,-1
 867 1493 l 1,2,-1
 577 0 l 9,3,-1
 412 0 l 17,4,-1
 476 332 l 5,5,-1
 119 332 l 5,6,-1
 151 497 l 5,7,-1
 511 497 l 29,0,-1
EndSplineSet
EndChar
StartChar: uni02E9
Encoding: 745 745 324
Width: 899
Flags: W
TeX: 117 0 0 0
HStem: 0 165<87 577> 1473 20G<702 867>
Fore
867 1493 m 21,0,-1
 577 0 l 5,1,-1
 55 0 l 5,2,-1
 87 165 l 5,3,-1
 444 165 l 5,4,-1
 702 1493 l 13,5,-1
 867 1493 l 21,0,-1
EndSplineSet
EndChar
StartChar: uni02EE
Encoding: 750 750 327
Width: 1024
Flags: W
TeX: 117 0 0 0
Fore
495 1638 m 5,0,-1
 645 1638 l 5,1,-1
 572 1262 l 5,2,-1
 422 1262 l 5,3,-1
 495 1638 l 5,0,-1
815 1638 m 5,4,-1
 965 1638 l 5,5,-1
 892 1262 l 5,6,-1
 742 1262 l 5,7,-1
 815 1638 l 5,4,-1
EndSplineSet
EndChar
StartChar: uni0305
Encoding: 773 773 333
Width: 0
Flags: W
TeX: 117 0 0 0
HStem: 1378 148<-988 101>
AnchorPoint: "Top" -519 1120 mark 0
AnchorPoint: "TopMkMk" -419 1638 basemark 0
AnchorPoint: "TopMkMk" -499 1220 mark 0
Fore
-988 1526 m 1,0,-1
 130 1526 l 1,1,-1
 101 1378 l 1,2,-1
 -1017 1378 l 1,3,-1
 -988 1526 l 1,0,-1
EndSplineSet
EndChar
StartChar: hookabovecomb
Encoding: 777 777 337
Width: 0
Flags: W
TeX: 104 0 0 0
HStem: 1262 152<-520 -416> 1687 111<-450.5 -325>
AnchorPoint: "Top" -519 1120 mark 0
AnchorPoint: "TopMkMk" -419 1638 basemark 0
AnchorPoint: "TopMkMk" -499 1220 mark 0
Fore
-590 1575 m 1,0,1
 -667 1575 l 1,26,-1
 -649 1669 -649 1669 -564 1733 c 0,24,25
 -478 1798 -478 1798 -377 1798 c 0,22,23
 -273 1798 -273 1798 -214 1733 c 0,20,21
 -155 1667 -155 1667 -173 1575 c 128,-1,19
 -191 1483 -191 1483 -275 1418 c 0,17,18
 -331 1375 -331 1375 -396 1360 c 9,15,16
 -416 1262 l 1,14,-1
 -546 1262 l 1,13,-1
 -520 1414 l 25,12,-1
 -471 1414 l 2,11,-1
 -406 1414 -406 1414 -355 1454 c 128,-1,10
 -304 1494 -304 1494 -293 1551 c 0,8,9
 -281 1608 -281 1608 -318 1647 c 0,6,7
 -354 1687 -354 1687 -418 1687 c 0,4,5
 -483 1687 -483 1687 -534 1648 c 0,2,3
 -574 1617 -574 1617 -590 1575 c 1,0,1
EndSplineSet
EndChar
StartChar: uni030E
Encoding: 782 782 342
Width: 0
Flags: W
TeX: 117 0 0 0
AnchorPoint: "Top" -519 1120 mark 0
AnchorPoint: "TopMkMk" -419 1638 basemark 0
AnchorPoint: "TopMkMk" -499 1220 mark 0
Fore
-643 1638 m 1,0,-1
 -493 1638 l 1,1,-1
 -566 1262 l 1,2,-1
 -716 1262 l 1,3,-1
 -643 1638 l 1,0,-1
-323 1638 m 1,4,-1
 -173 1638 l 1,5,-1
 -246 1262 l 1,6,-1
 -396 1262 l 1,7,-1
 -323 1638 l 1,4,-1
EndSplineSet
EndChar
StartChar: uni030F
Encoding: 783 783 343
Width: 0
Flags: W
TeX: 117 0 0 0
AnchorPoint: "Top" -519 1120 mark 0
AnchorPoint: "TopMkMk" -419 1638 basemark 0
AnchorPoint: "TopMkMk" -499 1220 mark 0
Fore
-660 1638 m 1,0,-1
 -528 1262 l 1,1,-1
 -663 1262 l 1,2,-1
 -838 1638 l 1,3,-1
 -660 1638 l 1,0,-1
-326 1638 m 1,4,-1
 -209 1262 l 1,5,-1
 -346 1262 l 1,6,-1
 -496 1638 l 1,7,-1
 -326 1638 l 1,4,-1
EndSplineSet
EndChar
StartChar: uni0318
Encoding: 792 792 352
Width: 0
Flags: W
TeX: 117 0 0 0
HStem: -342 150<-998 -698>
AnchorPoint: "BottomMkMk" -740 0 mark 0
AnchorPoint: "BottomMkMk" -836 -493 basemark 0
AnchorPoint: "Bottom" -740 0 mark 0
Fore
-669 -42 m 1,0,-1
 -519 -42 l 1,1,-1
 -607 -492 l 1,2,-1
 -757 -492 l 1,3,-1
 -727 -342 l 1,4,-1
 -1027 -342 l 1,5,-1
 -998 -192 l 1,6,-1
 -698 -192 l 1,7,-1
 -669 -42 l 1,0,-1
EndSplineSet
EndChar
StartChar: uni0319
Encoding: 793 793 353
Width: 0
Flags: W
TeX: 117 0 0 0
HStem: -342 150<-877 -577>
AnchorPoint: "BottomMkMk" -740 0 mark 0
AnchorPoint: "BottomMkMk" -836 -493 basemark 0
AnchorPoint: "Bottom" -740 0 mark 0
Fore
-819 -42 m 1,0,-1
 -848 -192 l 1,1,-1
 -548 -192 l 1,2,-1
 -577 -342 l 1,3,-1
 -877 -342 l 1,4,-1
 -907 -492 l 1,5,-1
 -1057 -492 l 1,6,-1
 -969 -42 l 1,7,-1
 -819 -42 l 1,0,-1
EndSplineSet
EndChar
StartChar: uni031A
Encoding: 794 794 354
Width: 0
Flags: W
TeX: 117 0 0 0
HStem: 1488 150<-722 -96>
AnchorPoint: "Top" -519 1120 mark 0
AnchorPoint: "TopMkMk" -419 1638 basemark 0
AnchorPoint: "TopMkMk" -499 1220 mark 0
Fore
-96 1638 m 1,0,-1
 -169 1262 l 1,1,-1
 -319 1262 l 1,2,-1
 -275 1488 l 1,3,-1
 -751 1488 l 1,4,-1
 -722 1638 l 1,5,-1
 -96 1638 l 1,0,-1
EndSplineSet
EndChar
StartChar: uni031B
Encoding: 795 795 355
Width: 105
Flags: W
TeX: 117 0 0 0
HStem: 994 74<-58 58.5>
VStem: 207 139<1224.5 1293>
AnchorPoint: "Horn" -13 1001 mark 0
Fore
-43 1068 m 29,0,-1
 26 1068 l 6,1,2
 91 1068 91 1068 141 1108 c 4,3,4
 193 1148 193 1148 204 1205 c 4,5,6
 207 1218 207 1218 207 1231 c 0,7,8
 207 1271 207 1271 179 1301 c 13,9,-1
 301 1377 l 21,10,11
 346 1326 346 1326 346 1260 c 0,12,13
 346 1240 346 1240 342 1219 c 4,14,15
 324 1127 324 1127 239 1062 c 4,16,17
 182 1018 182 1018 119 1004 c 4,18,19
 72 994 72 994 -58 994 c 13,20,-1
 -43 1068 l 29,0,-1
EndSplineSet
EndChar
StartChar: uni031C
Encoding: 796 796 356
Width: 0
Flags: W
TeX: 117 0 0 0
AnchorPoint: "BottomMkMk" -740 0 mark 0
AnchorPoint: "BottomMkMk" -836 -493 basemark 0
AnchorPoint: "Bottom" -740 0 mark 0
Fore
-611 -60 m 13,0,-1
 -635 -183 l 21,1,2
 -699 -183 -699 -183 -751 -227 c 0,3,4
 -804 -271 -804 -271 -816 -335 c 0,5,6
 -828 -398 -828 -398 -793 -442 c 0,7,8
 -757 -486 -757 -486 -693 -486 c 9,9,-1
 -717 -609 l 17,10,11
 -832 -609 -832 -609 -897 -529 c 0,12,13
 -960 -450 -960 -450 -938 -335 c 128,-1,14
 -916 -220 -916 -220 -821 -140 c 128,-1,15
 -726 -60 -726 -60 -611 -60 c 13,0,-1
EndSplineSet
EndChar
StartChar: uni031D
Encoding: 797 797 357
Width: 0
Flags: W
TeX: 117 0 0 0
HStem: -492 150<-1057 -607>
AnchorPoint: "BottomMkMk" -740 0 mark 0
AnchorPoint: "BottomMkMk" -836 -493 basemark 0
AnchorPoint: "Bottom" -740 0 mark 0
Fore
-577 -342 m 1,0,-1
 -607 -492 l 1,1,-1
 -1057 -492 l 1,2,-1
 -1027 -342 l 1,3,-1
 -877 -342 l 1,4,-1
 -819 -42 l 1,5,-1
 -669 -42 l 1,6,-1
 -727 -342 l 1,7,-1
 -577 -342 l 1,0,-1
EndSplineSet
EndChar
StartChar: uni031E
Encoding: 798 798 358
Width: 0
Flags: W
TeX: 117 0 0 0
HStem: -192 150<-969 -519>
AnchorPoint: "BottomMkMk" -740 0 mark 0
AnchorPoint: "BottomMkMk" -836 -493 basemark 0
AnchorPoint: "Bottom" -740 0 mark 0
Fore
-998 -192 m 1,0,-1
 -969 -42 l 1,1,-1
 -519 -42 l 1,2,-1
 -548 -192 l 1,3,-1
 -698 -192 l 1,4,-1
 -757 -492 l 1,5,-1
 -907 -492 l 1,6,-1
 -848 -192 l 1,7,-1
 -998 -192 l 1,0,-1
EndSplineSet
EndChar
StartChar: uni031F
Encoding: 799 799 359
Width: 0
Flags: W
TeX: 117 0 0 0
HStem: -342 150<-998 -848 -698 -577>
AnchorPoint: "BottomMkMk" -740 0 mark 0
AnchorPoint: "BottomMkMk" -836 -493 basemark 0
AnchorPoint: "Bottom" -740 0 mark 0
Fore
-577 -342 m 17,0,-1
 -727 -342 l 1,1,-1
 -757 -492 l 1,2,-1
 -907 -492 l 1,3,-1
 -877 -342 l 1,4,-1
 -1027 -342 l 1,5,-1
 -998 -192 l 1,6,-1
 -848 -192 l 1,7,-1
 -819 -42 l 1,8,-1
 -669 -42 l 1,9,-1
 -698 -192 l 1,10,-1
 -548 -192 l 9,11,-1
 -577 -342 l 17,0,-1
EndSplineSet
EndChar
StartChar: uni0320
Encoding: 800 800 360
Width: 0
Flags: W
TeX: 117 0 0 0
HStem: -342 150<-998 -577>
AnchorPoint: "Bottom" -740 0 mark 0
AnchorPoint: "BottomMkMk" -836 -493 basemark 0
AnchorPoint: "BottomMkMk" -740 0 mark 0
Fore
-577 -342 m 25,0,-1
 -1027 -342 l 17,1,-1
 -998 -192 l 1,2,-1
 -548 -192 l 9,3,-1
 -577 -342 l 25,0,-1
EndSplineSet
EndChar
StartChar: uni0321
Encoding: 801 801 361
Width: 0
Flags: W
TeX: 117 0 0 0
HStem: -426 135<-690 -575.5>
Fore
-159 420 m 29,0,-1
 -255 -70 l 22,1,2
 -278 -189 -278 -189 -319 -245 c 4,3,4
 -372 -319 -372 -319 -422 -354 c 4,5,6
 -523 -426 -523 -426 -628 -426 c 4,7,8
 -752 -426 -752 -426 -804 -354 c 13,9,-1
 -707 -247 l 21,10,11
 -676 -291 -676 -291 -619 -291 c 4,12,13
 -554 -291 -554 -291 -514 -247 c 4,14,15
 -463 -191 -463 -191 -453 -139 c 14,16,-1
 -344 420 l 29,17,-1
 -159 420 l 29,0,-1
EndSplineSet
EndChar
StartChar: uni0322
Encoding: 802 802 362
Width: 0
Flags: W
TeX: 117 0 0 0
HStem: -426 135<-257 -131.5>
VStem: -452 181<-200.5 -158>
Fore
-344 420 m 29,0,-1
 -159 420 l 29,1,-1
 -268 -139 l 22,2,3
 -271 -152 -271 -152 -271 -166 c 0,4,5
 -271 -205 -271 -205 -249 -247 c 4,6,7
 -225 -291 -225 -291 -160 -291 c 4,8,9
 -103 -291 -103 -291 -56 -247 c 13,10,-1
 -1 -354 l 21,11,12
 -81 -426 -81 -426 -205 -426 c 4,13,14
 -309 -426 -309 -426 -383 -354 c 4,15,16
 -419 -319 -419 -319 -444 -245 c 4,17,18
 -452 -220 -452 -220 -452 -181 c 0,19,20
 -452 -135 -452 -135 -440 -70 c 14,21,-1
 -344 420 l 29,0,-1
EndSplineSet
EndChar
StartChar: uni0326
Encoding: 806 806 366
Width: 0
Flags: W
TeX: 117 0 0 0
AnchorPoint: "BottomMkMk" -740 0 mark 0
AnchorPoint: "BottomMkMk" -836 -493 basemark 0
AnchorPoint: "Bottom" -740 0 mark 0
Fore
-865 -124 m 1,0,-1
 -654 -124 l 1,1,-1
 -676 -238 l 1,2,-1
 -890 -492 l 1,3,-1
 -1019 -492 l 1,4,-1
 -887 -238 l 1,5,-1
 -865 -124 l 1,0,-1
EndSplineSet
EndChar
StartChar: uni032A
Encoding: 810 810 370
Width: 0
Flags: W
TeX: 117 0 0 0
HStem: -417 300<-1058 -518> -267 150<-937 -460>
AnchorPoint: "BottomMkMk" -740 0 mark 0
AnchorPoint: "BottomMkMk" -836 -493 basemark 0
AnchorPoint: "Bottom" -740 0 mark 0
Fore
-518 -417 m 1,0,-1
 -668 -417 l 1,1,-1
 -639 -267 l 1,2,-1
 -937 -267 l 1,3,-1
 -966 -417 l 1,4,-1
 -1116 -417 l 1,5,-1
 -1058 -117 l 1,6,-1
 -460 -117 l 1,7,-1
 -518 -417 l 1,0,-1
EndSplineSet
EndChar
StartChar: uni032B
Encoding: 811 811 371
Width: 0
Flags: W
TeX: 117 0 0 0
AnchorPoint: "BottomMkMk" -740 0 mark 0
AnchorPoint: "BottomMkMk" -836 -493 basemark 0
AnchorPoint: "Bottom" -740 0 mark 0
Fore
-700 -130 m 17,0,1
 -713 -194 -713 -194 -677 -238 c 0,2,3
 -642 -282 -642 -282 -598 -282 c 128,-1,4
 -554 -282 -554 -282 -501 -238 c 0,5,6
 -449 -194 -449 -194 -436 -130 c 9,7,-1
 -314 -130 l 17,8,9
 -336 -242 -336 -242 -432 -324 c 0,10,11
 -526 -404 -526 -404 -622 -404 c 0,12,13
 -704 -404 -704 -404 -780 -324 c 0,14,15
 -797 -306 -797 -306 -795 -304 c 1,16,17
 -806 -314 -806 -314 -818 -324 c 0,18,19
 -912 -404 -912 -404 -1008 -404 c 0,20,21
 -1102 -404 -1102 -404 -1166 -324 c 128,-1,22
 -1230 -244 -1230 -244 -1208 -130 c 9,23,-1
 -1086 -130 l 17,24,25
 -1099 -194 -1099 -194 -1063 -238 c 0,26,27
 -1028 -282 -1028 -282 -984 -282 c 128,-1,28
 -940 -282 -940 -282 -887 -238 c 0,29,30
 -835 -194 -835 -194 -822 -130 c 9,31,-1
 -700 -130 l 17,0,1
EndSplineSet
EndChar
StartChar: uni0337
Encoding: 823 823 383
Width: 0
Flags: W
TeX: 117 0 0 0
Fore
-1196 -94 m 17,0,-1
 -1282 -10 l 1,1,-1
 -65 1208 l 1,2,-1
 21 1122 l 13,3,-1
 -1196 -94 l 17,0,-1
EndSplineSet
EndChar
StartChar: uni0338
Encoding: 824 824 384
Width: 0
Flags: W
TeX: 117 0 0 0
Fore
-1592 -66 m 17,0,-1
 -1682 33 l 1,1,-1
 -45 1559 l 5,2,-1
 45 1460 l 9,3,-1
 -1592 -66 l 17,0,-1
EndSplineSet
EndChar
StartChar: uni033A
Encoding: 826 826 386
Width: 0
Flags: W
TeX: 117 0 0 0
HStem: -417 150<-1116 -639> -417 300<-1058 -518 -610 -518>
AnchorPoint: "BottomMkMk" -740 0 mark 0
AnchorPoint: "BottomMkMk" -836 -493 basemark 0
AnchorPoint: "Bottom" -740 0 mark 0
Fore
-460 -117 m 1,0,-1
 -518 -417 l 1,1,-1
 -1116 -417 l 1,2,-1
 -1058 -117 l 1,3,-1
 -908 -117 l 1,4,-1
 -937 -267 l 1,5,-1
 -639 -267 l 1,6,-1
 -610 -117 l 1,7,-1
 -460 -117 l 1,0,-1
EndSplineSet
EndChar
StartChar: uni033B
Encoding: 827 827 387
Width: 0
Flags: W
TeX: 117 0 0 0
HStem: -492 150<-1057 -607> -192 150<-969 -519>
AnchorPoint: "BottomMkMk" -740 0 mark 0
AnchorPoint: "BottomMkMk" -836 -493 basemark 0
AnchorPoint: "Bottom" -740 0 mark 0
Fore
-969 -42 m 17,0,-1
 -519 -42 l 1,1,-1
 -607 -492 l 1,2,-1
 -1057 -492 l 9,3,-1
 -969 -42 l 17,0,-1
-848 -192 m 9,4,-1
 -877 -342 l 17,5,-1
 -727 -342 l 1,6,-1
 -698 -192 l 1,7,-1
 -848 -192 l 9,4,-1
EndSplineSet
EndChar
StartChar: uni033C
Encoding: 828 828 388
Width: 0
Flags: W
TeX: 117 0 0 0
HStem: -252 122<-1020 -906 -620 -520>
AnchorPoint: "BottomMkMk" -740 0 mark 0
AnchorPoint: "BottomMkMk" -836 -493 basemark 0
AnchorPoint: "Bottom" -740 0 mark 0
Fore
-748 -374 m 9,0,-1
 -870 -374 l 17,1,2
 -859 -320 -859 -320 -895 -276 c 0,3,4
 -914 -252 -914 -252 -988 -252 c 0,5,6
 -1052 -252 -1052 -252 -1105 -296 c 0,7,8
 -1169 -350 -1169 -350 -1180 -404 c 9,9,-1
 -1262 -404 l 17,10,11
 -1239 -290 -1239 -290 -1144 -210 c 0,12,13
 -1048 -130 -1048 -130 -954 -130 c 0,14,15
 -858 -130 -858 -130 -796 -210 c 0,16,17
 -788 -220 -788 -220 -781 -230 c 1,18,19
 -782 -228 -782 -228 -758 -210 c 0,20,21
 -650 -130 -650 -130 -568 -130 c 0,22,23
 -472 -130 -472 -130 -410 -210 c 0,24,25
 -346 -292 -346 -292 -368 -404 c 9,26,-1
 -450 -404 l 17,27,28
 -438 -344 -438 -344 -483 -296 c 0,29,30
 -523 -252 -523 -252 -582 -252 c 0,31,32
 -658 -252 -658 -252 -685 -276 c 0,33,34
 -738 -325 -738 -325 -748 -374 c 9,0,-1
EndSplineSet
EndChar
StartChar: uni033D
Encoding: 829 829 389
Width: 0
Flags: W
TeX: 117 0 0 0
AnchorPoint: "TopMkMk" -499 1220 mark 0
AnchorPoint: "TopMkMk" -419 1638 basemark 0
AnchorPoint: "Top" -519 1120 mark 0
Fore
-399 1262 m 1,0,-1
 -472 1359 l 1,1,-1
 -584 1262 l 1,2,-1
 -764 1262 l 1,3,-1
 -546 1449 l 1,4,-1
 -691 1638 l 1,5,-1
 -511 1638 l 1,6,-1
 -436 1542 l 1,7,-1
 -326 1638 l 1,8,-1
 -146 1638 l 1,9,-1
 -364 1449 l 1,10,-1
 -219 1262 l 1,11,-1
 -399 1262 l 1,0,-1
EndSplineSet
EndChar
StartChar: uni033E
Encoding: 830 830 390
Width: 0
Flags: W
TeX: 117 0 0 0
AnchorPoint: "TopMkMk" -499 1220 mark 0
AnchorPoint: "TopMkMk" -419 1638 basemark 0
AnchorPoint: "Top" -519 1120 mark 0
Fore
-514 1546 m 1,0,1
 -540 1583 -540 1583 -548 1615 c 128,-1,2
 -556 1647 -556 1647 -548 1685 c 0,3,4
 -531 1776 -531 1776 -448 1827 c 0,5,6
 -364 1878 -364 1878 -229 1880 c 1,7,-1
 -253 1755 l 1,8,9
 -335 1753 -335 1753 -376 1735 c 0,10,11
 -415 1717 -415 1717 -423 1679 c 0,12,13
 -425 1666 -425 1666 -418 1650 c 0,14,15
 -413 1633 -413 1633 -397 1611 c 2,16,-1
 -353 1554 l 1,17,18
 -327 1517 -327 1517 -319 1485 c 0,19,20
 -312 1453 -312 1453 -319 1415 c 0,21,22
 -337 1324 -337 1324 -420 1273 c 128,-1,23
 -503 1222 -503 1222 -639 1220 c 1,24,-1
 -615 1345 l 1,25,26
 -532 1347 -532 1347 -492 1365 c 128,-1,27
 -452 1383 -452 1383 -445 1421 c 0,28,29
 -442 1434 -442 1434 -449 1450 c 0,30,31
 -455 1467 -455 1467 -471 1489 c 2,32,-1
 -514 1546 l 1,0,1
EndSplineSet
EndChar
StartChar: uni0346
Encoding: 838 838 392
Width: 0
Flags: W
TeX: 117 0 0 0
HStem: 1309 300<-726 -186> 1459 150<-605 -128>
AnchorPoint: "TopMkMk" -499 1220 mark 0
AnchorPoint: "TopMkMk" -419 1638 basemark 0
AnchorPoint: "Top" -519 1120 mark 0
Fore
-186 1309 m 1,0,-1
 -336 1309 l 1,1,-1
 -307 1459 l 1,2,-1
 -605 1459 l 1,3,-1
 -634 1309 l 1,4,-1
 -784 1309 l 1,5,-1
 -726 1609 l 1,6,-1
 -128 1609 l 1,7,-1
 -186 1309 l 1,0,-1
EndSplineSet
EndChar
StartChar: uni0347
Encoding: 839 839 393
Width: 0
Flags: W
TeX: 117 0 0 0
HStem: -462 120<-1031 -605> -192 120<-979 -552>
AnchorPoint: "BottomMkMk" -740 0 mark 0
AnchorPoint: "BottomMkMk" -830 -463 basemark 0
AnchorPoint: "Bottom" -740 0 mark 0
Fore
-605 -462 m 25,0,-1
 -1055 -462 l 17,1,-1
 -1031 -342 l 5,2,-1
 -581 -342 l 13,3,-1
 -605 -462 l 25,0,-1
-552 -192 m 25,4,-1
 -1002 -192 l 17,5,-1
 -979 -72 l 1,6,-1
 -529 -72 l 9,7,-1
 -552 -192 l 25,4,-1
EndSplineSet
EndChar
StartChar: uni0348
Encoding: 840 840 394
Width: 0
Flags: W
TeX: 117 0 0 0
AnchorPoint: "BottomMkMk" -740 0 mark 0
AnchorPoint: "BottomMkMk" -836 -493 basemark 0
AnchorPoint: "Bottom" -740 0 mark 0
Fore
-997 -116 m 1,0,-1
 -847 -116 l 1,1,-1
 -921 -492 l 1,2,-1
 -1071 -492 l 1,3,-1
 -997 -116 l 1,0,-1
-677 -116 m 1,4,-1
 -527 -116 l 1,5,-1
 -601 -492 l 1,6,-1
 -751 -492 l 1,7,-1
 -677 -116 l 1,4,-1
EndSplineSet
EndChar
StartChar: uni0349
Encoding: 841 841 395
Width: 0
Flags: W
TeX: 117 0 0 0
HStem: -192 150<-973 -702>
AnchorPoint: "BottomMkMk" -740 0 mark 0
AnchorPoint: "BottomMkMk" -836 -493 basemark 0
AnchorPoint: "Bottom" -740 0 mark 0
Fore
-973 -42 m 1,0,-1
 -523 -42 l 1,1,-1
 -611 -492 l 1,2,-1
 -761 -492 l 1,3,-1
 -702 -192 l 1,4,-1
 -1002 -192 l 1,5,-1
 -973 -42 l 1,0,-1
EndSplineSet
EndChar
StartChar: uni034A
Encoding: 842 842 396
Width: 0
Flags: W
TeX: 117 0 0 0
HStem: 1309 127<-369 -304.5> 1464 127<-611.5 -547>
AnchorPoint: "TopMkMk" -499 1220 mark 0
AnchorPoint: "TopMkMk" -419 1638 basemark 0
AnchorPoint: "Top" -519 1120 mark 0
Fore
-443 1535 m 9,0,-1
 -357 1638 l 1,1,-1
 -248 1638 l 1,2,-1
 -387 1469 l 17,3,4
 -378 1460 -378 1460 -359 1446 c 0,5,6
 -345 1436 -345 1436 -332 1436 c 0,7,8
 -294 1436 -294 1436 -269 1472 c 0,9,10
 -244 1509 -244 1509 -226 1591 c 1,11,-1
 -101 1591 l 1,12,13
 -129 1456 -129 1456 -194 1382 c 0,14,15
 -259 1309 -259 1309 -350 1309 c 0,16,17
 -388 1309 -388 1309 -418 1323 c 0,18,19
 -445 1336 -445 1336 -473 1365 c 9,20,-1
 -559 1262 l 1,21,-1
 -669 1262 l 1,22,-1
 -529 1430 l 17,23,24
 -540 1441 -540 1441 -557 1454 c 0,25,26
 -571 1464 -571 1464 -584 1464 c 0,27,28
 -622 1464 -622 1464 -647 1428 c 0,29,30
 -673 1391 -673 1391 -690 1309 c 1,31,-1
 -815 1309 l 1,32,33
 -787 1444 -787 1444 -722 1518 c 0,34,35
 -657 1591 -657 1591 -566 1591 c 0,36,37
 -528 1591 -528 1591 -498 1577 c 0,38,39
 -471 1564 -471 1564 -443 1535 c 9,0,-1
EndSplineSet
EndChar
StartChar: uni034B
Encoding: 843 843 397
Width: 0
Flags: W
TeX: 117 0 0 0
AnchorPoint: "TopMkMk" -499 1220 mark 0
AnchorPoint: "TopMkMk" -419 1638 basemark 0
AnchorPoint: "Top" -519 1120 mark 0
Fore
-560 1311 m 1,0,-1
 -410 1311 l 1,1,-1
 -439 1161 l 1,2,-1
 -589 1161 l 1,3,-1
 -560 1311 l 1,0,-1
-476 1740 m 1,4,-1
 -326 1740 l 1,5,-1
 -355 1590 l 1,6,-1
 -505 1590 l 1,7,-1
 -476 1740 l 1,4,-1
EndSplineSet
Refer: 261 -1 N 1 0 0 1 -1138 47 0
EndChar
StartChar: uni034D
Encoding: 845 845 399
Width: 0
Flags: W
TeX: 117 0 0 0
HStem: -317 100<-1045 -538>
AnchorPoint: "BottomMkMk" -740 0 mark 0
AnchorPoint: "BottomMkMk" -836 -493 basemark 0
AnchorPoint: "Bottom" -740 0 mark 0
Fore
-720 -472 m 1,0,-1
 -558 -317 l 1,1,-1
 -1045 -317 l 1,2,-1
 -943 -472 l 1,3,-1
 -1070 -472 l 1,4,-1
 -1205 -267 l 1,5,-1
 -990 -62 l 1,6,-1
 -863 -62 l 1,7,-1
 -1025 -217 l 1,8,-1
 -538 -217 l 1,9,-1
 -640 -62 l 1,10,-1
 -514 -62 l 1,11,-1
 -379 -267 l 1,12,-1
 -594 -472 l 1,13,-1
 -720 -472 l 1,0,-1
EndSplineSet
EndChar
StartChar: uni034E
Encoding: 846 846 400
Width: 0
Flags: W
TeX: 117 0 0 0
AnchorPoint: "BottomMkMk" -740 0 mark 0
AnchorPoint: "BottomMkMk" -836 -493 basemark 0
AnchorPoint: "Bottom" -740 0 mark 0
Fore
-786 -492 m 9,0,-1
 -886 -492 l 17,8,-1
 -841 -261 l 1,7,-1
 -1021 -393 l 1,6,-1
 -997 -267 l 1,5,-1
 -758 -92 l 1,4,-1
 -587 -267 l 1,3,-1
 -611 -393 l 1,2,-1
 -741 -261 l 1,1,-1
 -786 -492 l 9,0,-1
EndSplineSet
EndChar
StartChar: uni0360
Encoding: 864 864 401
Width: 0
Flags: W
TeX: 117 0 0 0
HStem: 1309 127<392.5 548.5> 1464 127<-214.5 -56.5>
Fore
148 1370 m 2,0,-1
 15 1425 l 6,1,2
 -11 1436 -11 1436 -86 1454 c 4,3,4
 -128 1464 -128 1464 -164 1464 c 4,5,6
 -265 1464 -265 1464 -325 1428 c 4,7,8
 -405 1380 -405 1380 -423 1309 c 1,9,-1
 -585 1309 l 1,10,11
 -555 1444 -555 1444 -428 1518 c 0,12,13
 -302 1591 -302 1591 -102 1591 c 0,14,15
 -11 1591 -11 1591 50 1577 c 0,16,17
 104 1564 104 1564 187 1530 c 2,18,-1
 321 1475 l 2,19,20
 347 1464 347 1464 422 1446 c 0,21,22
 464 1436 464 1436 500 1436 c 0,23,24
 597 1436 597 1436 661 1472 c 0,25,26
 740 1516 740 1516 759 1591 c 1,27,-1
 921 1591 l 1,28,29
 891 1456 891 1456 764 1382 c 0,30,31
 638 1309 638 1309 438 1309 c 0,32,33
 347 1309 347 1309 286 1323 c 0,34,35
 231 1336 231 1336 148 1370 c 2,0,-1
EndSplineSet
EndChar
StartChar: uni0361
Encoding: 865 865 402
Width: 0
Flags: W
TeX: 117 0 0 0
Fore
925 1321 m 1,0,-1
 787 1321 l 1,1,2
 764 1398 764 1398 614 1434 c 0,3,4
 459 1471 459 1471 172 1471 c 0,5,6
 -112 1471 -112 1471 -277 1434 c 0,7,8
 -443 1397 -443 1397 -501 1321 c 1,9,-1
 -639 1321 l 1,10,11
 -587 1464 -587 1464 -375 1536 c 128,-1,12
 -163 1608 -163 1608 199 1608 c 128,-1,13
 561 1608 561 1608 745 1536 c 0,14,15
 925 1465 925 1465 925 1327 c 0,16,17
 925 1321 l 1,0,-1
EndSplineSet
EndChar
StartChar: uni0362
Encoding: 866 866 403
Width: 0
Flags: W
TeX: 117 0 0 0
HStem: -317 100<-1061 590>
AnchorPoint: "BottomMkMk" -740 0 mark 0
AnchorPoint: "BottomMkMk" -836 -493 basemark 0
AnchorPoint: "Bottom" -740 0 mark 0
Fore
-1081 -317 m 9,0,-1
 -1061 -217 l 17,8,-1
 590 -217 l 1,7,-1
 488 -62 l 1,6,-1
 614 -62 l 1,5,-1
 749 -267 l 1,4,-1
 534 -472 l 1,3,-1
 408 -472 l 1,2,-1
 570 -317 l 1,1,-1
 -1081 -317 l 9,0,-1
EndSplineSet
EndChar
StartChar: Hbar
Encoding: 294 294 435
Width: 1540
Flags: W
TeX: 72 0 0 0
HStem: 0 21G<55 257 991 1193> 711 170<428 1129> 1120 170<151 273 508 1209 1444 1563> 1120 373<345 1209 1281 1563>
Fore
1162 881 m 9,3,-1
 1209 1120 l 17,2,-1
 475 1120 l 9,1,-1
 428 881 l 1,2,-1
 1162 881 l 9,3,-1
1193 0 m 17,6,-1
 991 0 l 1,7,-1
 1129 711 l 1,8,-1
 395 711 l 1,9,-1
 257 0 l 1,10,-1
 55 0 l 1,11,-1
 273 1120 l 1,10,-1
 119 1120 l 1,9,-1
 152 1290 l 5,8,-1
 306 1290 l 5,7,-1
 345 1493 l 1,0,-1
 547 1493 l 1,1,-1
 508 1290 l 5,4,-1
 1242 1290 l 5,3,-1
 1281 1493 l 1,4,-1
 1483 1493 l 1,5,-1
 1444 1290 l 5,7,-1
 1596 1290 l 5,8,-1
 1563 1120 l 1,9,-1
 1411 1120 l 9,10,-1
 1193 0 l 17,6,-1
EndSplineSet
EndChar
StartChar: hbar
Encoding: 295 295 436
Width: 1298
Flags: W
TeX: 104 0 0 0
HStem: 0 21G<72 257 826 1010> 987 160<770 842> 1284 125<191 322 531 833> 1284 272<375 833>
VStem: 969 189<784 834>
Fore
441 946 m 17,14,15
 527 1047 527 1047 625 1097 c 128,-1,16
 725 1147 725 1147 842 1147 c 0,17,18
 1035 1147 1035 1147 1111 1028 c 128,-1,19
 1158 953 1158 953 1158 834 c 0,0,0
 1158 763 1158 763 1141 676 c 2,0,-1
 1010 0 l 1,1,-1
 826 0 l 1,2,-1
 956 670 l 2,3,4
 969 733 969 733 969 784 c 0,0,0
 969 860 969 860 941 908 c 128,-1,5
 894 987 894 987 770 987 c 0,6,7
 621 987 621 987 516 892 c 128,-1,8
 412 797 412 797 380 633 c 2,9,-1
 257 0 l 1,10,-1
 72 0 l 1,11,-1
 322 1284 l 5,10,-1
 168 1284 l 5,9,-1
 192 1409 l 5,8,-1
 346 1409 l 5,7,-1
 375 1556 l 1,6,-1
 560 1556 l 1,5,-1
 531 1409 l 5,4,-1
 857 1409 l 5,3,-1
 833 1284 l 5,2,-1
 507 1284 l 13,1,-1
 441 946 l 17,14,15
EndSplineSet
EndChar
StartChar: Eng
Encoding: 330 330 467
Width: 1532
Flags: W
TeX: 69 0 0 0
HStem: -410 170<631 788> 0 21G<55 251> 1473 20G<345 617 1279 1475>
Fore
944 -92 m 9,0,-1
 494 1249 l 1,1,-1
 251 0 l 1,2,-1
 55 0 l 1,3,-1
 345 1493 l 1,4,-1
 617 1493 l 1,5,-1
 1036 244 l 1,6,-1
 1279 1493 l 1,7,-1
 1475 1493 l 1,8,-1
 1205 104 l 1,9,10
 1153 -166 1153 -166 1028 -288 c 0,11,12
 902 -410 902 -410 674 -410 c 2,13,-1
 598 -410 l 1,14,-1
 631 -240 l 1,15,-1
 693 -240 l 2,16,17
 828 -240 828 -240 898 -165 c 0,18,19
 922 -137 922 -137 944 -92 c 9,0,-1
EndSplineSet
EndChar
StartChar: eng
Encoding: 331 331 468
Width: 1298
Flags: W
TeX: 101 0 0 0
HStem: 0 21G<72 257> 987 160<770 842>
VStem: 969 189<784 834>
Fore
1006 -20 m 18,2,3
 965 -234 965 -234 865 -330 c 128,-1,4
 764 -426 764 -426 583 -426 c 2,5,-1
 513 -426 l 1,6,-1
 544 -270 l 1,7,-1
 593 -270 l 2,8,9
 698 -270 698 -270 745 -222 c 128,-1,10
 792 -173 792 -173 822 -20 c 2,11,-1
 956 670 l 2,3,4
 969 733 969 733 969 784 c 0,0,0
 969 860 969 860 941 908 c 128,-1,5
 894 987 894 987 770 987 c 0,6,7
 621 987 621 987 516 892 c 128,-1,8
 412 797 412 797 380 633 c 2,9,-1
 257 0 l 1,10,-1
 72 0 l 1,11,-1
 290 1120 l 1,12,-1
 475 1120 l 1,13,-1
 441 946 l 1,14,15
 527 1047 527 1047 625 1097 c 128,-1,16
 725 1147 725 1147 842 1147 c 0,17,18
 1035 1147 1035 1147 1111 1028 c 128,-1,19
 1158 953 1158 953 1158 834 c 0,0,0
 1158 763 1158 763 1141 676 c 10,0,-1
 1006 -20 l 18,2,3
EndSplineSet
EndChar
StartChar: Tbar
Encoding: 358 358 489
Width: 1251
Flags: W
TeX: 84 0 0 0
HStem: 0 21G<378 581> 711 170<313 516 752 954> 1323 170<137 635 138 1368>
Fore
719 711 m 9,15,-1
 581 0 l 17,4,-1
 378 0 l 1,5,-1
 516 711 l 1,15,-1
 281 711 l 1,16,-1
 314 881 l 1,17,-1
 549 881 l 1,18,-1
 635 1323 l 1,6,-1
 105 1323 l 1,7,-1
 138 1493 l 1,0,-1
 1401 1493 l 1,1,-1
 1368 1323 l 1,2,-1
 838 1323 l 1,3,-1
 752 881 l 1,18,-1
 987 881 l 5,17,-1
 954 711 l 5,16,-1
 719 711 l 9,15,-1
EndSplineSet
EndChar
StartChar: tbar
Encoding: 359 359 490
Width: 803
Flags: W
TeX: 116 0 0 0
HStem: 0 154<449 640> 524 143<70 178 391 742> 977 143<158 266 479 830> 977 461<356 830>
VStem: 132 188<227 261>
Fore
363 524 m 13,0,0
 333 369 l 6,5,6
 320 304 320 304 320 261 c 0,0,0
 320 213 320 213 336 193 c 132,-1,7
 366 154 366 154 481 154 c 6,8,-1
 670 154 l 5,9,-1
 640 0 l 5,10,-1
 451 0 l 6,11,12
 238 0 238 0 173 80 c 132,-1,13
 132 129 132 129 132 227 c 0,0,0
 132 288 132 288 148 369 c 6,14,-1
 178 524 l 21,0,0
 43 524 l 5,16,-1
 71 667 l 5,17,-1
 206 667 l 13,0,0
 266 977 l 5,15,-1
 131 977 l 5,16,-1
 159 1120 l 5,17,-1
 294 1120 l 5,18,-1
 356 1438 l 5,19,-1
 541 1438 l 5,0,-1
 479 1120 l 5,1,-1
 858 1120 l 5,2,-1
 830 977 l 5,3,-1
 451 977 l 5,4,-1
 391 667 l 21,0,0
 770 667 l 5,2,-1
 742 524 l 5,3,-1
 363 524 l 13,0,0
EndSplineSet
EndChar
StartChar: longs
Encoding: 383 383 511
Width: 721
Flags: W
TeX: 108 0 0 0
HStem: 0 21G<109 294> 977 143<123 327> 1403 153<741 919>
AnchorPoint: "Top" 576 1493 basechar 0
Fore
531 1219 m 10,5,-1
 294 0 l 17,10,-1
 109 0 l 1,11,-1
 299 977 l 1,12,-1
 123 977 l 1,13,-1
 151 1120 l 1,14,-1
 327 1120 l 1,15,-1
 342 1198 l 2,16,17
 378 1385 378 1385 482 1470 c 128,-1,18
 586 1556 586 1556 775 1556 c 2,19,-1
 949 1556 l 1,0,-1
 919 1403 l 1,1,-1
 743 1403 l 2,2,3
 644 1403 644 1403 597 1363 c 128,-1,4
 551 1323 551 1323 531 1219 c 10,5,-1
EndSplineSet
EndChar
StartChar: uni0180
Encoding: 384 384 512
Width: 1300
Flags: W
TeX: 117 0 0 0
HStem: -29 21G<547.5 711> 0 21G<72 257> 1127 20G<776.5 940> 1284 125<192 346 507 833>
VStem: 1007 194<672 805>
Fore
992 559 m 0,0,1
 1007 639 1007 639 1007 705 c 0,2,3
 1007 807 1007 807 970 878 c 0,4,5
 909 993 909 993 763 993 c 128,-1,6
 617 993 617 993 511 878 c 0,7,8
 405 762 405 762 366 559 c 0,9,10
 350 479 350 479 350 413 c 0,11,12
 350 311 350 311 387 240 c 0,13,14
 448 125 448 125 594 125 c 128,-1,15
 740 125 740 125 846 240 c 0,16,17
 952 356 952 356 992 559 c 0,0,1
346 1409 m 9,18,-1
 375 1556 l 1,19,-1
 560 1556 l 1,20,-1
 531 1409 l 17,21,-1
 857 1409 l 1,22,-1
 833 1284 l 1,23,-1
 507 1284 l 9,24,-1
 442 950 l 1,25,26
 519 1050 519 1050 617 1098 c 0,27,28
 715 1147 715 1147 838 1147 c 0,29,30
 1042 1147 1042 1147 1138 985 c 0,31,32
 1201 879 1201 879 1201 731 c 0,33,34
 1201 651 1201 651 1183 559 c 0,35,36
 1131 295 1131 295 972 133 c 128,-1,37
 813 -29 813 -29 609 -29 c 0,38,39
 486 -29 486 -29 407 20 c 0,40,41
 328 68 328 68 290 168 c 1,42,-1
 257 0 l 1,43,-1
 72 0 l 1,44,-1
 322 1284 l 17,45,-1
 168 1284 l 1,46,-1
 192 1409 l 1,47,-1
 346 1409 l 9,18,-1
EndSplineSet
EndChar
StartChar: uni0181
Encoding: 385 385 513
Width: 1505
Flags: W
TeX: 117 0 0 0
HStem: 0 166<155 816.5> 713 164<495 900.5> 1327 166<615 1076.5> 1351 142<348 417>
VStem: 31 136<1127 1194.5>
Fore
417 1351 m 29,0,-1
 348 1351 l 22,1,2
 283 1351 283 1351 233 1311 c 4,3,4
 181 1271 181 1271 170 1214 c 4,5,6
 167 1201 167 1201 167 1188 c 0,7,8
 167 1148 167 1148 195 1118 c 13,9,-1
 73 1042 l 21,10,11
 31 1089 31 1089 31 1165 c 0,12,13
 31 1196 31 1196 38 1232 c 4,14,15
 57 1328 57 1328 142 1403 c 4,16,17
 199 1453 199 1453 267 1475 c 4,18,19
 323 1493 323 1493 374 1493 c 14,20,-1
 961 1493 l 18,21,22
 1192 1493 1192 1493 1298 1397 c 0,23,24
 1379 1324 1379 1324 1379 1206 c 0,25,26
 1379 1167 1379 1167 1370 1124 c 0,27,28
 1344 987 1344 987 1264 906 c 128,-1,29
 1184 825 1184 825 1056 805 c 1,30,31
 1201 773 1201 773 1262 672 c 0,32,33
 1305 603 1305 603 1305 511 c 0,34,35
 1305 467 1305 467 1295 418 c 0,36,37
 1256 218 1256 218 1099 109 c 128,-1,38
 942 0 942 0 691 0 c 2,39,-1
 155 0 l 1,40,-1
 417 1351 l 29,0,-1
495 713 m 1,41,-1
 389 166 l 1,42,-1
 713 166 l 2,43,44
 876 166 876 166 967 234 c 0,45,46
 1059 301 1059 301 1086 440 c 0,47,48
 1094 481 1094 481 1094 515 c 0,49,50
 1094 599 1094 599 1047 646 c 0,51,52
 982 713 982 713 819 713 c 2,53,-1
 495 713 l 1,41,-1
615 1327 m 1,54,-1
 527 877 l 1,55,-1
 826 877 l 2,56,57
 974 877 974 877 1057 932 c 0,58,59
 1141 988 1141 988 1163 1102 c 0,60,61
 1169 1132 1169 1132 1169 1157 c 0,62,63
 1169 1230 1169 1230 1123 1271 c 0,64,65
 1062 1327 1062 1327 914 1327 c 2,66,-1
 615 1327 l 1,54,-1
EndSplineSet
EndChar
StartChar: uni0182
Encoding: 386 386 514
Width: 1405
Flags: W
TeX: 117 0 0 0
HStem: 0 166<55 613> 713 166<395 887.5> 1327 166<345 1159>
Fore
986 439 m 16,0,1
 994 479 994 479 994 514 c 0,2,3
 994 598 994 598 947 646 c 0,4,5
 882 713 882 713 719 713 c 2,6,-1
 395 713 l 1,7,-1
 289 166 l 1,8,-1
 613 166 l 2,9,10
 776 166 776 166 867 234 c 0,11,12
 959 301 959 301 986 439 c 16,0,1
1191 1493 m 25,13,-1
 1159 1327 l 25,14,-1
 515 1327 l 1,15,-1
 428 879 l 1,16,-1
 762 879 l 2,17,18
 1013 879 1013 879 1127 770 c 0,19,20
 1211 691 1211 691 1211 552 c 0,21,22
 1211 500 1211 500 1199 439 c 8,23,24
 1156 218 1156 218 999 109 c 128,-1,25
 842 0 842 0 591 0 c 2,26,-1
 55 0 l 1,27,-1
 345 1493 l 1,28,-1
 1191 1493 l 25,13,-1
EndSplineSet
EndChar
StartChar: uni0183
Encoding: 387 387 515
Width: 1300
Flags: W
TeX: 117 0 0 0
HStem: -29 21G<547.5 711> 0 21G<72 257> 1127 20G<776.5 940> 1339 154<362 1101>
VStem: 1007 194<672 805>
Fore
517 1339 m 17,0,-1
 442 950 l 1,1,2
 519 1050 519 1050 617 1098 c 0,3,4
 715 1147 715 1147 838 1147 c 0,5,6
 1042 1147 1042 1147 1138 985 c 0,7,8
 1201 879 1201 879 1201 731 c 0,9,10
 1201 651 1201 651 1183 559 c 0,11,12
 1131 295 1131 295 972 133 c 128,-1,13
 813 -29 813 -29 609 -29 c 0,14,15
 486 -29 486 -29 407 20 c 0,16,17
 328 68 328 68 290 168 c 1,18,-1
 257 0 l 1,19,-1
 72 0 l 1,20,-1
 362 1493 l 9,21,-1
 1131 1493 l 1,22,-1
 1101 1339 l 9,23,-1
 517 1339 l 17,0,-1
992 559 m 0,24,25
 1007 639 1007 639 1007 705 c 0,26,27
 1007 807 1007 807 970 878 c 0,28,29
 909 993 909 993 763 993 c 128,-1,30
 617 993 617 993 511 878 c 0,31,32
 405 762 405 762 366 559 c 0,33,34
 350 479 350 479 350 413 c 0,35,36
 350 311 350 311 387 240 c 0,37,38
 448 125 448 125 594 125 c 128,-1,39
 740 125 740 125 846 240 c 0,40,41
 952 356 952 356 992 559 c 0,24,25
EndSplineSet
EndChar
StartChar: uni0184
Encoding: 388 388 516
Width: 1405
Flags: W
TeX: 117 0 0 0
HStem: 0 166<55 613> 713 166<395 888>
Fore
986 439 m 16,0,1
 994 479 994 479 994 514 c 0,2,3
 994 598 994 598 947 646 c 0,4,5
 882 713 882 713 719 713 c 2,6,-1
 395 713 l 1,7,-1
 289 166 l 1,8,-1
 613 166 l 2,9,10
 776 166 776 166 867 234 c 0,11,12
 959 301 959 301 986 439 c 16,0,1
559 1556 m 17,13,-1
 428 879 l 1,14,-1
 762 879 l 1,15,16
 1014 879 1014 879 1127 770 c 0,17,18
 1211 691 1211 691 1211 552 c 0,19,20
 1211 500 1211 500 1199 439 c 8,21,22
 1156 218 1156 218 999 109 c 128,-1,23
 842 0 842 0 591 0 c 2,24,-1
 55 0 l 1,25,-1
 230 902 l 1,26,-1
 72 1120 l 25,27,-1
 559 1556 l 17,13,-1
EndSplineSet
EndChar
StartChar: uni0185
Encoding: 389 389 517
Width: 1300
Flags: W
TeX: 117 0 0 0
HStem: -29 21G<547.5 711> 0 21G<72 257> 1127 20G<776.5 940>
VStem: 1007 194<672 805>
Fore
247 902 m 17,0,-1
 103 1120 l 25,1,-1
 560 1556 l 17,2,-1
 442 950 l 1,3,4
 519 1050 519 1050 617 1098 c 0,5,6
 715 1147 715 1147 838 1147 c 0,7,8
 1042 1147 1042 1147 1138 985 c 0,9,10
 1201 879 1201 879 1201 731 c 0,11,12
 1201 651 1201 651 1183 559 c 0,13,14
 1131 295 1131 295 972 133 c 128,-1,15
 813 -29 813 -29 609 -29 c 0,16,17
 486 -29 486 -29 407 20 c 0,18,19
 328 68 328 68 290 168 c 1,20,-1
 257 0 l 1,21,-1
 72 0 l 9,22,-1
 247 902 l 17,0,-1
992 559 m 0,23,24
 1007 639 1007 639 1007 705 c 0,25,26
 1007 807 1007 807 970 878 c 0,27,28
 909 993 909 993 763 993 c 128,-1,29
 617 993 617 993 511 878 c 0,30,31
 405 762 405 762 366 559 c 0,32,33
 350 479 350 479 350 413 c 0,34,35
 350 311 350 311 387 240 c 0,36,37
 448 125 448 125 594 125 c 128,-1,38
 740 125 740 125 846 240 c 0,39,40
 952 356 952 356 992 559 c 0,23,24
EndSplineSet
EndChar
StartChar: uni0186
Encoding: 390 390 518
Width: 1430
Flags: W
TeX: 117 0 0 0
HStem: -29 166<371 607.5> 1354 166<630 908.5>
VStem: 1125 215<893.5 1061.5>
Fore
-9 113 m 1,0,-1
 32 326 l 1,1,2
 133 231 133 231 222 184 c 0,3,4
 320 137 320 137 458 137 c 0,5,6
 714 137 714 137 881 294 c 0,7,8
 1047 450 1047 450 1105 746 c 0,9,10
 1125 850 1125 850 1125 937 c 0,11,12
 1125 1096 1125 1096 1057 1198 c 0,13,14
 951 1354 951 1354 695 1354 c 0,15,16
 565 1354 565 1354 440 1307 c 0,17,18
 316 1260 316 1260 195 1165 c 1,19,-1
 236 1376 l 1,20,21
 356 1448 356 1448 482 1484 c 0,22,23
 607 1520 607 1520 739 1520 c 0,24,25
 1078 1520 1078 1520 1233 1312 c 0,26,27
 1340 1169 1340 1169 1340 954 c 0,28,29
 1340 858 1340 858 1318 746 c 0,30,31
 1248 386 1248 386 1012 178 c 0,32,33
 777 -29 777 -29 438 -29 c 0,34,35
 304 -29 304 -29 193 6 c 0,36,37
 81 42 81 42 -9 113 c 1,0,-1
EndSplineSet
EndChar
StartChar: uni0187
Encoding: 391 391 519
Width: 1430
Flags: W
TeX: 117 0 0 0
HStem: -29 166<522.5 801> 1354 166<823.5 1061.5>
VStem: 92 214<428.5 598>
Fore
1313 1454 m 5,0,1
 1299 1463 1299 1463 1238 1484 c 4,2,3
 1130 1520 1130 1520 993 1520 c 0,4,5
 654 1520 654 1520 419 1312 c 0,6,7
 184 1105 184 1105 114 745 c 0,8,9
 92 633 92 633 92 536 c 0,10,11
 92 321 92 321 198 178 c 0,12,13
 353 -29 353 -29 692 -29 c 0,14,15
 824 -29 824 -29 949 7 c 0,16,17
 1075 43 1075 43 1195 115 c 1,18,-1
 1236 326 l 1,19,20
 1116 231 1116 231 992 184 c 0,21,22
 866 137 866 137 736 137 c 0,23,24
 480 137 480 137 375 294 c 0,25,26
 306 395 306 395 306 555 c 0,27,28
 306 641 306 641 327 745 c 0,29,30
 384 1041 384 1041 551 1198 c 0,31,32
 717 1354 717 1354 973 1354 c 0,33,34
 1103 1354 1103 1354 1210 1307 c 4,35,36
 1316 1260 1316 1260 1399 1165 c 13,37,-1
 1454 1447 l 22,38,39
 1467 1512 1467 1512 1515 1555 c 4,40,41
 1564 1599 1564 1599 1621 1599 c 132,-1,42
 1678 1599 1678 1599 1708 1555 c 13,43,-1
 1805 1662 l 21,44,45
 1753 1734 1753 1734 1629 1734 c 4,46,47
 1533 1734 1533 1734 1444 1664 c 4,48,49
 1385 1616 1385 1616 1351 1553 c 4,50,51
 1322 1500 1322 1500 1313 1454 c 5,0,1
EndSplineSet
EndChar
StartChar: uni0188
Encoding: 392 392 520
Width: 1126
Flags: W
TeX: 117 0 0 0
HStem: -29 156<417.5 635> 991 156<654 843>
VStem: 92 196<321.5 459.5>
Fore
963 1125 m 5,1,2
 968 1150 968 1150 995 1202 c 4,3,4
 1029 1265 1029 1265 1088 1313 c 4,5,6
 1177 1383 1177 1383 1273 1383 c 4,7,8
 1397 1383 1397 1383 1449 1311 c 13,9,-1
 1352 1204 l 21,10,11
 1322 1248 1322 1248 1265 1248 c 132,-1,12
 1208 1248 1208 1248 1159 1204 c 4,13,14
 1111 1161 1111 1161 1098 1096 c 6,15,-1
 1061 905 l 21,16,17
 991 948 991 948 917 970 c 4,18,19
 843 991 843 991 763 991 c 0,20,21
 584 991 584 991 463 878 c 0,22,23
 342 764 342 764 302 559 c 0,24,25
 288 489 288 489 288 430 c 0,26,27
 288 315 288 315 339 240 c 0,28,29
 416 127 416 127 595 127 c 0,30,31
 675 127 675 127 757 148 c 0,32,33
 840 170 840 170 926 213 c 1,34,-1
 893 43 l 1,35,36
 809 7 809 7 724 -11 c 0,37,38
 637 -29 637 -29 544 -29 c 0,39,40
 291 -29 291 -29 173 130 c 0,41,42
 92 240 92 240 92 403 c 0,43,44
 92 476 92 476 108 559 c 0,45,46
 161 833 161 833 343 990 c 0,47,48
 523 1147 523 1147 785 1147 c 0,49,50
 901 1147 901 1147 963 1125 c 5,1,2
EndSplineSet
EndChar
StartChar: uni018A
Encoding: 394 394 522
Width: 1677
Flags: W
TeX: 117 0 0 0
HStem: 0 166<389 787.5> 1327 166<615 1077> 1351 142<315.5 417>
VStem: 31 136<1127 1194.5> 1362 216<889.5 1076>
Fore
374 1493 m 10,0,-1
 860 1493 l 2,1,2
 1294 1493 1294 1493 1462 1312 c 0,3,4
 1578 1187 1578 1187 1578 965 c 0,5,6
 1578 866 1578 866 1555 748 c 0,7,8
 1480 362 1480 362 1241 181 c 128,-1,9
 1002 0 1002 0 570 0 c 2,10,-1
 155 0 l 9,11,-1
 417 1351 l 25,12,-1
 348 1351 l 18,13,14
 283 1351 283 1351 233 1311 c 0,15,16
 181 1271 181 1271 170 1214 c 0,17,18
 167 1201 167 1201 167 1188 c 0,19,20
 167 1148 167 1148 195 1118 c 9,21,-1
 73 1042 l 17,22,23
 31 1089 31 1089 31 1165 c 0,24,25
 31 1196 31 1196 38 1232 c 0,26,27
 57 1330 57 1330 142 1403 c 0,28,29
 199 1453 199 1453 267 1475 c 0,30,31
 323 1493 323 1493 374 1493 c 10,0,-1
615 1327 m 1,32,-1
 389 166 l 1,33,-1
 633 166 l 2,34,35
 942 166 942 166 1113 306 c 128,-1,36
 1284 446 1284 446 1342 748 c 0,37,38
 1362 848 1362 848 1362 931 c 0,39,40
 1362 1095 1362 1095 1285 1188 c 0,41,42
 1168 1327 1168 1327 859 1327 c 2,43,-1
 615 1327 l 1,32,-1
EndSplineSet
EndChar
StartChar: uni018B
Encoding: 395 395 523
Width: 1405
Flags: W
TeX: 117 0 0 0
HStem: 0 166<452.5 1114> 713 166<726 1083> 1327 166<558 1170>
Fore
353 439 m 16,0,1
 345 399 345 399 345 365 c 0,2,3
 345 282 345 282 392 234 c 0,4,5
 457 166 457 166 620 166 c 2,6,-1
 944 166 l 1,7,-1
 1050 713 l 1,8,-1
 726 713 l 2,9,10
 563 713 563 713 472 646 c 0,11,12
 380 578 380 578 353 439 c 16,0,1
558 1493 m 25,13,-1
 1404 1493 l 1,14,-1
 1114 0 l 1,15,-1
 578 0 l 2,16,17
 327 0 327 0 212 109 c 0,18,19
 128 188 128 188 128 327 c 0,20,21
 128 379 128 379 140 439 c 8,22,23
 183 661 183 661 340 770 c 0,24,25
 498 879 498 879 749 879 c 2,26,-1
 1083 879 l 1,27,-1
 1170 1327 l 1,28,-1
 526 1327 l 25,29,-1
 558 1493 l 25,13,-1
EndSplineSet
EndChar
StartChar: uni018C
Encoding: 396 396 524
Width: 1300
Flags: W
TeX: 117 0 0 0
HStem: -29 21G<423 586.5> 0 21G<889 1074> 1127 20G<652 815.5> 1339 154<595 1364>
VStem: 163 193<313.5 445.5>
Fore
1149 1339 m 9,0,-1
 565 1339 l 17,1,-1
 595 1493 l 1,2,-1
 1364 1493 l 17,3,-1
 1074 0 l 1,4,-1
 889 0 l 1,5,-1
 922 168 l 1,6,7
 844 68 844 68 746 20 c 0,8,9
 648 -29 648 -29 525 -29 c 0,10,11
 321 -29 321 -29 226 133 c 0,12,13
 163 239 163 239 163 388 c 0,14,15
 163 467 163 467 181 559 c 0,16,17
 232 823 232 823 392 985 c 0,18,19
 550 1147 550 1147 754 1147 c 0,20,21
 877 1147 877 1147 956 1098 c 0,22,23
 1035 1050 1035 1050 1074 950 c 1,24,-1
 1149 1339 l 9,0,-1
372 559 m 0,25,26
 356 479 356 479 356 412 c 0,27,28
 356 310 356 310 393 240 c 0,29,30
 454 125 454 125 600 125 c 128,-1,31
 746 125 746 125 853 240 c 0,32,33
 958 356 958 356 998 559 c 0,34,35
 1013 639 1013 639 1013 706 c 0,36,37
 1013 808 1013 808 977 878 c 0,38,39
 915 993 915 993 769 993 c 128,-1,40
 623 993 623 993 517 878 c 0,41,42
 411 762 411 762 372 559 c 0,25,26
EndSplineSet
EndChar
StartChar: uni018D
Encoding: 397 397 525
Width: 1253
Flags: W
TeX: 117 0 0 0
HStem: -400 153<288.5 619.5> 993 156<616 855.5>
VStem: 93 199<330 473.5> 706 192<-121 -29> 957 197<671.5 809.5>
Fore
102 -177 m 17,0,1
 190 -247 190 -247 429 -247 c 0,2,3
 682 -247 682 -247 705 -130 c 16,4,5
 706 -124 706 -124 706 -118 c 0,6,7
 706 -35 706 -35 468 10 c 0,8,9
 267 47 267 47 172 159 c 0,10,11
 93 251 93 251 93 409 c 0,12,13
 93 483 93 483 110 571 c 0,14,15
 162 836 162 836 329 992 c 0,16,17
 496 1149 496 1149 736 1149 c 0,18,19
 975 1149 975 1149 1083 992 c 0,20,21
 1154 888 1154 888 1154 731 c 0,22,23
 1154 653 1154 653 1136 561 c 0,24,25
 1096 357 1096 357 927 192 c 0,26,27
 862 128 862 128 780 92 c 1,28,29
 898 26 898 26 898 -84 c 0,30,31
 898 -105 898 -105 893 -128 c 8,32,33
 840 -400 840 -400 399 -400 c 0,34,35
 178 -400 178 -400 72 -330 c 9,36,-1
 102 -177 l 17,0,1
652 142 m 1,37,38
 725 171 725 171 795 244 c 0,39,40
 902 357 902 357 942 561 c 0,41,42
 957 639 957 639 957 704 c 0,43,44
 957 808 957 808 919 878 c 0,45,46
 855 993 855 993 706 993 c 0,47,48
 559 993 559 993 451 877 c 0,49,50
 342 761 342 761 305 571 c 0,51,52
 292 502 292 502 292 445 c 0,53,54
 292 339 292 339 339 276 c 0,55,56
 416 173 416 173 540 162 c 0,57,58
 602 156 602 156 652 142 c 1,37,38
EndSplineSet
EndChar
StartChar: uni018E
Encoding: 398 398 526
Width: 1294
Flags: W
TeX: 117 0 0 0
HStem: 0 170<88 1017> 711 170<275 986> 1323 170<363 1307>
Fore
1307 1493 m 1,0,-1
 1017 0 l 1,1,-1
 55 0 l 1,2,-1
 88 170 l 1,3,-1
 848 170 l 1,4,-1
 953 711 l 1,5,-1
 242 711 l 1,6,-1
 275 881 l 1,7,-1
 986 881 l 1,8,-1
 1072 1323 l 1,9,-1
 330 1323 l 1,10,-1
 363 1493 l 1,11,-1
 1307 1493 l 1,0,-1
EndSplineSet
EndChar
StartChar: uni018F
Encoding: 399 399 527
Width: 1612
Flags: W
TeX: 117 0 0 0
HStem: -27 165<621 659> 620 170<136 1249> 1356 164<830 896>
VStem: 95 213<468 518> 1300 216<916 982>
Fore
320 620 m 1,21,22
 308 552 308 552 308 492 c 0,0,0
 308 356 308 356 373 265 c 128,-1,23
 465 138 465 138 657 138 c 0,24,25
 872 138 872 138 1027 261 c 128,-1,26
 1184 385 1184 385 1249 620 c 1,27,-1
 320 620 l 1,21,22
274 1211 m 9,8,-1
 312 1407 l 17,9,10
 454 1463 454 1463 596 1491 c 128,-1,11
 738 1520 738 1520 879 1520 c 0,12,13
 1232 1520 1232 1520 1397 1315 c 128,-1,14
 1516 1169 1516 1169 1516 950 c 0,0,0
 1516 861 1516 861 1497 760 c 0,15,16
 1426 398 1426 398 1189 185 c 128,-1,17
 953 -27 953 -27 621 -27 c 0,18,19
 321 -27 321 -27 187 164 c 128,-1,20
 95 294 95 294 95 487 c 0,0,0
 95 579 95 579 116 685 c 2,0,-1
 136 790 l 1,1,-1
 1290 790 l 1,2,3
 1300 871 1300 871 1300 940 c 0,0,0
 1300 1127 1300 1127 1225 1216 c 128,-1,4
 1106 1355 1106 1355 869 1356 c 0,5,6
 724 1356 724 1356 573 1320 c 128,-1,7
 424 1284 424 1284 274 1211 c 9,8,-1
EndSplineSet
EndChar
StartChar: uni0190
Encoding: 400 400 528
Width: 1303
Flags: W
TeX: 117 0 0 0
HStem: -29 170<448 681.5> 715 166<617.5 874> 1350 170<723 882.5>
VStem: 83 205<256.5 383> 258 199<1022 1078>
Fore
474 805 m 1,0,1
 350 838 350 838 295 924 c 0,2,3
 258 983 258 983 258 1061 c 0,4,5
 258 1095 258 1095 265 1133 c 0,6,7
 300 1311 300 1311 454 1416 c 0,8,9
 608 1520 608 1520 838 1520 c 0,10,11
 927 1520 927 1520 1024 1504 c 0,12,13
 1122 1488 1122 1488 1231 1456 c 1,14,-1
 1196 1276 l 1,15,16
 1089 1314 1089 1314 998 1332 c 0,17,18
 906 1350 906 1350 823 1350 c 0,19,20
 671 1350 671 1350 578 1288 c 0,21,22
 484 1227 484 1227 462 1112 c 0,23,24
 457 1085 457 1085 457 1060 c 0,25,26
 457 985 457 985 508 940 c 0,27,28
 575 881 575 881 724 881 c 2,29,-1
 906 881 l 1,30,-1
 874 715 l 1,31,-1
 700 715 l 2,32,33
 535 715 535 715 428 640 c 0,34,35
 321 566 321 566 295 434 c 0,36,37
 288 399 288 399 288 367 c 0,38,39
 288 272 288 272 352 216 c 0,40,41
 437 141 437 141 627 141 c 0,42,43
 736 141 736 141 841 166 c 128,-1,44
 946 191 946 191 1039 240 c 1,45,-1
 1002 45 l 1,46,47
 888 8 888 8 786 -10 c 0,48,49
 682 -29 682 -29 588 -29 c 0,50,51
 308 -29 308 -29 180 92 c 0,52,53
 83 183 83 183 83 330 c 0,54,55
 83 379 83 379 94 434 c 0,56,57
 122 578 122 578 223 676 c 0,58,59
 323 774 323 774 474 805 c 1,0,1
EndSplineSet
EndChar
StartChar: uni0191
Encoding: 401 401 529
Width: 1178
Flags: W
TeX: 117 0 0 0
HStem: 713 170<395 987> 1323 170<345 1170>
Fore
243 -70 m 6,0,1
 222 -178 222 -178 178 -245 c 4,2,3
 139 -304 139 -304 69 -354 c 4,4,5
 -33 -426 -33 -426 -142 -426 c 4,6,7
 -271 -426 -271 -426 -323 -354 c 13,8,-1
 -226 -247 l 21,9,10
 -196 -291 -196 -291 -139 -291 c 132,-1,11
 -82 -291 -82 -291 -33 -247 c 4,12,13
 15 -204 15 -204 28 -139 c 6,14,-1
 345 1493 l 1,15,-1
 1203 1493 l 1,16,-1
 1170 1323 l 1,17,-1
 514 1323 l 1,18,-1
 428 883 l 1,19,-1
 1020 883 l 1,20,-1
 987 713 l 1,21,-1
 395 713 l 1,22,-1
 243 -70 l 6,0,1
EndSplineSet
EndChar
StartChar: uni0193
Encoding: 403 403 530
Width: 1587
Flags: W
TeX: 117 0 0 0
HStem: -29 166<533 810.5> 614 166<894 1192> 1354 166<834 1086>
VStem: 92 214<425.5 595>
Fore
1374 1450 m 5,0,1
 1328 1469 1328 1469 1280 1484 c 0,2,3
 1163 1520 1163 1520 1009 1520 c 0,4,5
 659 1520 659 1520 422 1316 c 0,6,7
 185 1113 185 1113 114 745 c 0,8,9
 92 632 92 632 92 534 c 0,10,11
 92 317 92 317 200 176 c 0,12,13
 358 -29 358 -29 708 -29 c 0,14,15
 868 -29 868 -29 1018 14 c 0,16,17
 1167 56 1167 56 1300 139 c 1,18,-1
 1424 780 l 1,19,-1
 894 780 l 1,20,-1
 862 614 l 1,21,-1
 1192 614 l 1,22,-1
 1114 213 l 1,23,24
 1040 174 1040 174 952 156 c 0,25,26
 864 137 864 137 757 137 c 0,27,28
 483 137 483 137 376 290 c 0,29,30
 306 389 306 389 306 551 c 0,31,32
 306 639 306 639 327 745 c 0,33,34
 386 1048 386 1048 553 1201 c 128,-1,35
 720 1354 720 1354 994 1354 c 0,36,37
 1133 1354 1133 1354 1250 1306 c 0,38,39
 1366 1258 1366 1258 1460 1163 c 13,40,-1
 1515 1447 l 22,41,42
 1528 1512 1528 1512 1576 1555 c 4,43,44
 1625 1599 1625 1599 1682 1599 c 132,-1,45
 1739 1599 1739 1599 1769 1555 c 13,46,-1
 1866 1662 l 21,47,48
 1814 1734 1814 1734 1690 1734 c 4,49,50
 1594 1734 1594 1734 1505 1664 c 4,51,52
 1446 1616 1446 1616 1412 1553 c 4,53,54
 1383 1500 1383 1500 1374 1450 c 5,0,1
EndSplineSet
EndChar
StartChar: uni0194
Encoding: 404 404 531
Width: 1477
Flags: W
TeX: 117 0 0 0
HStem: -426 160<385.5 661.5> 1473 20G<168 395 1373 1600>
VStem: 261 184<-311 -154> 691 192<-93 25.5>
Fore
626 171 m 1,0,1
 463 -50 463 -50 451 -110 c 0,2,3
 445 -141 445 -141 445 -167 c 0,4,5
 445 -266 445 -266 541 -266 c 8,6,7
 659 -266 659 -266 689 -110 c 0,8,9
 691 -100 691 -100 691 -86 c 0,10,11
 691 -9 691 -9 626 171 c 1,0,1
782 381 m 1,12,13
 883 91 883 91 883 -40 c 0,14,15
 883 -65 883 -65 879 -84 c 0,16,17
 813 -426 813 -426 510 -426 c 16,18,19
 261 -426 261 -426 261 -196 c 0,20,21
 261 -145 261 -145 272 -84 c 0,22,23
 295 31 295 31 553 383 c 1,24,-1
 168 1493 l 5,25,-1
 395 1493 l 5,26,-1
 707 584 l 1,27,-1
 1373 1493 l 1,28,-1
 1600 1493 l 1,29,-1
 782 381 l 1,12,13
EndSplineSet
EndChar
